<?xml version="1.0" encoding="UTF-8" standalone="no"?>
<svg
   xmlns:dc="http://purl.org/dc/elements/1.1/"
   xmlns:cc="http://creativecommons.org/ns#"
   xmlns:rdf="http://www.w3.org/1999/02/22-rdf-syntax-ns#"
   xmlns:svg="http://www.w3.org/2000/svg"
   xmlns="http://www.w3.org/2000/svg"
   xmlns:sodipodi="http://sodipodi.sourceforge.net/DTD/sodipodi-0.dtd"
   xmlns:inkscape="http://www.inkscape.org/namespaces/inkscape"
   width="196.15878mm"
   height="102.12437mm"
   viewBox="0 0 196.15878 102.12437"
   version="1.1"
   id="svg8"
   sodipodi:docname="Figure_cicd.svg"
   inkscape:version="1.0.1 (3bc2e813f5, 2020-09-07)"
   inkscape:export-filename="/home/benjamin/Codes/thesis_bg/part_1/assets/Figure_cicd.png"
   inkscape:export-xdpi="96"
   inkscape:export-ydpi="96">
  <defs
     id="defs2">
    <rect
       x="37.20237"
       y="187.1684"
       width="66.569565"
       height="31.661896"
       id="rect5397" />
    <rect
       x="86.319252"
       y="131.16342"
       width="81.092598"
       height="9.7352076"
       id="rect5391" />
    <rect
       x="198.79587"
       y="140.97026"
       width="6.4461155"
       height="7.8568416"
       id="rect2812" />
    <rect
       x="196.9704"
       y="140.23016"
       width="6.5571079"
       height="9.5842733"
       id="rect2800" />
    <rect
       x="196.08063"
       y="144.35295"
       width="7.5056343"
       height="9.0076141"
       id="rect2794" />
    <marker
       style="overflow:visible"
       id="StopL"
       refX="0"
       refY="0"
       orient="auto"
       inkscape:stockid="StopL"
       inkscape:isstock="true">
      <path
         transform="scale(0.8)"
         style="fill:none;fill-opacity:0.75;fill-rule:evenodd;stroke:#000000;stroke-width:1pt;stroke-opacity:1"
         d="M 0,5.65 V -5.65"
         id="path1017" />
    </marker>
    <marker
       style="overflow:visible"
       id="DiamondMstart"
       refX="0"
       refY="0"
       orient="auto"
       inkscape:stockid="DiamondMstart"
       inkscape:isstock="true">
      <path
         transform="matrix(0.4,0,0,0.4,2.6,0)"
         style="fill:#000000;fill-opacity:1;fill-rule:evenodd;stroke:#000000;stroke-width:1pt;stroke-opacity:1"
         d="M 0,-7.0710768 -7.0710894,0 0,7.0710589 7.0710462,0 Z"
         id="path939" />
    </marker>
    <marker
       inkscape:stockid="DistanceStart"
       orient="auto"
       refY="0"
       refX="0"
       id="marker2375"
       style="overflow:visible"
       inkscape:isstock="true">
      <g
         id="g2373"
         style="fill:#000000;fill-opacity:1;stroke:#000000;stroke-opacity:1">
        <path
           id="path2367"
           d="M 0,0 H 2"
           style="fill:#000000;fill-opacity:1;stroke:#000000;stroke-width:1.15;stroke-linecap:square;stroke-opacity:1" />
        <path
           id="path2369"
           d="M 0,0 13,4 9,0 13,-4 Z"
           style="fill:#000000;fill-opacity:1;fill-rule:evenodd;stroke:#000000;stroke-opacity:1" />
        <path
           id="path2371"
           d="M 0,-4 V 40"
           style="fill:#000000;fill-opacity:1;stroke:#000000;stroke-width:1;stroke-linecap:square;stroke-opacity:1" />
      </g>
    </marker>
    <marker
       inkscape:stockid="DistanceStart"
       orient="auto"
       refY="0"
       refX="0"
       id="marker2278"
       style="overflow:visible"
       inkscape:isstock="true">
      <g
         id="g2276"
         style="fill:#000000;fill-opacity:1;stroke:#000000;stroke-opacity:1">
        <path
           id="path2270"
           d="M 0,0 H 2"
           style="fill:#000000;fill-opacity:1;stroke:#000000;stroke-width:1.15;stroke-linecap:square;stroke-opacity:1" />
        <path
           id="path2272"
           d="M 0,0 13,4 9,0 13,-4 Z"
           style="fill:#000000;fill-opacity:1;fill-rule:evenodd;stroke:#000000;stroke-opacity:1" />
        <path
           id="path2274"
           d="M 0,-4 V 40"
           style="fill:#000000;fill-opacity:1;stroke:#000000;stroke-width:1;stroke-linecap:square;stroke-opacity:1" />
      </g>
    </marker>
    <marker
       style="overflow:visible"
       id="marker2193"
       refX="0"
       refY="0"
       orient="auto"
       inkscape:stockid="Arrow2Mend"
       inkscape:isstock="true">
      <path
         transform="scale(-0.6)"
         d="M 8.7185878,4.0337352 -2.2072895,0.01601326 8.7185884,-4.0017078 c -1.7454984,2.3720609 -1.7354408,5.6174519 -6e-7,8.035443 z"
         style="fill:#000000;fill-opacity:1;fill-rule:evenodd;stroke:#000000;stroke-width:0.625;stroke-linejoin:round;stroke-opacity:1"
         id="path2191" />
    </marker>
    <marker
       inkscape:stockid="DistanceStart"
       orient="auto"
       refY="0"
       refX="0"
       id="DistanceStart"
       style="overflow:visible"
       inkscape:isstock="true">
      <g
         id="g2300"
         style="fill:#000000;fill-opacity:1;stroke:#000000;stroke-opacity:1">
        <path
           id="path2306"
           d="M 0,0 H 2"
           style="fill:#000000;fill-opacity:1;stroke:#000000;stroke-width:1.15;stroke-linecap:square;stroke-opacity:1" />
        <path
           id="path2302"
           d="M 0,0 13,4 9,0 13,-4 Z"
           style="fill:#000000;fill-opacity:1;fill-rule:evenodd;stroke:#000000;stroke-opacity:1" />
        <path
           id="path2304"
           d="M 0,-4 V 40"
           style="fill:#000000;fill-opacity:1;stroke:#000000;stroke-width:1;stroke-linecap:square;stroke-opacity:1" />
      </g>
    </marker>
    <marker
       style="overflow:visible"
       id="marker2076"
       refX="0"
       refY="0"
       orient="auto"
       inkscape:stockid="Arrow2Mend"
       inkscape:isstock="true">
      <path
         transform="scale(-0.6)"
         d="M 8.7185878,4.0337352 -2.2072895,0.01601326 8.7185884,-4.0017078 c -1.7454984,2.3720609 -1.7354408,5.6174519 -6e-7,8.035443 z"
         style="fill:#000000;fill-opacity:1;fill-rule:evenodd;stroke:#000000;stroke-width:0.625;stroke-linejoin:round;stroke-opacity:1"
         id="path2074" />
    </marker>
    <marker
       style="overflow:visible"
       id="Arrow2Mend"
       refX="0"
       refY="0"
       orient="auto"
       inkscape:stockid="Arrow2Mend"
       inkscape:isstock="true"
       inkscape:collect="always">
      <path
         transform="scale(-0.6)"
         d="M 8.7185878,4.0337352 -2.2072895,0.01601326 8.7185884,-4.0017078 c -1.7454984,2.3720609 -1.7354408,5.6174519 -6e-7,8.035443 z"
         style="fill:#454545;fill-opacity:1;fill-rule:evenodd;stroke:#454545;stroke-width:0.625;stroke-linejoin:round;stroke-opacity:1"
         id="path875" />
    </marker>
    <rect
       x="6.2263641"
       y="93.960182"
       width="36.284054"
       height="19.744013"
       id="rect1408" />
    <marker
       style="overflow:visible"
       id="marker1283"
       refX="0"
       refY="0"
       orient="auto"
       inkscape:stockid="Arrow2Lend"
       inkscape:isstock="true">
      <path
         transform="matrix(-1.1,0,0,-1.1,-1.1,0)"
         d="M 8.7185878,4.0337352 -2.2072895,0.01601326 8.7185884,-4.0017078 c -1.7454984,2.3720609 -1.7354408,5.6174519 -6e-7,8.035443 z"
         style="fill:#000000;fill-opacity:1;fill-rule:evenodd;stroke:#000000;stroke-width:0.625;stroke-linejoin:round;stroke-opacity:1"
         id="path1281" />
    </marker>
    <inkscape:path-effect
       effect="spiro"
       id="path-effect1279"
       is_visible="true"
       lpeversion="1" />
    <inkscape:path-effect
       effect="skeletal"
       id="path-effect1275"
       is_visible="true"
       lpeversion="1"
       pattern="M 0,5 C 0,2.24 2.24,0 5,0 7.76,0 10,2.24 10,5 10,7.76 7.76,10 5,10 2.24,10 0,7.76 0,5 Z"
       copytype="single_stretched"
       prop_scale="1"
       scale_y_rel="false"
       spacing="0"
       normal_offset="0"
       tang_offset="0"
       prop_units="false"
       vertical_pattern="false"
       hide_knot="false"
       fuse_tolerance="0" />
    <inkscape:path-effect
       effect="skeletal"
       id="path-effect1269"
       is_visible="true"
       lpeversion="1"
       pattern="M 0,5 C 0,2.24 2.24,0 5,0 7.76,0 10,2.24 10,5 10,7.76 7.76,10 5,10 2.24,10 0,7.76 0,5 Z"
       copytype="single_stretched"
       prop_scale="1"
       scale_y_rel="false"
       spacing="0"
       normal_offset="0"
       tang_offset="0"
       prop_units="false"
       vertical_pattern="false"
       hide_knot="false"
       fuse_tolerance="0" />
    <marker
       style="overflow:visible"
       id="Arrow2Lend"
       refX="0"
       refY="0"
       orient="auto"
       inkscape:stockid="Arrow2Lend"
       inkscape:isstock="true">
      <path
         transform="matrix(-1.1,0,0,-1.1,-1.1,0)"
         d="M 8.7185878,4.0337352 -2.2072895,0.01601326 8.7185884,-4.0017078 c -1.7454984,2.3720609 -1.7354408,5.6174519 -6e-7,8.035443 z"
         style="fill:#000000;fill-opacity:1;fill-rule:evenodd;stroke:#000000;stroke-width:0.625;stroke-linejoin:round;stroke-opacity:1"
         id="path869" />
    </marker>
    <rect
       x="79.991798"
       y="109.97813"
       width="115.90728"
       height="35.345711"
       id="rect837" />
    <rect
       x="79.991798"
       y="109.97813"
       width="115.90728"
       height="35.345711"
       id="rect837-3" />
    <rect
       x="79.991798"
       y="109.97813"
       width="115.90728"
       height="35.345711"
       id="rect1173" />
    <marker
       style="overflow:visible"
       id="Arrow2Lend-1"
       refX="0"
       refY="0"
       orient="auto"
       inkscape:stockid="Arrow2Lend"
       inkscape:isstock="true">
      <path
         transform="matrix(-1.1,0,0,-1.1,-1.1,0)"
         d="M 8.7185878,4.0337352 -2.2072895,0.01601326 8.7185884,-4.0017078 c -1.7454984,2.3720609 -1.7354408,5.6174519 -6e-7,8.035443 z"
         style="fill:#000000;fill-opacity:1;fill-rule:evenodd;stroke:#000000;stroke-width:0.625;stroke-linejoin:round;stroke-opacity:1"
         id="path869-0" />
    </marker>
    <rect
       x="6.2263641"
       y="93.960182"
       width="36.284054"
       height="19.744013"
       id="rect1408-6" />
    <rect
       x="6.2263641"
       y="93.960182"
       width="36.284054"
       height="19.744013"
       id="rect1421" />
    <rect
       x="6.2263641"
       y="93.960182"
       width="26.853704"
       height="30.047422"
       id="rect1408-6-2" />
    <rect
       x="6.2263641"
       y="93.960182"
       width="36.284054"
       height="19.744013"
       id="rect1453" />
    <rect
       x="6.2263641"
       y="93.960182"
       width="26.853704"
       height="30.047422"
       id="rect1408-6-2-9" />
    <rect
       x="6.2263641"
       y="93.960182"
       width="26.853704"
       height="30.047422"
       id="rect1502" />
    <rect
       x="6.2263641"
       y="93.960182"
       width="34.170601"
       height="28.50806"
       id="rect1408-6-2-1" />
    <rect
       x="6.2263641"
       y="93.960182"
       width="26.853704"
       height="30.047422"
       id="rect1502-3" />
    <rect
       x="6.2263641"
       y="93.960182"
       width="36.284054"
       height="19.744013"
       id="rect1408-6-4" />
    <rect
       x="6.2263641"
       y="93.960182"
       width="36.284054"
       height="19.744013"
       id="rect1565" />
    <rect
       x="6.2263641"
       y="93.960182"
       width="36.284054"
       height="19.744013"
       id="rect1408-6-4-9" />
    <rect
       x="6.2263641"
       y="93.960182"
       width="36.284054"
       height="19.744013"
       id="rect1598" />
    <rect
       x="6.2263641"
       y="93.960182"
       width="36.284054"
       height="19.744013"
       id="rect1408-6-4-9-6" />
    <rect
       x="6.2263641"
       y="93.960182"
       width="36.284054"
       height="19.744013"
       id="rect1630" />
    <rect
       x="6.2263641"
       y="93.960182"
       width="36.284054"
       height="19.744013"
       id="rect1408-6-4-9-6-3" />
    <rect
       x="6.2263641"
       y="93.960182"
       width="36.284054"
       height="19.744013"
       id="rect1662" />
    <rect
       x="6.2263641"
       y="93.960182"
       width="36.284054"
       height="19.744013"
       id="rect1408-6-4-9-6-3-5" />
    <rect
       x="6.2263641"
       y="93.960182"
       width="36.284054"
       height="19.744013"
       id="rect1695" />
    <filter
       inkscape:collect="always"
       style="color-interpolation-filters:sRGB"
       id="filter5349"
       x="-0.042451922"
       width="1.0849038"
       y="-0.042451922"
       height="1.0849038">
      <feGaussianBlur
         inkscape:collect="always"
         stdDeviation="0.089139603"
         id="feGaussianBlur5351" />
    </filter>
    <filter
       inkscape:collect="always"
       style="color-interpolation-filters:sRGB"
       id="filter5353"
       x="-0.042451922"
       width="1.0849038"
       y="-0.042451922"
       height="1.0849038">
      <feGaussianBlur
         inkscape:collect="always"
         stdDeviation="0.089139603"
         id="feGaussianBlur5355" />
    </filter>
    <filter
       inkscape:collect="always"
       style="color-interpolation-filters:sRGB"
       id="filter5357"
       x="-0.042451922"
       width="1.0849038"
       y="-0.042451922"
       height="1.0849038">
      <feGaussianBlur
         inkscape:collect="always"
         stdDeviation="0.089139603"
         id="feGaussianBlur5359" />
    </filter>
    <filter
       inkscape:collect="always"
       style="color-interpolation-filters:sRGB"
       id="filter5361"
       x="-0.042451922"
       width="1.0849038"
       y="-0.042451922"
       height="1.0849038">
      <feGaussianBlur
         inkscape:collect="always"
         stdDeviation="0.089139603"
         id="feGaussianBlur5363" />
    </filter>
    <filter
       inkscape:collect="always"
       style="color-interpolation-filters:sRGB"
       id="filter5365"
       x="-0.042451922"
       width="1.0849038"
       y="-0.042451922"
       height="1.0849038">
      <feGaussianBlur
         inkscape:collect="always"
         stdDeviation="0.089139603"
         id="feGaussianBlur5367" />
    </filter>
    <filter
       inkscape:collect="always"
       style="color-interpolation-filters:sRGB"
       id="filter5369"
       x="-0.042451922"
       width="1.0849038"
       y="-0.042451922"
       height="1.0849038">
      <feGaussianBlur
         inkscape:collect="always"
         stdDeviation="0.089139603"
         id="feGaussianBlur5371" />
    </filter>
    <filter
       inkscape:collect="always"
       style="color-interpolation-filters:sRGB"
       id="filter5373"
       x="-0.042451922"
       width="1.0849038"
       y="-0.042451922"
       height="1.0849038">
      <feGaussianBlur
         inkscape:collect="always"
         stdDeviation="0.089139603"
         id="feGaussianBlur5375" />
    </filter>
    <filter
       inkscape:collect="always"
       style="color-interpolation-filters:sRGB"
       id="filter5377"
       x="-0.042451922"
       width="1.0849038"
       y="-0.042451922"
       height="1.0849038">
      <feGaussianBlur
         inkscape:collect="always"
         stdDeviation="0.089139603"
         id="feGaussianBlur5379" />
    </filter>
    <filter
       inkscape:collect="always"
       style="color-interpolation-filters:sRGB"
       id="filter5381"
       x="-0.042451922"
       width="1.0849038"
       y="-0.042451922"
       height="1.0849038">
      <feGaussianBlur
         inkscape:collect="always"
         stdDeviation="0.089139603"
         id="feGaussianBlur5383" />
    </filter>
    <filter
       inkscape:collect="always"
       style="color-interpolation-filters:sRGB"
       id="filter5385"
       x="-0.042451922"
       width="1.0849038"
       y="-0.042451922"
       height="1.0849038">
      <feGaussianBlur
         inkscape:collect="always"
         stdDeviation="0.089139603"
         id="feGaussianBlur5387" />
    </filter>
  </defs>
  <sodipodi:namedview
     id="base"
     pagecolor="#ffffff"
     bordercolor="#666666"
     borderopacity="1.0"
     inkscape:pageopacity="0.0"
     inkscape:pageshadow="2"
     inkscape:zoom="1.4"
     inkscape:cx="314.5695"
     inkscape:cy="176.60479"
     inkscape:document-units="mm"
     inkscape:current-layer="layer1"
     inkscape:document-rotation="0"
     showgrid="false"
     inkscape:window-width="627"
     inkscape:window-height="1042"
     inkscape:window-x="6"
     inkscape:window-y="30"
     inkscape:window-maximized="0"
     fit-margin-top="0"
     fit-margin-left="0"
     fit-margin-right="0"
     fit-margin-bottom="0" />
  <metadata
     id="metadata5">
    <rdf:RDF>
      <cc:Work
         rdf:about="">
        <dc:format>image/svg+xml</dc:format>
        <dc:type
           rdf:resource="http://purl.org/dc/dcmitype/StillImage" />
        <dc:title></dc:title>
      </cc:Work>
    </rdf:RDF>
  </metadata>
  <g
     inkscape:label="Layer 1"
     inkscape:groupmode="layer"
     id="layer1"
     transform="translate(-8.2157222,-84.376571)">
    <path
       style="fill:none;stroke:#000000;stroke-width:0.565;stroke-linecap:butt;stroke-linejoin:miter;stroke-miterlimit:4;stroke-dasharray:1.13, 0.565;stroke-dashoffset:0;stroke-opacity:1;marker-end:url(#marker2076)"
       d="M 191.98839,117.23716 H 204.092 V 88.006271 L 32.04187,88.253778"
       id="path2066"
       sodipodi:nodetypes="cccc" />
    <text
       xml:space="preserve"
       id="text1406"
       style="font-size:10.5833px;line-height:1.25;font-family:sans-serif;letter-spacing:0px;white-space:pre;shape-inside:url(#rect1408);"
       transform="translate(6.2489264,4.6522713)"><tspan
         x="6.2265625"
         y="103.32468"><tspan
           style="font-style:normal;font-variant:normal;font-stretch:normal;font-size:4.23333px;font-family:'Fira Code';-inkscape-font-specification:'Fira Code,  weight=450';font-variant-ligatures:normal;font-variant-caps:normal;font-variant-numeric:normal;font-variant-east-asian:normal">commit</tspan></tspan></text>
    <text
       xml:space="preserve"
       id="text1406-6"
       style="font-style:normal;font-variant:normal;font-weight:normal;font-stretch:normal;font-size:4.23333px;line-height:1.25;font-family:'Fira Code';-inkscape-font-specification:'Fira Code, Normal';font-variant-ligatures:normal;font-variant-caps:normal;font-variant-numeric:normal;font-variant-east-asian:normal;letter-spacing:0px;white-space:pre;shape-inside:url(#rect1408-6);"
       transform="translate(43.407327,10.311847)"><tspan
         x="6.2265625"
         y="97.665101"><tspan
           style="font-style:normal;font-variant:normal;font-weight:normal;font-stretch:normal;font-size:4.23333px;font-family:'Fira Code';-inkscape-font-specification:'Fira Code, Normal';font-variant-ligatures:normal;font-variant-caps:normal;font-variant-numeric:normal;font-variant-east-asian:normal">build</tspan></tspan></text>
    <text
       xml:space="preserve"
       id="text1406-6-8"
       style="font-style:normal;font-variant:normal;font-weight:normal;font-stretch:normal;font-size:4.23333px;line-height:1.25;font-family:'Fira Code';-inkscape-font-specification:'Fira Code, Normal';font-variant-ligatures:normal;font-variant-caps:normal;font-variant-numeric:normal;font-variant-east-asian:normal;text-align:center;letter-spacing:0px;white-space:pre;shape-inside:url(#rect1408-6-2)"
       transform="translate(77.505171,7.6660154)"
       x="12.853009"
       y="0"><tspan
         x="6.6277213"
         y="97.665101"><tspan
           style="text-align:center;text-anchor:middle">formatting </tspan></tspan><tspan
         x="13.140521"
         y="102.95677"><tspan
           style="text-align:center;text-anchor:middle">tests</tspan></tspan></text>
    <text
       xml:space="preserve"
       id="text1406-6-8-0"
       style="font-style:normal;font-variant:normal;font-weight:normal;font-stretch:normal;font-size:4.23333px;line-height:1.25;font-family:'Fira Code';-inkscape-font-specification:'Fira Code, Normal';font-variant-ligatures:normal;font-variant-caps:normal;font-variant-numeric:normal;font-variant-east-asian:normal;text-align:center;letter-spacing:0px;white-space:pre;shape-inside:url(#rect1408-6-2-9)"
       transform="translate(119.01628,7.6660154)"
       x="6.1263752"
       y="0"><tspan
         x="14.443081"
         y="97.665101"><tspan
           style="text-align:center;text-anchor:middle">unit
</tspan></tspan><tspan
         x="13.140521"
         y="102.95677"><tspan
           style="text-align:center;text-anchor:middle">tests</tspan></tspan></text>
    <text
       xml:space="preserve"
       id="text1406-6-8-1"
       style="font-style:normal;font-variant:normal;font-weight:normal;font-stretch:normal;font-size:4.23333px;line-height:1.25;font-family:'Fira Code';-inkscape-font-specification:'Fira Code, Normal';font-variant-ligatures:normal;font-variant-caps:normal;font-variant-numeric:normal;font-variant-east-asian:normal;text-align:center;letter-spacing:0px;white-space:pre;shape-inside:url(#rect1408-6-2-1)"
       transform="translate(157.56606,7.217029)"
       x="13.939564"
       y="0"><tspan
         x="8.9833645"
         y="97.665101"><tspan
           style="text-align:center;text-anchor:middle">integration
</tspan></tspan><tspan
         x="16.798724"
         y="102.95677"><tspan
           style="text-align:center;text-anchor:middle">tests</tspan></tspan></text>
    <text
       xml:space="preserve"
       id="text1406-6-3"
       style="font-style:normal;font-variant:normal;font-weight:normal;font-stretch:normal;font-size:4.23333px;line-height:1.25;font-family:'Fira Code';-inkscape-font-specification:'Fira Code, Normal';font-variant-ligatures:normal;font-variant-caps:normal;font-variant-numeric:normal;font-variant-east-asian:normal;letter-spacing:0px;white-space:pre;shape-inside:url(#rect1408-6-4);"
       transform="translate(167.48298,61.417065)"><tspan
         x="6.2265625"
         y="97.665101"><tspan>review</tspan></tspan></text>
    <text
       xml:space="preserve"
       id="text1406-6-3-9"
       style="font-style:normal;font-variant:normal;font-weight:normal;font-stretch:normal;font-size:4.23333px;line-height:1.25;font-family:'Fira Code';-inkscape-font-specification:'Fira Code, Normal';font-variant-ligatures:normal;font-variant-caps:normal;font-variant-numeric:normal;font-variant-east-asian:normal;letter-spacing:0px;white-space:pre;shape-inside:url(#rect1408-6-4-9);"
       transform="translate(127.36761,60.981792)"><tspan
         x="6.2265625"
         y="97.665101"><tspan>staging</tspan></tspan></text>
    <text
       xml:space="preserve"
       id="text1406-6-3-9-3"
       style="font-style:normal;font-variant:normal;font-weight:normal;font-stretch:normal;font-size:4.23333px;line-height:1.25;font-family:'Fira Code';-inkscape-font-specification:'Fira Code, Normal';font-variant-ligatures:normal;font-variant-caps:normal;font-variant-numeric:normal;font-variant-east-asian:normal;text-align:center;letter-spacing:0px;white-space:pre;shape-inside:url(#rect1408-6-4-9-6)"
       transform="translate(76.925987,58.33596)"
       x="10.20773"
       y="0"><tspan
         x="17.855365"
         y="97.665101"><tspan
           style="text-align:center;text-anchor:middle">build
</tspan></tspan><tspan
         x="13.947685"
         y="102.95677"><tspan
           style="text-align:center;text-anchor:middle">AppImage</tspan></tspan></text>
    <text
       xml:space="preserve"
       id="text1406-6-3-9-3-0"
       style="font-style:normal;font-variant:normal;font-weight:normal;font-stretch:normal;font-size:4.23333px;line-height:1.25;font-family:'Fira Code';-inkscape-font-specification:'Fira Code, Normal';font-variant-ligatures:normal;font-variant-caps:normal;font-variant-numeric:normal;font-variant-east-asian:normal;text-align:center;letter-spacing:0px;white-space:pre;shape-inside:url(#rect1408-6-4-9-6-3)"
       transform="translate(37.982914,58.335959)"
       x="6.2501187"
       y="0"><tspan
         x="17.855365"
         y="97.665101"><tspan
           style="text-align:center;text-anchor:middle">build
</tspan></tspan><tspan
         x="20.460484"
         y="102.95677"><tspan
           style="text-align:center;text-anchor:middle">App</tspan></tspan></text>
    <text
       xml:space="preserve"
       id="text1406-6-3-9-3-0-6"
       style="font-style:normal;font-variant:normal;font-weight:normal;font-stretch:normal;font-size:4.23333px;line-height:1.25;font-family:'Fira Code';-inkscape-font-specification:'Fira Code, Normal';font-variant-ligatures:normal;font-variant-caps:normal;font-variant-numeric:normal;font-variant-east-asian:normal;text-align:center;letter-spacing:0px;white-space:pre;shape-inside:url(#rect1408-6-4-9-6-3-5)"
       transform="translate(3.294873,58.771233)"
       x="6.1242046"
       y="0"><tspan
         x="17.855365"
         y="97.665101"><tspan
           style="text-align:center;text-anchor:middle">build
</tspan></tspan><tspan
         x="20.460484"
         y="102.95677"><tspan
           style="text-align:center;text-anchor:middle">exe</tspan></tspan></text>
    <path
       style="mix-blend-mode:normal;fill:none;fill-opacity:1;stroke:#454545;stroke-width:0.565;stroke-linecap:butt;stroke-linejoin:miter;stroke-miterlimit:4;stroke-dasharray:none;stroke-opacity:1;marker-end:url(#Arrow2Mend)"
       d="M 8.2157222,117.23716 H 191.98839 v 51.20538 H 10.443544"
       id="path1857" />
    <rect
       style="fill:#000000;fill-opacity:0;stroke:#1a7f91;stroke-width:1.4301;stroke-miterlimit:4;stroke-dasharray:none;stroke-opacity:1"
       id="rect1942"
       width="157.01848"
       height="35.966312"
       x="43.011806"
       y="92.946068"
       ry="4.5858765" />
    <rect
       style="fill:#000000;fill-opacity:0;stroke:#db3972;stroke-width:1.1434;stroke-miterlimit:4;stroke-dasharray:none;stroke-opacity:1"
       id="rect1942-2"
       width="99.701225"
       height="36.208977"
       x="16.238985"
       y="144.45747"
       ry="4.6168175" />
    <circle
       style="fill:#006e6e;fill-opacity:1;stroke:#b5b5b5;stroke-width:0.565;stroke-miterlimit:4;stroke-dasharray:none;stroke-opacity:1;filter:url(#filter5349)"
       id="path1404"
       cx="20.312561"
       cy="117.0929"
       r="2.5197334" />
    <circle
       style="fill:#006e6e;fill-opacity:1;stroke:#b5b5b5;stroke-width:0.565;stroke-miterlimit:4;stroke-dasharray:none;stroke-opacity:1;filter:url(#filter5353)"
       id="path1404-4"
       cx="56.146694"
       cy="117.0929"
       r="2.5197334" />
    <circle
       style="fill:#006e6e;fill-opacity:1;stroke:#b5b5b5;stroke-width:0.565;stroke-miterlimit:4;stroke-dasharray:none;stroke-opacity:1;filter:url(#filter5357)"
       id="path1404-4-5"
       cx="96.929916"
       cy="117.09289"
       r="2.5197334" />
    <circle
       style="fill:#006e6e;fill-opacity:1;stroke:#b5b5b5;stroke-width:0.565;stroke-miterlimit:4;stroke-dasharray:none;stroke-opacity:1;filter:url(#filter5361)"
       id="path1404-4-5-9"
       cx="138.62836"
       cy="117.0929"
       r="2.5197334" />
    <circle
       style="fill:#006e6e;fill-opacity:1;stroke:#b5b5b5;stroke-width:0.565;stroke-miterlimit:4;stroke-dasharray:none;stroke-opacity:1;filter:url(#filter5365)"
       id="path1404-4-5-1"
       cx="180.92317"
       cy="117.0929"
       r="2.5197334" />
    <circle
       style="fill:#006e6e;fill-opacity:1;stroke:#b5b5b5;stroke-width:0.565;stroke-miterlimit:4;stroke-dasharray:none;stroke-opacity:1;filter:url(#filter5369)"
       id="path1404-4-0"
       cx="181.71596"
       cy="168.45956"
       r="2.5197334" />
    <circle
       style="fill:#006e6e;fill-opacity:1;stroke:#b5b5b5;stroke-width:0.565;stroke-miterlimit:4;stroke-dasharray:none;stroke-opacity:1;filter:url(#filter5373)"
       id="path1404-4-0-1"
       cx="142.77289"
       cy="168.45956"
       r="2.5197334" />
    <circle
       style="fill:#006e6e;fill-opacity:1;stroke:#b5b5b5;stroke-width:0.565;stroke-miterlimit:4;stroke-dasharray:none;stroke-opacity:1;filter:url(#filter5377)"
       id="path1404-4-0-1-9"
       cx="101.17041"
       cy="168.45956"
       r="2.5197334" />
    <circle
       style="fill:#006e6e;fill-opacity:1;stroke:#b5b5b5;stroke-width:0.565;stroke-miterlimit:4;stroke-dasharray:none;stroke-opacity:1;filter:url(#filter5381)"
       id="path1404-4-0-1-9-8"
       cx="62.351078"
       cy="168.45956"
       r="2.5197334" />
    <circle
       style="fill:#006e6e;fill-opacity:1;stroke:#b5b5b5;stroke-width:0.565;stroke-miterlimit:4;stroke-dasharray:none;stroke-opacity:1;filter:url(#filter5385)"
       id="path1404-4-0-1-9-8-6"
       cx="27.663044"
       cy="168.45956"
       r="2.5197334" />
    <text
       xml:space="preserve"
       id="text2798"
       style="font-size:4.23333px;line-height:1.25;font-family:'Fira Code';-inkscape-font-specification:'Fira Code, Normal';letter-spacing:0px;white-space:pre;shape-inside:url(#rect2800);" />
    <text
       xml:space="preserve"
       id="text2810"
       style="font-size:4.23333px;line-height:1.25;font-family:'Fira Code';-inkscape-font-specification:'Fira Code, Normal';letter-spacing:0px;white-space:pre;shape-inside:url(#rect2812);" />
    <path
       style="fill:none;stroke:#00ff00;stroke-width:0.665;stroke-linecap:butt;stroke-linejoin:miter;stroke-miterlimit:4;stroke-dasharray:none;stroke-opacity:1"
       d="m 190.11261,123.09012 1.53064,1.94729 2.49843,-4.32741"
       id="path2816" />
    <path
       style="fill:none;stroke:#ff0000;stroke-width:0.665001;stroke-linecap:butt;stroke-linejoin:miter;stroke-miterlimit:4;stroke-dasharray:none;stroke-opacity:1"
       d="m 194.67085,119.65166 v 0 l 2.49843,-4.32741"
       id="path2816-7"
       sodipodi:nodetypes="ccc" />
    <path
       style="fill:none;stroke:#ff0000;stroke-width:0.665001;stroke-linecap:butt;stroke-linejoin:miter;stroke-miterlimit:4;stroke-dasharray:none;stroke-opacity:1"
       d="m 194.43148,115.25153 v 0 l 2.74603,4.17469"
       id="path2816-7-2"
       sodipodi:nodetypes="ccc"
       inkscape:transform-center-x="2.6139038"
       inkscape:transform-center-y="2.7350919" />
    <g
       id="g73"
       transform="matrix(0.03158281,0,0,0.03070203,12.23412,84.376571)">
      <path
         d="M 475.73437,44.789062 H 287.59375 c -15.64844,0 -28.33594,12.6875 -28.33594,28.335938 v 106.42187 c 0,15.64844 12.6875,28.33594 28.33594,28.33594 h 66.92578 l -10.81641,43.66016 c -1.41015,5.6875 5.13672,9.96875 9.78516,6.39844 l 65.16797,-50.0586 h 57.08203 c 15.64844,0 28.33594,-12.68359 28.33594,-28.33594 V 73.125 c -0.004,-15.648438 -12.6875,-28.335938 -28.33985,-28.335938 z m 0,0"
         fill="#88dbfd"
         id="path2" />
      <path
         d="m 352.06641,217.77344 -8.36329,33.76953 c -1.41015,5.6875 5.13672,9.96875 9.78516,6.39844 l 65.16797,-50.0586 h -53.71484 z m 0,0"
         fill="#5abfe9"
         id="path4" />
      <path
         d="m 475.73437,44.789062 h -53.71484 c 15.65234,0 28.33594,12.6875 28.33594,28.335938 v 106.42187 c 0,15.64844 -12.6836,28.33594 -28.33594,28.33594 h 53.71484 c 15.65235,0 28.33594,-12.68359 28.33594,-28.33594 V 73.125 c 0,-15.648438 -12.68359,-28.335938 -28.33594,-28.335938 z m 0,0"
         fill="#5abfe9"
         id="path6" />
      <path
         d="m 402.66797,380.44141 c -1.41016,-24.04688 -16.67578,-43.64063 -39.39453,-54.28125 -27.8086,-13.01954 -103.53906,-32.71875 -103.53906,-32.71875 -7.32032,-1.35938 -12.62891,-7.7461 -12.62891,-15.1875 v -43.28907 h -82.33203 v 43.28907 c 0,7.4414 -5.3086,13.82812 -12.625,15.1875 0,0 -75.730471,19.69921 -103.542971,32.71875 -22.71875,10.64062 -37.984375,30.23437 -39.394531,54.28125 L 7.503906,483.64844 C 7.363281,495.12109 16.628906,504.5 28.105469,504.5 H 383.77344 c 11.47656,0 20.74219,-9.37891 20.60547,-20.85156 z m 0,0"
         fill="#fcc18b"
         id="path8" />
      <path
         d="m 402.66797,380.44141 c -1.41016,-24.04688 -16.67578,-43.64063 -39.39453,-54.28125 -27.8086,-13.01954 -103.53906,-32.71875 -103.53906,-32.71875 -7.32032,-1.35938 -12.62891,-7.7461 -12.62891,-15.1875 v -43.28907 h -53.71484 v 69.25391 c 0,7.44141 5.30859,13.82812 12.625,15.18359 0,0 75.73437,19.70313 103.54296,32.72266 22.71875,10.63672 37.98438,30.23437 39.39454,54.27734 l 1.625,98.09766 h 33.19531 c 11.47656,0 20.74219,-9.37891 20.60547,-20.85156 z m 0,0"
         fill="#eaab65"
         id="path10" />
      <path
         d="m 120.58594,125.36719 h -10.8086 c -3.91406,0 -7.52343,1.32422 -10.398434,3.54687 -4.992187,3.85938 -7.183594,10.35156 -6.054687,16.5625 l 4.246093,23.3711 c 3.292968,17.32031 23.042968,9.40625 23.042968,9.40625 z m 0,0"
         fill="#eaab65"
         id="path12" />
      <path
         d="m 291.29297,125.36719 h 10.80859 c 3.91406,0 7.52344,1.32422 10.39844,3.54687 4.99219,3.85938 7.18359,10.35156 6.05469,16.5625 l -4.2461,23.3711 c -3.29297,17.32031 -23.04297,9.40625 -23.04297,9.40625 z m 0,0"
         fill="#fcc18b"
         id="path14" />
      <path
         d="m 265.84766,36.546875 c -14.05469,-12.996094 -33.8125,-24.335937 -59.90625,-24.652344 -26.09766,0.316407 -45.85547,11.65625 -59.91016,24.652344 -17.92578,16.574219 -27.63672,41.191406 -27.63672,66.593755 l 0.0234,88.57421 c 0,41.875 54.42578,85.23828 87.52344,85.23828 33.09375,0 87.52343,-43.36328 87.52343,-85.23828 l 0.0234,-88.57421 c -0.004,-25.402349 -9.71484,-50.019536 -27.64062,-66.593755 z m 0,0"
         fill="#fcc18b"
         id="path16" />
      <path
         d="m 265.84766,36.546875 c -14.05469,-12.996094 -33.8125,-24.335937 -59.90625,-24.652344 -9.84375,0.121094 -18.78516,1.808594 -26.85938,4.5625 13.33203,4.546875 24.29688,11.996094 33.05078,20.089844 17.92578,16.574219 27.63672,41.191406 27.63672,66.593755 l -0.0234,88.57421 c 0,31.6836 -31.16015,64.21875 -60.66406,78.17578 9.48828,4.48829 18.80469,7.0625 26.85547,7.0625 33.09766,0 87.52344,-43.36328 87.52344,-85.23828 l 0.0234,-88.57421 c 0,-25.402349 -9.71093,-50.019536 -27.63671,-66.593755 z m 0,0"
         fill="#eaab65"
         id="path18" />
      <path
         d="M 260.09766,7.5 H 151.78125 c -27.87109,0 -50.46094,22.59375 -50.46094,50.460938 v 69.632812 c 0,0 13.89453,-0.31641 22.82422,8.51953 1.85938,1.83984 5.01953,0.49609 5.01953,-2.12109 V 79.421875 c 0,-12.320313 9.98828,-22.304687 22.30469,-22.304687 h 20.26953 c 5.31641,0 10.46875,1.835937 14.58203,5.203124 l 1.98828,1.625 c 4.97266,4.066407 11.20313,6.289063 17.62891,6.289063 6.42969,0 12.65625,-2.222656 17.63281,-6.289063 l 1.98828,-1.625 c 4.11328,-3.367187 9.26563,-5.203124 14.58203,-5.203124 h 20.26563 c 12.32031,0 22.30859,9.984374 22.30859,22.304687 v 54.574215 c 0,2.61328 3.16016,3.96094 5.01953,2.1211 8.92579,-8.83985 22.82422,-8.52344 22.82422,-8.52344 V 57.964844 C 310.55859,30.09375 287.96484,7.5 260.09766,7.5 Z m 0,0"
         fill="#426175"
         id="path20" />
      <path
         d="m 260.09766,7.5 h -18.73438 c 9.42578,11.097656 15.33984,27.765625 15.48828,49.617188 h 3.5586 c 12.3164,0 22.30468,9.984374 22.30468,22.304687 v 54.574215 c 0,2.61328 3.16016,3.96094 5.01953,2.1211 8.92969,-8.83985 22.82422,-8.52344 22.82422,-8.52344 V 57.964844 C 310.55859,30.09375 287.96484,7.5 260.09766,7.5 Z m 0,0"
         fill="#2c4456"
         id="path22" />
      <path
         d="m 363.27344,326.16016 c -16.1836,-7.57422 -48.58985,-17.41407 -72.86328,-24.31641 l -5.25,1.99219 c -51.04297,19.33203 -107.39844,19.33203 -158.44141,0 l -5.25,-1.99219 c -24.273438,6.90234 -56.679688,16.74219 -72.863281,24.31641 -22.71875,10.64062 -37.984375,30.23437 -39.394531,54.28125 L 7.503906,483.64844 C 7.363281,495.12109 16.628906,504.5 28.105469,504.5 H 383.77344 c 11.47656,0 20.74219,-9.37891 20.60547,-20.85156 l -1.71094,-103.20703 c -1.41016,-24.04688 -16.67578,-43.64063 -39.39453,-54.28125 z m 0,0"
         fill="#33bca5"
         id="path24" />
      <path
         d="M 332.21094,478.63672 H 75.90625 c -7.792969,0 -14.265625,-6.02344 -14.820312,-13.80078 L 50.605469,317.76172 c -0.613281,-8.60156 6.199219,-15.91797 14.820312,-15.91797 H 342.69531 c 8.6211,0 15.4336,7.31641 14.82031,15.91797 l -10.48437,147.07422 c -0.55469,7.77734 -7.02344,13.80078 -14.82031,13.80078 z m 0,0"
         fill="#f2f2f2"
         id="path26" />
      <path
         d="m 342.69531,301.84375 h -54.10937 c 8.62109,0 15.43359,7.31641 14.82031,15.91797 l -11.46484,160.875 h 40.26953 c 7.79687,0 14.26953,-6.02344 14.82031,-13.80078 l 10.48438,-147.07422 c 0.61328,-8.60156 -6.19922,-15.91797 -14.82032,-15.91797 z m 0,0"
         fill="#cdd6df"
         id="path28" />
      <path
         d="M 350.59375,504.5 H 61.285156 c -7.140625,0 -12.929687,-5.78906 -12.929687,-12.92969 0,-7.14453 5.789062,-12.93359 12.929687,-12.93359 H 350.59375 c 7.14062,0 12.92969,5.78906 12.92969,12.93359 0,7.14063 -5.78907,12.92969 -12.92969,12.92969 z m 0,0"
         fill="#cdd6df"
         id="path30" />
      <path
         d="m 226.63281,396.17187 c 0,11.42969 -9.26562,20.69532 -20.69531,20.69532 -11.42969,0 -20.69531,-9.26563 -20.69531,-20.69532 0,-11.42968 9.26562,-20.69531 20.69531,-20.69531 11.42969,0 20.69531,9.26563 20.69531,20.69531 z m 0,0"
         fill="#ffffff"
         id="path32" />
      <path
         d="m 370.83594,117.04297 c 0,-3.79688 -3.52344,-6.76172 -6.30078,-6.76172 -0.64844,0 -1.29688,0.0937 -1.75782,0.46484 L 339.25,126.02734 c -2.12891,1.39063 -2.87109,3.61328 -2.87109,5.1875 0,1.57422 0.74218,3.79688 2.87109,5.1875 l 23.52734,15.28125 c 0.46094,0.3711 1.10938,0.46485 1.75782,0.46485 2.77734,0 6.30078,-2.96485 6.30078,-6.76172 0,-1.57422 -0.64844,-2.96485 -1.66797,-3.61328 l -16.30469,-10.5586 16.30469,-10.55859 c 1.01562,-0.64844 1.66797,-2.03906 1.66797,-3.61328 z m 0,0"
         id="path34" />
      <path
         d="m 417.42578,85.367188 c -1.66797,0 -3.15234,0.738281 -3.89062,2.316406 l -32.51172,66.777346 c -0.27735,0.55468 -0.46485,1.20312 -0.46485,1.76172 0,2.3125 2.03907,4.90625 5.19141,4.90625 1.75781,0 3.51953,-0.92579 4.16797,-2.3125 l 32.60156,-66.781254 c 0.27734,-0.554687 0.37109,-1.203125 0.37109,-1.761718 -0.004,-2.960938 -2.875,-4.90625 -5.46484,-4.90625 z m 0,0"
         id="path36" />
      <path
         d="m 464.19922,126.02734 -23.52344,-15.28125 c -0.46484,-0.37109 -1.11328,-0.46484 -1.76172,-0.46484 -2.77734,0 -6.29687,2.96484 -6.29687,6.76172 0,1.57422 0.64843,2.96484 1.66797,3.61328 l 16.30078,10.55859 -16.30078,10.5586 c -1.01954,0.64843 -1.66797,2.03906 -1.66797,3.61328 0,3.79687 3.51953,6.76172 6.29687,6.76172 0.64844,0 1.29688,-0.0937 1.76172,-0.46485 l 23.52344,-15.28125 c 2.13281,-1.39062 2.87109,-3.61328 2.87109,-5.1875 0,-1.57422 -0.73828,-3.79687 -2.87109,-5.1875 z m 0,0"
         id="path38" />
      <path
         d="M 475.73437,37.289062 H 314.25 C 305.90625,15.507812 284.77734,0 260.09375,0 H 151.78125 C 119.82422,0 93.820312,26.003906 93.820312,57.960938 v 65.816402 c -6.460937,5.56641 -9.464843,14.27344 -7.875,23.03907 l 4.257813,23.42968 c 1.53125,8.04688 5.804687,12.1836 9.117187,14.23438 3.707028,2.29297 7.820318,3.05078 11.597658,3.07031 v 4.16406 c 0,21.125 12.32422,44.40625 33.8125,63.87891 4.04687,3.66406 8.2539,7.04297 12.54297,10.09766 v 12.5625 c 0,3.82812 -2.73047,7.11328 -6.4961,7.8125 -0.17578,0.0312 -0.34765,0.0703 -0.51953,0.11328 -0.1289,0.0351 -13.0039,3.39062 -29.83593,8.16406 H 65.425781 c -6.183593,0 -12.148437,2.59766 -16.363281,7.12109 -4.214844,4.52344 -6.378906,10.66016 -5.9375,16.82813 l 0.148438,2.11719 C 18.675781,332.74609 3.199219,354.86328 1.722656,380 c -0.00391,0.10547 -0.00781,0.21094 -0.011718,0.31641 L 0.00390625,483.55469 C -0.0898438,491.125 2.792969,498.26172 8.109375,503.64844 13.433594,509.03516 20.53125,512 28.105469,512 H 383.77344 c 7.57031,0 14.67187,-2.96484 19.99219,-8.35156 5.32031,-5.38672 8.20312,-12.51953 8.10937,-20.125 l -1.70703,-103.20703 c -0.004,-0.10547 -0.008,-0.21094 -0.0156,-0.31641 -1.51562,-25.86328 -17.85156,-48.52734 -43.70312,-60.63281 -0.47266,-0.22266 -0.96875,-0.44922 -1.48047,-0.67969 l 0.0273,-0.39453 c 0.4375,-6.16797 -1.72656,-12.30078 -5.9375,-16.82813 -4.21484,-4.52343 -10.17968,-7.12109 -16.36328,-7.12109 h -51.23828 c -16.82812,-4.77344 -29.70703,-8.12891 -29.83594,-8.16016 -0.17187,-0.0469 -0.34375,-0.0859 -0.51953,-0.11718 -3.76562,-0.69922 -6.49609,-3.98438 -6.49609,-7.8125 v -12.5586 c 4.28906,-3.05859 8.49609,-6.4375 12.54297,-10.10156 13.65625,-12.375 23.61328,-26.28906 29.05468,-40.21094 h 48.73047 l -8.51172,34.35547 c -1.41796,5.73047 0.85547,11.51953 5.79297,14.75 2.32032,1.51953 4.92188,2.27344 7.51172,2.27344 2.92969,0 5.84375,-0.96094 8.32813,-2.8711 l 63.14843,-48.50781 h 54.53125 c 19.76172,0 35.83594,-16.07422 35.83594,-35.83594 V 73.125 c 0,-19.757812 -16.07422,-35.835938 -35.83594,-35.835938 z M 300.97656,136.73437 c 2.86719,-0.97656 5.58203,-1.3789 7.35156,-1.53906 2.35547,2.08985 3.46485,5.53125 2.84766,8.9375 l -4.23437,23.3125 c -0.61719,3.25391 -1.86719,4.02735 -2.27735,4.28125 -0.87109,0.53906 -2.15625,0.81641 -3.69531,0.83203 z M 108.82031,57.960938 C 108.82031,34.273438 128.09375,15 151.78125,15 h 108.31641 c 23.6875,0 42.96093,19.273438 42.96093,42.960938 v 62.839842 c -3.71093,0.65625 -8.33203,1.91406 -12.84375,4.32031 V 79.421875 c 0,-16.433594 -13.37109,-29.804687 -29.80468,-29.804687 h -20.26953 c -7.02735,0 -13.89063,2.449218 -19.33204,6.894531 l -1.98437,1.625 c -3.625,2.964843 -8.20313,4.597656 -12.88672,4.597656 -4.68359,0 -9.25781,-1.632813 -12.88281,-4.59375 l -1.98828,-1.628906 c -5.4375,-4.445313 -12.30469,-6.894531 -19.33203,-6.894531 h -20.26563 c -16.43359,0 -29.80469,13.367187 -29.80469,29.804687 v 45.695315 c -4.51172,-2.40235 -9.13281,-3.66406 -12.84375,-4.31641 z m -1.60547,113.765622 c -0.41015,-0.2539 -1.66015,-1.02734 -2.26562,-4.21875 l -4.24609,-23.37109 c -0.61719,-3.40625 0.49218,-6.84375 2.83984,-8.9375 1.76953,0.16015 4.48828,0.55469 7.35937,1.53125 l 0.008,35.82812 c -1.53516,-0.0156 -2.82032,-0.29297 -3.69532,-0.83203 z M 40.855469,491.56641 c 0,1.88281 0.257812,3.70312 0.734375,5.43359 H 28.105469 c -3.53125,0 -6.839844,-1.38281 -9.324219,-3.89453 C 16.300781,490.59375 14.960938,487.26563 15,483.76953 l 1.707031,-103.04297 c 1.109375,-18.00781 11.089844,-33.62109 27.742188,-43.83203 l 9.15625,128.47266 c 0.167969,2.35937 0.707031,4.61328 1.550781,6.71094 -8.28125,2.60937 -14.300781,10.35937 -14.300781,19.48828 z m 313.656251,-26.19922 9.30469,-130.54297 c 18.82031,10.09766 30.16796,26.625 31.35546,45.90234 l 1.70704,103.01172 c 0.0391,3.52735 -1.30469,6.85547 -3.78125,9.36719 C 390.61328,495.61719 387.30469,497 383.77344,497 h -13.48438 c 0.48047,-1.73047 0.73438,-3.55078 0.73438,-5.43359 0,-10.36329 -7.75391,-18.94532 -17.76563,-20.25391 0.67578,-1.87891 1.10938,-3.87109 1.25391,-5.94531 z m 1.51172,26.19922 c 0,2.99609 -2.4375,5.43359 -5.42969,5.43359 H 61.285156 c -2.992187,0 -5.429687,-2.4375 -5.429687,-5.43359 0,-2.99219 2.4375,-5.42969 5.429687,-5.42969 H 350.59375 c 2.99219,0 5.42969,2.4375 5.42969,5.42969 z M 348.08203,311.6875 c 1.40625,1.51172 2.10156,3.47656 1.95313,5.53906 l -10.48438,147.07813 c -0.27344,3.83203 -3.49609,6.83203 -7.33984,6.83203 H 75.90625 c -3.839844,0 -7.0625,-3 -7.339844,-6.83594 L 58.085938,317.22656 c -0.148438,-2.0625 0.546874,-4.02734 1.953124,-5.53906 1.410157,-1.51172 3.320313,-2.34375 5.386719,-2.34375 H 342.69531 c 2.0625,0 3.97656,0.83203 5.38672,2.34375 z M 246.19531,294.34375 h -80.51172 c 4.10157,-4.17188 6.58985,-9.88281 6.58985,-16.08984 v -3.35547 c 11.82422,6.12109 23.57422,9.55469 33.66406,9.55469 10.08984,0 21.83984,-3.4336 33.66797,-9.55469 v 3.35547 c 0,6.20703 2.48828,11.91796 6.58984,16.08984 z m 10.87891,-49.86719 c -16.7461,15.17188 -36.81641,24.97656 -51.13672,24.97656 -14.31641,0 -34.38672,-9.80468 -51.13281,-24.97656 -18.35938,-16.6289 -28.88672,-35.86328 -28.88672,-52.76562 l -0.0156,-47.25 c 0.0977,0 0.19532,0.004 0.29297,0.004 1.35547,0 2.72266,-0.26562 4.03125,-0.8125 3.91016,-1.63281 6.4375,-5.42578 6.4375,-9.66015 V 79.421875 c 0,-8.164063 6.64063,-14.804687 14.80469,-14.804687 h 20.26953 c 3.57422,0 7.06641,1.246093 9.83203,3.507812 l 1.99219,1.628906 c 6.29687,5.144532 14.24219,7.980469 22.375,7.980469 8.13281,0 16.08203,-2.835937 22.37891,-7.984375 l 1.98828,-1.625 c 2.76562,-2.261719 6.26172,-3.507812 9.83593,-3.507812 h 20.26563 c 8.16406,0 14.80859,6.640624 14.80859,14.804687 v 54.570315 c 0,4.23828 2.52344,8.02734 6.4375,9.66015 1.39844,0.58594 2.8711,0.84766 4.32032,0.8086 l -0.0117,47.2539 c 0.004,16.89844 -10.52735,36.13282 -28.88672,52.76172 z m 239.49609,-64.92969 c 0,11.48829 -9.34375,20.83594 -20.83594,20.83594 h -57.07812 c -1.65234,0 -3.25781,0.54688 -4.56641,1.55469 l -62.21093,47.78516 9.91796,-40.03516 c 0.55469,-2.23828 0.0508,-4.60938 -1.37109,-6.42578 -1.42187,-1.81641 -3.60156,-2.87891 -5.90625,-2.87891 h -54.22266 c 0.44141,-2.91797 0.66797,-5.8125 0.66797,-8.66797 v -4.16406 c 3.77344,-0.0195 7.88672,-0.77734 11.59375,-3.07031 3.31641,-2.05078 7.58985,-6.1875 9.12891,-14.29297 l 4.24609,-23.37109 c 1.59375,-8.76563 -1.41797,-17.47657 -7.875,-23.03907 V 57.960938 c 0,-1.910157 -0.0937,-3.804688 -0.27734,-5.671876 h 157.95312 c 11.49219,0 20.83594,9.347657 20.83594,20.835938 z m 0,0"
         id="path40" />
      <path
         d="m 205.9375,424.36719 c 15.54687,0 28.19531,-12.64844 28.19531,-28.19532 0,-15.54687 -12.64844,-28.19531 -28.19531,-28.19531 -15.54688,0 -28.19531,12.64844 -28.19531,28.19531 0,15.54688 12.64843,28.19532 28.19531,28.19532 z m 0,-41.39063 c 7.27734,0 13.19531,5.92188 13.19531,13.19531 0,7.27735 -5.91797,13.19532 -13.19531,13.19532 -7.27344,0 -13.19531,-5.91797 -13.19531,-13.19532 0,-7.27343 5.92187,-13.19531 13.19531,-13.19531 z m 0,0"
         id="path42" />
    </g>
    <text
       xml:space="preserve"
       id="text5389"
       style="font-size:4.23333px;line-height:1.25;font-family:'Fira Code';-inkscape-font-specification:'Fira Code, Normal';letter-spacing:0px;white-space:pre;shape-inside:url(#rect5391);fill:#1a7f91;fill-opacity:1;"
       transform="matrix(1.0000472,0,0,0.9999264,6.6177611,-1.5778152)"><tspan
         x="86.318359"
         y="134.86823"><tspan
           style="fill:#1a7f91;fill-opacity:1">Continuous integration</tspan></tspan></text>
    <text
       xml:space="preserve"
       id="text5395"
       style="font-size:4.23333px;line-height:1.25;font-family:'Fira Code';-inkscape-font-specification:'Fira Code, Normal';letter-spacing:0px;white-space:pre;shape-inside:url(#rect5397);fill:#db3972;fill-opacity:1;"
       transform="matrix(1.0000472,0,0,0.9999264,0.26746138,-5.2775429)"><tspan
         x="37.203125"
         y="190.87213"><tspan
           style="fill:#db3972;fill-opacity:1">Continuous deployement</tspan></tspan></text>
  </g>
</svg>
