<?xml version="1.0" encoding="UTF-8" standalone="no"?>
<svg
   xmlns:dc="http://purl.org/dc/elements/1.1/"
   xmlns:cc="http://creativecommons.org/ns#"
   xmlns:rdf="http://www.w3.org/1999/02/22-rdf-syntax-ns#"
   xmlns:svg="http://www.w3.org/2000/svg"
   xmlns="http://www.w3.org/2000/svg"
   xmlns:sodipodi="http://sodipodi.sourceforge.net/DTD/sodipodi-0.dtd"
   xmlns:inkscape="http://www.inkscape.org/namespaces/inkscape"
   width="188mm"
   height="114mm"
   viewBox="0 0 666.14167 403.93679"
   id="svg2"
   version="1.1"
   inkscape:version="1.0.1 (3bc2e813f5, 2020-09-07)"
   sodipodi:docname="protocol.svg">
  <defs
     id="defs4">
    <rect
       x="152.33291"
       y="476.17306"
       width="53.20618"
       height="68.525338"
       id="rect927" />
    <marker
       inkscape:isstock="true"
       style="overflow:visible"
       id="marker6743"
       refX="0"
       refY="0"
       orient="auto"
       inkscape:stockid="TriangleOutL">
      <path
         transform="scale(0.8,0.8)"
         style="fill:#000000;fill-opacity:1;fill-rule:evenodd;stroke:#000000;stroke-width:1pt;stroke-opacity:1"
         d="m 5.77,0 -8.65,5 0,-10 8.65,5 z"
         id="path6745"
         inkscape:connector-curvature="0" />
    </marker>
    <marker
       inkscape:stockid="TriangleOutL"
       orient="auto"
       refY="0"
       refX="0"
       id="TriangleOutL"
       style="overflow:visible"
       inkscape:isstock="true"
       inkscape:collect="always">
      <path
         id="path4284"
         d="m 5.77,0 -8.65,5 0,-10 8.65,5 z"
         style="fill:#000000;fill-opacity:1;fill-rule:evenodd;stroke:#000000;stroke-width:1pt;stroke-opacity:1"
         transform="scale(0.8,0.8)"
         inkscape:connector-curvature="0" />
    </marker>
    <marker
       inkscape:stockid="TriangleOutL"
       orient="auto"
       refY="0"
       refX="0"
       id="TriangleOutL-3"
       style="overflow:visible"
       inkscape:isstock="true">
      <path
         inkscape:connector-curvature="0"
         id="path4284-6"
         d="m 5.77,0 -8.65,5 0,-10 8.65,5 z"
         style="fill:#000000;fill-opacity:1;fill-rule:evenodd;stroke:#000000;stroke-width:1pt;stroke-opacity:1"
         transform="scale(0.8,0.8)" />
    </marker>
    <rect
       x="152.33292"
       y="476.17307"
       width="53.206181"
       height="68.525337"
       id="rect927-4" />
    <rect
       x="152.33292"
       y="476.17307"
       width="53.206181"
       height="68.525337"
       id="rect1024" />
    <rect
       x="152.33292"
       y="476.17307"
       width="53.206181"
       height="68.525337"
       id="rect927-4-3" />
    <rect
       x="152.33292"
       y="476.17307"
       width="53.206181"
       height="68.525337"
       id="rect1053" />
    <rect
       x="152.33292"
       y="476.17307"
       width="53.206181"
       height="68.525337"
       id="rect927-4-3-7" />
    <rect
       x="152.33292"
       y="476.17307"
       width="53.206181"
       height="68.525337"
       id="rect1083" />
  </defs>
  <sodipodi:namedview
     id="base"
     pagecolor="#898888"
     bordercolor="#666666"
     borderopacity="1.0"
     inkscape:pageopacity="0"
     inkscape:pageshadow="2"
     inkscape:zoom="0.98994949"
     inkscape:cx="429.21585"
     inkscape:cy="141.77786"
     inkscape:document-units="px"
     inkscape:current-layer="g4316"
     showgrid="false"
     inkscape:window-width="947"
     inkscape:window-height="1042"
     inkscape:window-x="965"
     inkscape:window-y="30"
     inkscape:window-maximized="1"
     inkscape:document-rotation="0"
     inkscape:snap-text-baseline="false" />
  <metadata
     id="metadata7">
    <rdf:RDF>
      <cc:Work
         rdf:about="">
        <dc:format>image/svg+xml</dc:format>
        <dc:type
           rdf:resource="http://purl.org/dc/dcmitype/StillImage" />
        <dc:title />
      </cc:Work>
    </rdf:RDF>
  </metadata>
  <g
     inkscape:label="Layer 1"
     inkscape:groupmode="layer"
     id="layer1"
     style="display:inline"
     transform="translate(0,-648.42565)">
    <g
       id="g4316">
      <path
         style="opacity:1;fill:#bec1fc;fill-opacity:1;stroke:none;stroke-width:1;stroke-miterlimit:4;stroke-dasharray:1, 12;stroke-dashoffset:0;stroke-opacity:1"
         d="m 224.99277,705.80212 136.5859,0 c 0.15428,0 0.27848,0.12421 0.27848,0.27848 l 0,319.5745 c 0,0.1542 -0.1242,0.2784 -0.27848,0.2784 l -136.5859,0 c -0.15427,0 -0.27848,-0.1242 -0.27848,-0.2784 l 0,-319.5745 c 0,-0.15427 0.12421,-0.27848 0.27848,-0.27848 z"
         id="rect6906"
         inkscape:connector-curvature="0" />
      <path
         style="opacity:1;fill:#bc2122;fill-opacity:1;stroke:none;stroke-width:1;stroke-miterlimit:4;stroke-dasharray:1, 12;stroke-dashoffset:0;stroke-opacity:1"
         d="m 224.12353,705.11957 137.32438,0 c 0.14758,0 0.26638,0.11881 0.26638,0.26639 l 0,156.82682 c 0,0.14758 -0.1188,0.26639 -0.26638,0.26639 l -137.32438,0 c -0.14757,0 -0.26638,-0.11881 -0.26638,-0.26639 l 0,-156.82682 c 0,-0.14758 0.11881,-0.26639 0.26638,-0.26639 z"
         id="rect6924"
         inkscape:connector-curvature="0" />
      <path
         style="opacity:1;fill:#bec1fc;fill-opacity:1;stroke:none;stroke-width:1;stroke-miterlimit:4;stroke-dasharray:1, 12;stroke-dashoffset:0;stroke-opacity:1"
         d="m 362.99277,705.80212 136.5859,0 c 0.15428,0 0.27848,0.12421 0.27848,0.27848 l 0,319.5745 c 0,0.1542 -0.1242,0.2784 -0.27848,0.2784 l -136.5859,0 c -0.15427,0 -0.27848,-0.1242 -0.27848,-0.2784 l 0,-319.5745 c 0,-0.15427 0.12421,-0.27848 0.27848,-0.27848 z"
         id="rect6904"
         inkscape:connector-curvature="0" />
      <path
         style="opacity:1;fill:#bec1fc;fill-opacity:1;stroke:none;stroke-width:1;stroke-miterlimit:4;stroke-dasharray:1, 12;stroke-dashoffset:0;stroke-opacity:1"
         d="m 500.99277,705.80212 136.5859,0 c 0.15428,0 0.27848,0.12421 0.27848,0.27848 l 0,319.5745 c 0,0.1542 -0.1242,0.2784 -0.27848,0.2784 l -136.5859,0 c -0.15427,0 -0.27848,-0.1242 -0.27848,-0.2784 l 0,-319.5745 c 0,-0.15427 0.12421,-0.27848 0.27848,-0.27848 z"
         id="rect6908"
         inkscape:connector-curvature="0" />
      <path
         style="display:inline;opacity:1;fill:#bc2122;fill-opacity:1;stroke:none;stroke-width:1;stroke-miterlimit:4;stroke-dasharray:1, 12;stroke-dashoffset:0;stroke-opacity:1"
         d="m 501.63439,862.25378 137.3026,0 c 0.15361,0 0.27727,0.12367 0.27727,0.27727 l 0,163.23365 c 0,0.1536 -0.12366,0.2773 -0.27727,0.2773 l -137.3026,0 c -0.15361,0 -0.27727,-0.1237 -0.27727,-0.2773 l 0,-163.23365 c 0,-0.1536 0.12366,-0.27727 0.27727,-0.27727 z"
         id="rect6924-9"
         inkscape:connector-curvature="0" />
      <path
         style="opacity:1;fill:#bec1fc;fill-opacity:1;stroke:none;stroke-width:1;stroke-miterlimit:4;stroke-dasharray:1, 12;stroke-dashoffset:0;stroke-opacity:1"
         d="m 86.992766,705.80212 136.585894,0 c 0.15428,0 0.27848,0.12421 0.27848,0.27848 l 0,319.5745 c 0,0.1542 -0.1242,0.2784 -0.27848,0.2784 l -136.585894,0 c -0.154277,0 -0.278479,-0.1242 -0.278479,-0.2784 l 0,-319.5745 c 0,-0.15427 0.124202,-0.27848 0.278479,-0.27848 z"
         id="rect6902"
         inkscape:connector-curvature="0" />
      <path
         inkscape:connector-curvature="0"
         id="path4136"
         d="m 86.791898,1027.1495 566.695582,0"
         style="fill:#000000;fill-opacity:1;fill-rule:evenodd;stroke:#000000;stroke-width:2;stroke-linecap:butt;stroke-linejoin:miter;stroke-miterlimit:4;stroke-dasharray:none;stroke-opacity:1;marker-end:url(#TriangleOutL)" />
      <path
         inkscape:connector-curvature="0"
         id="path6735"
         d="m 86.975218,1027.3621 0,-324.99996"
         style="fill:#000000;fill-opacity:1;fill-rule:evenodd;stroke:#000000;stroke-width:2;stroke-linecap:butt;stroke-linejoin:miter;stroke-miterlimit:4;stroke-dasharray:none;stroke-opacity:1;marker-end:url(#marker6743)" />
      <g
         transform="translate(5.2857135,665.71609)"
         style="font-style:normal;font-weight:normal;font-size:40px;line-height:125%;font-family:sans-serif;letter-spacing:0px;word-spacing:0px;fill:#000000;fill-opacity:1;stroke:none;stroke-width:1px;stroke-linecap:butt;stroke-linejoin:miter;stroke-opacity:1"
         id="flowRoot6787">
        <path
           d="m 569.95239,370.28445 10.02136,0 0,1.34888 -4.20532,0 0,10.49744 -1.61072,0 0,-10.49744 -4.20532,0 0,-1.34888 z"
           style="font-size:16.25px;fill:#000000;fill-opacity:1;stroke:none;stroke-opacity:1"
           id="path7478"
           inkscape:connector-curvature="0" />
        <path
           d="m 580.95764,373.24405 1.45996,0 0,8.88672 -1.45996,0 0,-8.88672 z m 0,-3.45947 1.45996,0 0,1.84875 -1.45996,0 0,-1.84875 z"
           style="font-size:16.25px;fill:#000000;fill-opacity:1;stroke:none;stroke-opacity:1"
           id="path7480"
           inkscape:connector-curvature="0" />
        <path
           d="m 592.38342,374.94998 q 0.54749,-0.98389 1.30921,-1.45202 0.76172,-0.46814 1.79321,-0.46814 1.38855,0 2.14233,0.97595 0.75379,0.96802 0.75379,2.76123 l 0,5.36377 -1.4679,0 0,-5.31616 q 0,-1.27747 -0.45227,-1.89637 -0.45227,-0.61889 -1.38061,-0.61889 -1.13465,0 -1.79322,0.75378 -0.65857,0.75379 -0.65857,2.05505 l 0,5.02259 -1.46789,0 0,-5.31616 q 0,-1.2854 -0.45227,-1.89637 -0.45227,-0.61889 -1.39649,-0.61889 -1.11877,0 -1.77734,0.76172 -0.65857,0.75378 -0.65857,2.04711 l 0,5.02259 -1.46789,0 0,-8.88672 1.46789,0 0,1.38061 q 0.49988,-0.81726 1.19812,-1.20605 0.69824,-0.38879 1.65833,-0.38879 0.96801,0 1.64245,0.49194 0.68238,0.49194 1.00769,1.42822 z"
           style="font-size:16.25px;fill:#000000;fill-opacity:1;stroke:none;stroke-opacity:1"
           id="path7482"
           inkscape:connector-curvature="0" />
        <path
           d="m 608.9032,377.32242 0,0.71411 -6.71265,0 q 0.0952,1.50757 0.90454,2.30102 0.81726,0.78553 2.26929,0.78553 0.84106,0 1.62659,-0.2063 0.79345,-0.2063 1.57104,-0.6189 l 0,1.38062 q -0.78552,0.33325 -1.61072,0.50781 -0.82519,0.17456 -1.67419,0.17456 -2.12647,0 -3.37219,-1.23779 -1.2378,-1.2378 -1.2378,-3.34839 0,-2.18201 1.17432,-3.45947 1.18225,-1.2854 3.18176,-1.2854 1.79322,0 2.83264,1.15844 1.04737,1.15052 1.04737,3.13416 z m -1.45996,-0.42847 q -0.0159,-1.19812 -0.67444,-1.91223 -0.65064,-0.71411 -1.72974,-0.71411 -1.22192,0 -1.95984,0.69031 -0.72998,0.6903 -0.84106,1.94397 l 5.20508,-0.008 z"
           style="font-size:16.25px;fill:#000000;fill-opacity:1;stroke:none;stroke-opacity:1"
           id="path7484"
           inkscape:connector-curvature="0" />
        <path
           d="m 619.97986,369.80045 q -1.06323,1.82495 -1.57898,3.61022 -0.51575,1.78528 -0.51575,3.61817 0,1.83288 0.51575,3.63403 0.52368,1.79322 1.57898,3.61023 l -1.26953,0 q -1.19019,-1.86462 -1.78528,-3.66577 -0.58716,-1.80115 -0.58716,-3.57849 0,-1.76941 0.58716,-3.56262 0.58716,-1.79322 1.78528,-3.66577 l 1.26953,0 z"
           style="font-size:16.25px;fill:#000000;fill-opacity:1;stroke:none;stroke-opacity:1"
           id="path7486"
           inkscape:connector-curvature="0" />
        <path
           d="m 629.73938,374.94998 q 0.54749,-0.98389 1.3092,-1.45202 0.76172,-0.46814 1.79322,-0.46814 1.38855,0 2.14233,0.97595 0.75379,0.96802 0.75379,2.76123 l 0,5.36377 -1.4679,0 0,-5.31616 q 0,-1.27747 -0.45227,-1.89637 -0.45227,-0.61889 -1.38062,-0.61889 -1.13464,0 -1.79321,0.75378 -0.65857,0.75379 -0.65857,2.05505 l 0,5.02259 -1.46789,0 0,-5.31616 q 0,-1.2854 -0.45227,-1.89637 -0.45227,-0.61889 -1.39649,-0.61889 -1.11877,0 -1.77734,0.76172 -0.65857,0.75378 -0.65857,2.04711 l 0,5.02259 -1.4679,0 0,-8.88672 1.4679,0 0,1.38061 q 0.49988,-0.81726 1.19812,-1.20605 0.69824,-0.38879 1.65832,-0.38879 0.96802,0 1.64246,0.49194 0.68237,0.49194 1.00769,1.42822 z"
           style="font-size:16.25px;fill:#000000;fill-opacity:1;stroke:none;stroke-opacity:1"
           id="path7488"
           inkscape:connector-curvature="0" />
        <path
           d="m 638.65784,373.24405 1.45996,0 0,8.88672 -1.45996,0 0,-8.88672 z m 0,-3.45947 1.45996,0 0,1.84875 -1.45996,0 0,-1.84875 z"
           style="font-size:16.25px;fill:#000000;fill-opacity:1;stroke:none;stroke-opacity:1"
           id="path7490"
           inkscape:connector-curvature="0" />
        <path
           d="m 650.55176,376.767 0,5.36377 -1.45996,0 0,-5.31616 q 0,-1.2616 -0.49195,-1.88843 -0.49194,-0.62683 -1.47583,-0.62683 -1.18225,0 -1.86462,0.75378 -0.68237,0.75379 -0.68237,2.05505 l 0,5.02259 -1.4679,0 0,-8.88672 1.4679,0 0,1.38061 q 0.52368,-0.80139 1.22985,-1.19812 0.71412,-0.39672 1.64246,-0.39672 1.53137,0 2.3169,0.95214 0.78552,0.94422 0.78552,2.78504 z"
           style="font-size:16.25px;fill:#000000;fill-opacity:1;stroke:none;stroke-opacity:1"
           id="path7492"
           inkscape:connector-curvature="0" />
        <path
           d="m 653.24951,369.80045 1.26953,0 q 1.19019,1.87255 1.77735,3.66577 0.59509,1.79321 0.59509,3.56262 0,1.77734 -0.59509,3.57849 -0.58716,1.80115 -1.77735,3.66577 l -1.26953,0 q 1.0553,-1.81701 1.57105,-3.61023 0.52368,-1.80115 0.52368,-3.63403 0,-1.83289 -0.52368,-3.61817 -0.51575,-1.78527 -1.57105,-3.61022 z"
           style="font-size:16.25px;fill:#000000;fill-opacity:1;stroke:none;stroke-opacity:1"
           id="path7494"
           inkscape:connector-curvature="0" />
      </g>
      <path
         inkscape:connector-curvature="0"
         id="path6804"
         d="m 86.108679,862.05458 545.114001,0"
         style="fill:none;fill-rule:evenodd;stroke:#000000;stroke-width:2.15009189;stroke-linecap:butt;stroke-linejoin:miter;stroke-miterlimit:4;stroke-dasharray:2.15009168, 4.30018339;stroke-dashoffset:0;stroke-opacity:1" />
      <g
         transform="translate(-553.42193,403.19044)"
         style="font-style:normal;font-weight:normal;font-size:40px;line-height:125%;font-family:sans-serif;letter-spacing:0px;word-spacing:0px;fill:#000000;fill-opacity:1;stroke:none;stroke-width:1px;stroke-linecap:butt;stroke-linejoin:miter;stroke-opacity:1"
         id="flowRoot6787-5">
        <path
           d="m 571.59485,370.28445 1.60278,0 0,10.49744 5.76843,0 0,1.34888 -7.37121,0 0,-11.84632 z"
           style="font-size:16.25px;fill:#000000"
           id="path7497"
           inkscape:connector-curvature="0" />
        <path
           d="m 587.89246,377.32242 0,0.71411 -6.71265,0 q 0.0952,1.50757 0.90454,2.30102 0.81726,0.78553 2.26929,0.78553 0.84106,0 1.62658,-0.2063 0.79346,-0.2063 1.57105,-0.6189 l 0,1.38062 q -0.78552,0.33325 -1.61072,0.50781 -0.82519,0.17456 -1.67419,0.17456 -2.12647,0 -3.37219,-1.23779 -1.2378,-1.2378 -1.2378,-3.34839 0,-2.18201 1.17432,-3.45947 1.18225,-1.2854 3.18176,-1.2854 1.79321,0 2.83264,1.15844 1.04737,1.15052 1.04737,3.13416 z m -1.45996,-0.42847 q -0.0159,-1.19812 -0.67444,-1.91223 -0.65064,-0.71411 -1.72974,-0.71411 -1.22192,0 -1.95984,0.69031 -0.72998,0.6903 -0.84106,1.94397 l 5.20508,-0.008 z"
           style="font-size:16.25px;fill:#000000"
           id="path7499"
           inkscape:connector-curvature="0" />
        <path
           d="m 594.7876,369.78458 0,1.21399 -1.39649,0 q -0.78552,0 -1.09497,0.31738 -0.30151,0.31738 -0.30151,1.14258 l 0,0.78552 2.40417,0 0,1.13464 -2.40417,0 0,7.75208 -1.4679,0 0,-7.75208 -1.39648,0 0,-1.13464 1.39648,0 0,-0.6189 q 0,-1.48376 0.69031,-2.1582 0.69031,-0.68237 2.18994,-0.68237 l 1.38062,0 z"
           style="font-size:16.25px;fill:#000000"
           id="path7501"
           inkscape:connector-curvature="0" />
        <path
           d="m 597.16003,370.72086 0,2.52319 3.00721,0 0,1.13464 -3.00721,0 0,4.82422 q 0,1.08704 0.29358,1.39649 0.30152,0.30944 1.21399,0.30944 l 1.49964,0 0,1.22193 -1.49964,0 q -1.69006,0 -2.33276,-0.62683 -0.6427,-0.63477 -0.6427,-2.30103 l 0,-4.82422 -1.07117,0 0,-1.13464 1.07117,0 0,-2.52319 1.46789,0 z"
           style="font-size:16.25px;fill:#000000"
           id="path7503"
           inkscape:connector-curvature="0" />
        <path
           d="m 612.93396,373.50589 0,1.38061 q -0.6189,-0.31738 -1.2854,-0.47607 -0.6665,-0.15869 -1.38062,-0.15869 -1.08703,0 -1.63452,0.33325 -0.53955,0.33325 -0.53955,0.99976 0,0.50781 0.3888,0.80139 0.38879,0.28564 1.56311,0.54748 l 0.49987,0.11109 q 1.55518,0.33325 2.20581,0.94421 0.65857,0.60303 0.65857,1.69007 0,1.23779 -0.98388,1.95983 -0.97595,0.72205 -2.68982,0.72205 -0.71411,0 -1.4917,-0.14282 -0.76965,-0.13489 -1.62659,-0.4126 l 0,-1.50757 q 0.80933,0.42053 1.59485,0.63477 0.78552,0.2063 1.55518,0.2063 1.03149,0 1.58691,-0.34912 0.55542,-0.35706 0.55542,-0.99976 0,-0.59509 -0.40466,-0.91248 -0.39673,-0.31738 -1.75354,-0.61096 l -0.50782,-0.11902 q -1.35681,-0.28564 -1.95983,-0.8728 -0.60303,-0.59509 -0.60303,-1.62659 0,-1.25366 0.88867,-1.93603 0.88867,-0.68237 2.52319,-0.68237 0.80933,0 1.52344,0.11901 0.71411,0.11902 1.31714,0.35706 z"
           style="font-size:16.25px;fill:#000000"
           id="path7505"
           inkscape:connector-curvature="0" />
        <path
           d="m 615.7428,373.24405 1.45996,0 0,8.88672 -1.45996,0 0,-8.88672 z m 0,-3.45947 1.45996,0 0,1.84875 -1.45996,0 0,-1.84875 z"
           style="font-size:16.25px;fill:#000000"
           id="path7507"
           inkscape:connector-curvature="0" />
        <path
           d="m 626.09741,374.59293 0,-4.80835 1.45996,0 0,12.34619 -1.45996,0 0,-1.33301 q -0.4602,0.79346 -1.16638,1.18225 -0.69824,0.38086 -1.68213,0.38086 -1.61072,0 -2.62634,-1.2854 -1.00769,-1.2854 -1.00769,-3.38013 0,-2.09472 1.00769,-3.38012 1.01562,-1.2854 2.62634,-1.2854 0.98389,0 1.68213,0.38879 0.70618,0.38086 1.16638,1.17432 z m -4.97497,3.10241 q 0,1.61072 0.65857,2.53113 0.6665,0.91248 1.82495,0.91248 1.15844,0 1.82495,-0.91248 0.6665,-0.92041 0.6665,-2.53113 0,-1.61071 -0.6665,-2.52319 -0.66651,-0.92041 -1.82495,-0.92041 -1.15845,0 -1.82495,0.92041 -0.65857,0.91248 -0.65857,2.52319 z"
           style="font-size:16.25px;fill:#000000"
           id="path7509"
           inkscape:connector-curvature="0" />
        <path
           d="m 638.16589,377.32242 0,0.71411 -6.71264,0 q 0.0952,1.50757 0.90454,2.30102 0.81726,0.78553 2.26929,0.78553 0.84106,0 1.62658,-0.2063 0.79346,-0.2063 1.57105,-0.6189 l 0,1.38062 q -0.78553,0.33325 -1.61072,0.50781 -0.8252,0.17456 -1.6742,0.17456 -2.12646,0 -3.37219,-1.23779 -1.23779,-1.2378 -1.23779,-3.34839 0,-2.18201 1.17432,-3.45947 1.18225,-1.2854 3.18176,-1.2854 1.79321,0 2.83264,1.15844 1.04736,1.15052 1.04736,3.13416 z m -1.45996,-0.42847 q -0.0159,-1.19812 -0.67444,-1.91223 -0.65063,-0.71411 -1.72973,-0.71411 -1.22193,0 -1.95984,0.69031 -0.72998,0.6903 -0.84107,1.94397 l 5.20508,-0.008 z"
           style="font-size:16.25px;fill:#000000"
           id="path7511"
           inkscape:connector-curvature="0" />
      </g>
      <g
         transform="translate(-567.42193,557.19044)"
         style="font-style:normal;font-weight:normal;font-size:40px;line-height:125%;font-family:sans-serif;letter-spacing:0px;word-spacing:0px;fill:#000000;fill-opacity:1;stroke:none;stroke-width:1px;stroke-linecap:butt;stroke-linejoin:miter;stroke-opacity:1"
         id="flowRoot6886">
        <path
           d="m 577.21252,376.57657 q 0.51575,0.17456 0.99976,0.74585 0.49194,0.57129 0.98389,1.57104 l 1.62658,3.23731 -1.7218,0 -1.5155,-3.03894 q -0.58716,-1.19019 -1.14258,-1.57898 -0.54748,-0.3888 -1.49963,-0.3888 l -1.74561,0 0,5.00672 -1.60278,0 0,-11.84632 3.61816,0 q 2.03125,0 3.03101,0.849 0.99975,0.849 0.99975,2.56287 0,1.11877 -0.52368,1.85669 -0.51574,0.73791 -1.50757,1.02356 z m -4.01489,-4.97498 0,4.20533 2.01538,0 q 1.15845,0 1.74561,-0.53162 0.59509,-0.53955 0.59509,-1.57898 0,-1.03943 -0.59509,-1.56311 -0.58716,-0.53162 -1.74561,-0.53162 l -2.01538,0 z"
           style="font-size:16.25px;fill:#000000"
           id="path7514"
           inkscape:connector-curvature="0" />
        <path
           d="m 582.8302,373.24405 1.45996,0 0,8.88672 -1.45996,0 0,-8.88672 z m 0,-3.45947 1.45996,0 0,1.84875 -1.45996,0 0,-1.84875 z"
           style="font-size:16.25px;fill:#000000"
           id="path7516"
           inkscape:connector-curvature="0" />
        <path
           d="m 593.18481,377.58426 q 0,-1.58692 -0.65856,-2.45972 -0.65064,-0.8728 -1.83289,-0.8728 -1.17432,0 -1.83289,0.8728 -0.65063,0.8728 -0.65063,2.45972 0,1.57898 0.65063,2.45178 0.65857,0.8728 1.83289,0.8728 1.18225,0 1.83289,-0.8728 0.65856,-0.8728 0.65856,-2.45178 z m 1.45997,3.4436 q 0,2.26929 -1.0077,3.37219 -1.00769,1.11084 -3.08654,1.11084 -0.76966,0 -1.45203,-0.11901 -0.68237,-0.11109 -1.32507,-0.34913 l 0,-1.42028 q 0.6427,0.34912 1.26953,0.51574 0.62683,0.16663 1.27746,0.16663 1.43616,0 2.15027,-0.75378 0.71411,-0.74585 0.71411,-2.26136 l 0,-0.72204 q -0.45227,0.78552 -1.15844,1.17431 -0.70618,0.3888 -1.69007,0.3888 -1.63452,0 -2.63427,-1.24573 -0.99976,-1.24573 -0.99976,-3.30078 0,-2.06299 0.99976,-3.30872 0.99975,-1.24572 2.63427,-1.24572 0.98389,0 1.69007,0.38879 0.70617,0.38879 1.15844,1.17432 l 0,-1.34888 1.45997,0 0,7.78381 z"
           style="font-size:16.25px;fill:#000000"
           id="path7518"
           inkscape:connector-curvature="0" />
        <path
           d="m 605.03906,376.767 0,5.36377 -1.45996,0 0,-5.31616 q 0,-1.2616 -0.49194,-1.88843 -0.49195,-0.62683 -1.47583,-0.62683 -1.18225,0 -1.86463,0.75378 -0.68237,0.75379 -0.68237,2.05505 l 0,5.02259 -1.46789,0 0,-12.34619 1.46789,0 0,4.84008 q 0.52368,-0.80139 1.22986,-1.19812 0.71411,-0.39672 1.64246,-0.39672 1.53137,0 2.31689,0.95214 0.78552,0.94422 0.78552,2.78504 z"
           style="font-size:16.25px;fill:#000000"
           id="path7520"
           inkscape:connector-curvature="0" />
        <path
           d="m 609.41101,370.72086 0,2.52319 3.0072,0 0,1.13464 -3.0072,0 0,4.82422 q 0,1.08704 0.29358,1.39649 0.30151,0.30944 1.21399,0.30944 l 1.49963,0 0,1.22193 -1.49963,0 q -1.69006,0 -2.33276,-0.62683 -0.6427,-0.63477 -0.6427,-2.30103 l 0,-4.82422 -1.07117,0 0,-1.13464 1.07117,0 0,-2.52319 1.46789,0 z"
           style="font-size:16.25px;fill:#000000"
           id="path7522"
           inkscape:connector-curvature="0" />
        <path
           d="m 625.18494,373.50589 0,1.38061 q -0.6189,-0.31738 -1.2854,-0.47607 -0.66651,-0.15869 -1.38062,-0.15869 -1.08704,0 -1.63452,0.33325 -0.53955,0.33325 -0.53955,0.99976 0,0.50781 0.38879,0.80139 0.3888,0.28564 1.56311,0.54748 l 0.49988,0.11109 q 1.55518,0.33325 2.20581,0.94421 0.65857,0.60303 0.65857,1.69007 0,1.23779 -0.98389,1.95983 -0.97595,0.72205 -2.68982,0.72205 -0.71411,0 -1.49169,-0.14282 -0.76966,-0.13489 -1.62659,-0.4126 l 0,-1.50757 q 0.80932,0.42053 1.59485,0.63477 0.78552,0.2063 1.55517,0.2063 1.0315,0 1.58692,-0.34912 0.55542,-0.35706 0.55542,-0.99976 0,-0.59509 -0.40467,-0.91248 -0.39672,-0.31738 -1.75354,-0.61096 l -0.50781,-0.11902 q -1.35681,-0.28564 -1.95984,-0.8728 -0.60302,-0.59509 -0.60302,-1.62659 0,-1.25366 0.88867,-1.93603 0.88867,-0.68237 2.52319,-0.68237 0.80933,0 1.52344,0.11901 0.71411,0.11902 1.31714,0.35706 z"
           style="font-size:16.25px;fill:#000000"
           id="path7524"
           inkscape:connector-curvature="0" />
        <path
           d="m 627.99377,373.24405 1.45997,0 0,8.88672 -1.45997,0 0,-8.88672 z m 0,-3.45947 1.45997,0 0,1.84875 -1.45997,0 0,-1.84875 z"
           style="font-size:16.25px;fill:#000000"
           id="path7526"
           inkscape:connector-curvature="0" />
        <path
           d="m 638.34839,374.59293 0,-4.80835 1.45996,0 0,12.34619 -1.45996,0 0,-1.33301 q -0.46021,0.79346 -1.16638,1.18225 -0.69825,0.38086 -1.68213,0.38086 -1.61072,0 -2.62634,-1.2854 -1.0077,-1.2854 -1.0077,-3.38013 0,-2.09472 1.0077,-3.38012 1.01562,-1.2854 2.62634,-1.2854 0.98388,0 1.68213,0.38879 0.70617,0.38086 1.16638,1.17432 z m -4.97498,3.10241 q 0,1.61072 0.65857,2.53113 0.66651,0.91248 1.82495,0.91248 1.15845,0 1.82495,-0.91248 0.66651,-0.92041 0.66651,-2.53113 0,-1.61071 -0.66651,-2.52319 -0.6665,-0.92041 -1.82495,-0.92041 -1.15844,0 -1.82495,0.92041 -0.65857,0.91248 -0.65857,2.52319 z"
           style="font-size:16.25px;fill:#000000"
           id="path7528"
           inkscape:connector-curvature="0" />
        <path
           d="m 650.41687,377.32242 0,0.71411 -6.71265,0 q 0.0952,1.50757 0.90454,2.30102 0.81727,0.78553 2.26929,0.78553 0.84107,0 1.62659,-0.2063 0.79346,-0.2063 1.57104,-0.6189 l 0,1.38062 q -0.78552,0.33325 -1.61071,0.50781 -0.8252,0.17456 -1.6742,0.17456 -2.12646,0 -3.37219,-1.23779 -1.23779,-1.2378 -1.23779,-3.34839 0,-2.18201 1.17431,-3.45947 1.18225,-1.2854 3.18177,-1.2854 1.79321,0 2.83264,1.15844 1.04736,1.15052 1.04736,3.13416 z m -1.45996,-0.42847 q -0.0159,-1.19812 -0.67444,-1.91223 -0.65063,-0.71411 -1.72974,-0.71411 -1.22192,0 -1.95983,0.69031 -0.72998,0.6903 -0.84107,1.94397 l 5.20508,-0.008 z"
           style="font-size:16.25px;fill:#000000"
           id="path7530"
           inkscape:connector-curvature="0" />
      </g>
      <path
         style="display:inline;opacity:1;fill:#bc2122;fill-opacity:1;stroke:none;stroke-width:1;stroke-miterlimit:4;stroke-dasharray:1, 12;stroke-dashoffset:0;stroke-opacity:1"
         d="m 116.41193,662.58954 33.46187,0 c 0.0303,0 0.0548,0.0244 0.0548,0.0548 l 0,32.25004 c 0,0.0303 -0.0244,0.0548 -0.0548,0.0548 l -33.46187,0 c -0.0303,0 -0.0548,-0.0244 -0.0548,-0.0548 l 0,-32.25004 c 0,-0.0303 0.0244,-0.0548 0.0548,-0.0548 z"
         id="rect6924-3"
         inkscape:connector-curvature="0" />
      <path
         style="display:inline;opacity:1;fill:#bec1fc;fill-opacity:1;stroke:none;stroke-width:1;stroke-miterlimit:4;stroke-dasharray:1, 12;stroke-dashoffset:0;stroke-opacity:1"
         d="m 383.88522,662.6322 32.80099,0 c 0.0156,0 0.0281,0.0125 0.0281,0.0281 l 0,32.21811 c 0,0.0156 -0.0125,0.0281 -0.0281,0.0281 l -32.80099,0 c -0.0156,0 -0.0281,-0.0125 -0.0281,-0.0281 l 0,-32.21811 c 0,-0.0156 0.0125,-0.0281 0.0281,-0.0281 z"
         id="rect6902-6"
         inkscape:connector-curvature="0" />
      <g
         transform="translate(-4.7142868,611.78458)"
         style="font-style:normal;font-weight:normal;font-size:40px;line-height:125%;font-family:sans-serif;letter-spacing:0px;word-spacing:0px;fill:#000000;fill-opacity:1;stroke:none;stroke-width:1px;stroke-linecap:butt;stroke-linejoin:miter;stroke-opacity:1"
         id="flowRoot7118">
        <path
           d="m 161.79297,61.481858 0,5.478516 2.48047,0 q 1.37695,0 2.1289,-0.712891 0.75196,-0.71289 0.75196,-2.03125 0,-1.308594 -0.75196,-2.021484 -0.75195,-0.712891 -2.1289,-0.712891 l -2.48047,0 z m -1.97266,-1.621094 4.45313,0 q 2.45117,0 3.70117,1.113282 1.25976,1.103515 1.25976,3.242187 0,2.158203 -1.25976,3.261719 -1.25,1.103516 -3.70117,1.103516 l -2.48047,0 0,5.859375 -1.97266,0 0,-14.580079 z"
           style="font-size:20px;fill:#000000;fill-opacity:1;stroke:none;stroke-opacity:1"
           id="path7535"
           inkscape:connector-curvature="0" />
        <path
           d="m 177.79883,65.18303 q -0.30274,-0.175781 -0.66406,-0.253906 -0.35157,-0.08789 -0.78125,-0.08789 -1.52344,0 -2.34375,0.996094 -0.81055,0.986328 -0.81055,2.841797 l 0,5.761719 -1.80664,0 0,-10.9375 1.80664,0 0,1.699218 q 0.5664,-0.996093 1.47461,-1.474609 0.9082,-0.488281 2.20703,-0.488281 0.18555,0 0.41016,0.0293 0.2246,0.01953 0.49804,0.06836 l 0.01,1.845703 z"
           style="font-size:20px;fill:#000000;fill-opacity:1;stroke:none;stroke-opacity:1"
           id="path7537"
           inkscape:connector-curvature="0" />
        <path
           d="m 183.51172,64.763108 q -1.44531,0 -2.28516,1.132813 -0.83984,1.123047 -0.83984,3.085937 0,1.962891 0.83008,3.095703 0.83984,1.123047 2.29492,1.123047 1.43555,0 2.27539,-1.132812 0.83984,-1.132813 0.83984,-3.085938 0,-1.943359 -0.83984,-3.076172 -0.83984,-1.142578 -2.27539,-1.142578 z m 0,-1.523437 q 2.34375,0 3.68164,1.523437 1.33789,1.523438 1.33789,4.21875 0,2.685547 -1.33789,4.21875 -1.33789,1.523438 -3.68164,1.523438 -2.35352,0 -3.69141,-1.523438 -1.32812,-1.533203 -1.32812,-4.21875 0,-2.695312 1.32812,-4.21875 1.33789,-1.523437 3.69141,-1.523437 z"
           style="font-size:20px;fill:#000000;fill-opacity:1;stroke:none;stroke-opacity:1"
           id="path7539"
           inkscape:connector-curvature="0" />
        <path
           d="m 198.69727,65.163499 0,-5.917969 1.79687,0 0,15.195313 -1.79687,0 0,-1.640625 q -0.56641,0.976562 -1.43555,1.455078 -0.85938,0.46875 -2.07031,0.46875 -1.98243,0 -3.23243,-1.582032 -1.24023,-1.582031 -1.24023,-4.160156 0,-2.578125 1.24023,-4.160156 1.25,-1.582031 3.23243,-1.582031 1.21093,0 2.07031,0.478515 0.86914,0.46875 1.43555,1.445313 z m -6.12305,3.818359 q 0,1.982422 0.81055,3.115235 0.82031,1.123046 2.24609,1.123046 1.42578,0 2.24609,-1.123046 0.82032,-1.132813 0.82032,-3.115235 0,-1.982422 -0.82032,-3.105469 -0.82031,-1.132812 -2.24609,-1.132812 -1.42578,0 -2.24609,1.132812 -0.81055,1.123047 -0.81055,3.105469 z"
           style="font-size:20px;fill:#000000;fill-opacity:1;stroke:none;stroke-opacity:1"
           id="path7541"
           inkscape:connector-curvature="0" />
        <path
           d="m 204.00977,70.124436 0,-6.621093 1.79687,0 0,6.552734 q 0,1.552734 0.60547,2.333984 0.60547,0.771485 1.81641,0.771485 1.45507,0 2.29492,-0.927735 0.84961,-0.927734 0.84961,-2.529297 l 0,-6.201171 1.79687,0 0,10.9375 -1.79687,0 0,-1.679688 q -0.6543,0.996094 -1.52344,1.484375 -0.85938,0.478516 -2.00195,0.478516 -1.88477,0 -2.86133,-1.171875 -0.97656,-1.171875 -0.97656,-3.427735 z m 4.52148,-6.884765 0,0 z"
           style="font-size:20px;fill:#000000;fill-opacity:1;stroke:none;stroke-opacity:1"
           id="path7543"
           inkscape:connector-curvature="0" />
        <path
           d="m 224.76172,63.923264 0,1.679688 q -0.76172,-0.419922 -1.5332,-0.625 -0.76172,-0.214844 -1.54297,-0.214844 -1.74805,0 -2.71485,1.113281 -0.96679,1.103516 -0.96679,3.105469 0,2.001953 0.96679,3.115235 0.9668,1.103515 2.71485,1.103515 0.78125,0 1.54297,-0.205078 0.77148,-0.214844 1.5332,-0.634766 l 0,1.660157 q -0.75195,0.351562 -1.5625,0.527343 -0.80078,0.175782 -1.70899,0.175782 -2.4707,0 -3.92578,-1.552735 -1.45508,-1.552734 -1.45508,-4.189453 0,-2.675781 1.46485,-4.208984 1.47461,-1.533203 4.0332,-1.533203 0.83008,0 1.6211,0.175781 0.79101,0.166016 1.5332,0.507812 z"
           style="font-size:20px;fill:#000000;fill-opacity:1;stroke:none;stroke-opacity:1"
           id="path7545"
           inkscape:connector-curvature="0" />
        <path
           d="m 229.68359,60.397874 0,3.105469 3.70118,0 0,1.396484 -3.70118,0 0,5.9375 q 0,1.337891 0.36133,1.71875 0.3711,0.380859 1.49414,0.380859 l 1.84571,0 0,1.503907 -1.84571,0 q -2.08008,0 -2.87109,-0.771485 -0.79102,-0.78125 -0.79102,-2.832031 l 0,-5.9375 -1.31836,0 0,-1.396484 1.31836,0 0,-3.105469 1.80664,0 z"
           style="font-size:20px;fill:#000000;fill-opacity:1;stroke:none;stroke-opacity:1"
           id="path7547"
           inkscape:connector-curvature="0" />
      </g>
      <g
         transform="translate(265.28571,611.78458)"
         style="font-style:normal;font-weight:normal;font-size:40px;line-height:125%;font-family:sans-serif;letter-spacing:0px;word-spacing:0px;fill:#000000;fill-opacity:1;stroke:none;stroke-width:1px;stroke-linecap:butt;stroke-linejoin:miter;stroke-opacity:1"
         id="flowRoot7126">
        <path
           d="m 161.79297,67.477952 0,5.341797 3.16406,0 q 1.5918,0 2.35352,-0.654297 0.77148,-0.664063 0.77148,-2.021484 0,-1.367188 -0.77148,-2.011719 -0.76172,-0.654297 -2.35352,-0.654297 l -3.16406,0 z m 0,-5.996094 0,4.394531 2.91992,0 q 1.44531,0 2.14844,-0.537109 0.71289,-0.546875 0.71289,-1.660156 0,-1.103516 -0.71289,-1.650391 -0.70313,-0.546875 -2.14844,-0.546875 l -2.91992,0 z m -1.97266,-1.621094 5.03906,0 q 2.25586,0 3.47657,0.9375 1.2207,0.9375 1.2207,2.666016 0,1.337891 -0.625,2.128906 -0.625,0.791016 -1.83594,0.986328 1.45508,0.3125 2.25586,1.308594 0.81055,0.986328 0.81055,2.470703 0,1.953125 -1.32813,3.017578 -1.32812,1.064454 -3.77929,1.064454 l -5.23438,0 0,-14.580079 z"
           style="font-size:20px;fill:#000000;fill-opacity:1;stroke:none;stroke-opacity:1"
           id="path7550"
           inkscape:connector-curvature="0" />
        <path
           d="m 173.26758,70.124436 0,-6.621093 1.79687,0 0,6.552734 q 0,1.552734 0.60547,2.333984 0.60547,0.771485 1.81641,0.771485 1.45508,0 2.29492,-0.927735 0.84961,-0.927734 0.84961,-2.529297 l 0,-6.201171 1.79687,0 0,10.9375 -1.79687,0 0,-1.679688 q -0.6543,0.996094 -1.52344,1.484375 -0.85937,0.478516 -2.00195,0.478516 -1.88477,0 -2.86133,-1.171875 -0.97656,-1.171875 -0.97656,-3.427735 z m 4.52148,-6.884765 0,0 z"
           style="font-size:20px;fill:#000000;fill-opacity:1;stroke:none;stroke-opacity:1"
           id="path7552"
           inkscape:connector-curvature="0" />
        <path
           d="m 198.42383,59.24553 0,1.494141 -1.71875,0 q -0.9668,0 -1.34766,0.390625 -0.37109,0.390625 -0.37109,1.40625 l 0,0.966797 2.95898,0 0,1.396484 -2.95898,0 0,9.541016 -1.80664,0 0,-9.541016 -4.93164,0 0,9.541016 -1.80664,0 0,-9.541016 -1.71875,0 0,-1.396484 1.71875,0 0,-0.761719 q 0,-1.826172 0.84961,-2.65625 0.8496,-0.839844 2.69531,-0.839844 l 1.69922,0 0,1.494141 -1.71875,0 q -0.9668,0 -1.34766,0.390625 -0.37109,0.390625 -0.37109,1.40625 l 0,0.966797 4.93164,0 0,-0.761719 q 0,-1.826172 0.84961,-2.65625 0.84961,-0.839844 2.69531,-0.839844 l 1.69922,0 z"
           style="font-size:20px;fill:#000000;fill-opacity:1;stroke:none;stroke-opacity:1"
           id="path7554"
           inkscape:connector-curvature="0" />
        <path
           d="m 209.29297,68.522874 0,0.878906 -8.26172,0 q 0.11719,1.855469 1.11328,2.832031 1.00586,0.966797 2.79297,0.966797 1.03516,0 2.00195,-0.253906 0.97657,-0.253906 1.9336,-0.761719 l 0,1.699219 q -0.9668,0.410156 -1.98243,0.625 -1.01562,0.214844 -2.06054,0.214844 -2.61719,0 -4.15039,-1.523438 -1.52344,-1.523437 -1.52344,-4.121094 0,-2.685546 1.44531,-4.257812 1.45508,-1.582031 3.91602,-1.582031 2.20703,0 3.48633,1.425781 1.28906,1.416016 1.28906,3.857422 z m -1.79688,-0.527344 q -0.0195,-1.474609 -0.83007,-2.353516 -0.80079,-0.878906 -2.12891,-0.878906 -1.50391,0 -2.41211,0.84961 -0.89844,0.849609 -1.03516,2.392578 l 6.40625,-0.0098 z"
           style="font-size:20px;fill:#000000;fill-opacity:1;stroke:none;stroke-opacity:1"
           id="path7556"
           inkscape:connector-curvature="0" />
        <path
           d="m 218.58008,65.18303 q -0.30274,-0.175781 -0.66406,-0.253906 -0.35157,-0.08789 -0.78125,-0.08789 -1.52344,0 -2.34375,0.996094 -0.81055,0.986328 -0.81055,2.841797 l 0,5.761719 -1.80664,0 0,-10.9375 1.80664,0 0,1.699218 q 0.5664,-0.996093 1.47461,-1.474609 0.9082,-0.488281 2.20703,-0.488281 0.18555,0 0.41016,0.0293 0.2246,0.01953 0.49804,0.06836 l 0.01,1.845703 z"
           style="font-size:20px;fill:#000000;fill-opacity:1;stroke:none;stroke-opacity:1"
           id="path7558"
           inkscape:connector-curvature="0" />
      </g>
      <g
         transform="translate(13.999999,606.52938)"
         style="font-style:normal;font-weight:normal;font-size:16.25px;line-height:125%;font-family:sans-serif;letter-spacing:0px;word-spacing:0px;fill:#000000;fill-opacity:1;stroke:none;stroke-width:1px;stroke-linecap:butt;stroke-linejoin:miter;stroke-opacity:1"
         id="flowRoot7169">
        <path
           d="m 71.59314,431.33975 q -1.237793,0 -1.864624,1.22193 -0.618897,1.21399 -0.618897,3.65783 0,2.43592 0.618897,3.65784 0.626831,1.21399 1.864624,1.21399 1.245727,0 1.864624,-1.21399 0.626831,-1.22192 0.626831,-3.65784 0,-2.44384 -0.626831,-3.65783 -0.618897,-1.22193 -1.864624,-1.22193 z m 0,-1.26953 q 1.991577,0 3.03894,1.57898 1.055298,1.57105 1.055298,4.57031 0,2.99134 -1.055298,4.57032 -1.047363,1.57104 -3.03894,1.57104 -1.991578,0 -3.046875,-1.57104 -1.047364,-1.57898 -1.047364,-4.57032 0,-2.99926 1.047364,-4.57031 1.055297,-1.57898 3.046875,-1.57898 z"
           id="path7561"
           inkscape:connector-curvature="0"
           style="fill:#000000" />
      </g>
      <g
         transform="translate(146.83543,606.42226)"
         style="font-style:normal;font-weight:normal;font-size:16.25px;line-height:125%;font-family:sans-serif;letter-spacing:0px;word-spacing:0px;display:inline;fill:#000000;fill-opacity:1;stroke:none;stroke-width:1px;stroke-linecap:butt;stroke-linejoin:miter;stroke-opacity:1"
         id="flowRoot7169-0">
        <path
           d="m 68.443115,440.78189 2.618408,0 0,-9.03747 -2.84851,0.57128 0,-1.45996 2.832641,-0.57129 1.602783,0 0,10.49744 2.618409,0 0,1.34888 -6.823731,0 0,-1.34888 z"
           id="path7564"
           inkscape:connector-curvature="0"
           style="fill:#000000" />
        <path
           d="m 78.527954,430.28445 6.292114,0 0,1.34888 -4.824218,0 0,2.90405 q 0.349121,-0.11901 0.698242,-0.17456 0.349121,-0.0635 0.698242,-0.0635 1.983643,0 3.14209,1.08703 1.158447,1.08704 1.158447,2.94373 0,1.91223 -1.190185,2.97546 -1.190186,1.0553 -3.356324,1.0553 -0.745849,0 -1.523437,-0.12695 -0.769654,-0.12696 -1.594849,-0.38086 l 0,-1.61072 q 0.714111,0.38879 1.47583,0.57922 0.761719,0.19043 1.610718,0.19043 1.372681,0 2.174072,-0.72204 0.801392,-0.72205 0.801392,-1.95984 0,-1.23779 -0.801392,-1.95984 -0.801391,-0.72205 -2.174072,-0.72205 -0.6427,0 -1.2854,0.14283 -0.634766,0.14282 -1.30127,0.44433 l 0,-5.95093 z"
           id="path7566"
           inkscape:connector-curvature="0"
           style="fill:#000000" />
      </g>
      <g
         transform="translate(284.83543,606.52938)"
         style="font-style:normal;font-weight:normal;font-size:16.25px;line-height:125%;font-family:sans-serif;letter-spacing:0px;word-spacing:0px;display:inline;fill:#000000;fill-opacity:1;stroke:none;stroke-width:1px;stroke-linecap:butt;stroke-linejoin:miter;stroke-opacity:1"
         id="flowRoot7169-1">
        <path
           d="m 73.021362,435.74344 q 1.150513,0.24597 1.793213,1.02356 0.650635,0.77759 0.650635,1.92016 0,1.75354 -1.206055,2.71363 -1.206054,0.96008 -3.427734,0.96008 -0.74585,0 -1.539307,-0.15076 -0.785522,-0.14282 -1.626587,-0.4364 l 0,-1.54724 q 0.666504,0.38879 1.459961,0.58716 0.793457,0.19836 1.658325,0.19836 1.507569,0 2.293091,-0.59509 0.793457,-0.59509 0.793457,-1.72974 0,-1.04736 -0.737915,-1.63452 -0.72998,-0.59509 -2.039184,-0.59509 l -1.380616,0 0,-1.31714 1.444092,0 q 1.182251,0 1.809082,-0.46814 0.626831,-0.47607 0.626831,-1.36474 0,-0.91248 -0.650634,-1.39649 -0.642701,-0.49194 -1.848755,-0.49194 -0.65857,0 -1.412354,0.14282 -0.753784,0.14282 -1.658325,0.44434 l 0,-1.42823 q 0.912476,-0.2539 1.705933,-0.38086 0.801391,-0.12695 1.507568,-0.12695 1.824951,0 2.888184,0.83313 1.063232,0.8252 1.063232,2.23755 0,0.98389 -0.563354,1.66626 -0.563355,0.67444 -1.602784,0.93628 z"
           id="path7569"
           inkscape:connector-curvature="0"
           style="fill:#000000" />
        <path
           d="m 81.939819,431.33975 q -1.237793,0 -1.864624,1.22193 -0.618896,1.21399 -0.618896,3.65783 0,2.43592 0.618896,3.65784 0.626831,1.21399 1.864624,1.21399 1.245728,0 1.864624,-1.21399 0.626831,-1.22192 0.626831,-3.65784 0,-2.44384 -0.626831,-3.65783 -0.618896,-1.22193 -1.864624,-1.22193 z m 0,-1.26953 q 1.991577,0 3.038941,1.57898 1.055298,1.57105 1.055298,4.57031 0,2.99134 -1.055298,4.57032 -1.047364,1.57104 -3.038941,1.57104 -1.991577,0 -3.046875,-1.57104 -1.047363,-1.57898 -1.047363,-4.57032 0,-2.99926 1.047363,-4.57031 1.055298,-1.57898 3.046875,-1.57898 z"
           id="path7571"
           inkscape:connector-curvature="0"
           style="fill:#000000" />
      </g>
      <g
         transform="translate(424.97829,606.42226)"
         style="font-style:normal;font-weight:normal;font-size:16.25px;line-height:125%;font-family:sans-serif;letter-spacing:0px;word-spacing:0px;display:inline;fill:#000000;fill-opacity:1;stroke:none;stroke-width:1px;stroke-linecap:butt;stroke-linejoin:miter;stroke-opacity:1"
         id="flowRoot7169-2">
        <path
           d="m 72.569092,431.68094 -4.046631,6.32385 4.046631,0 0,-6.32385 z m -0.420532,-1.39649 2.01538,0 0,7.72034 1.690064,0 0,1.33301 -1.690064,0 0,2.79297 -1.594848,0 0,-2.79297 -5.347901,0 0,-1.54724 4.927369,-7.50611 z"
           id="path7574"
           inkscape:connector-curvature="0"
           style="fill:#000000" />
        <path
           d="m 78.527954,430.28445 6.292114,0 0,1.34888 -4.824218,0 0,2.90405 q 0.349121,-0.11901 0.698242,-0.17456 0.349121,-0.0635 0.698242,-0.0635 1.983643,0 3.14209,1.08703 1.158447,1.08704 1.158447,2.94373 0,1.91223 -1.190185,2.97546 -1.190186,1.0553 -3.356324,1.0553 -0.745849,0 -1.523437,-0.12695 -0.769654,-0.12696 -1.594849,-0.38086 l 0,-1.61072 q 0.714111,0.38879 1.47583,0.57922 0.761719,0.19043 1.610718,0.19043 1.372681,0 2.174072,-0.72204 0.801392,-0.72205 0.801392,-1.95984 0,-1.23779 -0.801392,-1.95984 -0.801391,-0.72205 -2.174072,-0.72205 -0.6427,0 -1.2854,0.14283 -0.634766,0.14282 -1.30127,0.44433 l 0,-5.95093 z"
           id="path7576"
           inkscape:connector-curvature="0"
           style="fill:#000000" />
      </g>
      <path
         inkscape:connector-curvature="0"
         id="path7243"
         d="m 223.85714,1026.6479 0,-321.78576"
         style="fill:none;fill-rule:evenodd;stroke:#000000;stroke-width:0;stroke-linecap:butt;stroke-linejoin:miter;stroke-miterlimit:4;stroke-dasharray:none;stroke-dashoffset:0;stroke-opacity:1" />
      <path
         inkscape:connector-curvature="0"
         id="path7245"
         d="m 216,1027.005 0,-321.78572"
         style="fill:none;fill-rule:evenodd;stroke:#000000;stroke-width:0;stroke-linecap:butt;stroke-linejoin:miter;stroke-miterlimit:4;stroke-dasharray:none;stroke-dashoffset:0;stroke-opacity:1" />
      <path
         inkscape:connector-curvature="0"
         id="path7247"
         d="m 224.25761,707.11468 0,322.14282"
         style="fill:none;fill-rule:evenodd;stroke:#000000;stroke-width:1.29999995;stroke-linecap:butt;stroke-linejoin:miter;stroke-miterlimit:4;stroke-dasharray:2.6, 2.6;stroke-dashoffset:0;stroke-opacity:1" />
      <path
         style="fill:none;fill-rule:evenodd;stroke:#000000;stroke-width:1.29999995;stroke-linecap:butt;stroke-linejoin:miter;stroke-miterlimit:4;stroke-dasharray:2.6, 2.6;stroke-dashoffset:0;stroke-opacity:1"
         d="m 362.25761,707.11468 0,322.14282"
         id="path7258"
         inkscape:connector-curvature="0" />
      <path
         inkscape:connector-curvature="0"
         id="path7260"
         d="m 500.25761,707.11468 0,322.14282"
         style="fill:none;fill-rule:evenodd;stroke:#000000;stroke-width:1.29999995;stroke-linecap:butt;stroke-linejoin:miter;stroke-miterlimit:4;stroke-dasharray:2.6, 2.6;stroke-dashoffset:0;stroke-opacity:1" />
      <text
         xml:space="preserve"
         id="text925"
         style="font-size:37.5px;line-height:1.25;font-family:sans-serif;letter-spacing:0px;white-space:pre;shape-inside:url(#rect927);"
         transform="translate(-62.64049,218.86465)"><tspan
           x="152.33203"
           y="509.35254"><tspan
             style="font-size:25px">B1</tspan></tspan></text>
      <text
         xml:space="preserve"
         id="text925-4"
         style="font-size:37.5px;line-height:1.25;font-family:sans-serif;letter-spacing:0px;white-space:pre;shape-inside:url(#rect927-4);display:inline;"
         transform="translate(212.42983,219.02944)"
         inkscape:transform-center-x="4.4208522"
         inkscape:transform-center-y="-28.147313"><tspan
           x="152.33203"
           y="509.35254"><tspan
             style="font-size:25px">B2</tspan></tspan></text>
      <text
         xml:space="preserve"
         id="text925-4-1"
         style="font-size:37.5px;line-height:1.25;font-family:sans-serif;letter-spacing:0px;white-space:pre;shape-inside:url(#rect927-4-3);display:inline;"
         transform="translate(73.754785,218.86465)"
         inkscape:transform-center-x="4.4208522"
         inkscape:transform-center-y="-28.147313"><tspan
           x="152.33203"
           y="509.35254"><tspan
             style="font-size:25px">P1</tspan></tspan></text>
      <text
         xml:space="preserve"
         id="text925-4-1-5"
         style="font-size:37.5px;line-height:1.25;font-family:sans-serif;letter-spacing:0px;white-space:pre;shape-inside:url(#rect927-4-3-7);display:inline;"
         transform="translate(351.33186,219.02944)"
         inkscape:transform-center-x="4.4208522"
         inkscape:transform-center-y="-28.147313"><tspan
           x="152.33203"
           y="509.35254"><tspan
             style="font-size:25px">P2</tspan></tspan></text>
    </g>
  </g>
</svg>
