<?xml version="1.0" encoding="UTF-8" standalone="no"?>
<svg
   xmlns:dc="http://purl.org/dc/elements/1.1/"
   xmlns:cc="http://creativecommons.org/ns#"
   xmlns:rdf="http://www.w3.org/1999/02/22-rdf-syntax-ns#"
   xmlns:svg="http://www.w3.org/2000/svg"
   xmlns="http://www.w3.org/2000/svg"
   xmlns:sodipodi="http://sodipodi.sourceforge.net/DTD/sodipodi-0.dtd"
   xmlns:inkscape="http://www.inkscape.org/namespaces/inkscape"
   style="font-style:normal;font-weight:normal;font-size:12px;font-family:Dialog;color-interpolation:auto;fill:#000000;fill-opacity:1;stroke:#000000;stroke-width:1;stroke-linecap:square;stroke-linejoin:miter;stroke-miterlimit:10;stroke-dasharray:none;stroke-dashoffset:0;stroke-opacity:1;color-rendering:auto;image-rendering:auto;shape-rendering:auto;text-rendering:auto"
   width="573.51996"
   height="566.57501"
   id="svg2"
   version="1.1"
   inkscape:version="1.0.1 (3bc2e813f5, 2020-09-07, custom)"
   sodipodi:docname="simu_pi.svg"
   inkscape:export-filename="/home/benjamin/Codes/thesis_bg/part_2/assets/simu_pi.png"
   inkscape:export-xdpi="200"
   inkscape:export-ydpi="200">
  <metadata
     id="metadata399">
    <rdf:RDF>
      <cc:Work
         rdf:about="">
        <dc:format>image/svg+xml</dc:format>
        <dc:type
           rdf:resource="http://purl.org/dc/dcmitype/StillImage" />
        <dc:title></dc:title>
      </cc:Work>
    </rdf:RDF>
  </metadata>
  <sodipodi:namedview
     pagecolor="#ffffff"
     bordercolor="#666666"
     borderopacity="1"
     objecttolerance="10"
     gridtolerance="10"
     guidetolerance="10"
     inkscape:pageopacity="0"
     inkscape:pageshadow="2"
     inkscape:window-width="1920"
     inkscape:window-height="1080"
     id="namedview397"
     showgrid="false"
     fit-margin-top="0"
     fit-margin-left="0"
     fit-margin-right="0"
     fit-margin-bottom="0"
     inkscape:zoom="1.2282583"
     inkscape:cx="247.95106"
     inkscape:cy="306.25547"
     inkscape:window-x="1920"
     inkscape:window-y="0"
     inkscape:window-maximized="1"
     inkscape:current-layer="g135"
     inkscape:document-rotation="0"
     inkscape:pagecheckerboard="false" />
  <!--Generated by the Batik Graphics2D SVG Generator-->
  <defs
     id="genericDefs">
    <clipPath
       id="clip422">
      <rect
         x="960"
         y="2503"
         width="5107"
         height="1512"
         id="rect16" />
    </clipPath>
    <clipPath
       id="clip422-3">
      <rect
         x="960"
         y="2503"
         width="5107"
         height="1512"
         id="rect16-1" />
    </clipPath>
    <clipPath
       id="clip422-9">
      <rect
         x="960"
         y="2503"
         width="5107"
         height="1512"
         id="rect16-6" />
    </clipPath>
    <clipPath
       id="clip422-33">
      <rect
         x="960"
         y="2503"
         width="5107"
         height="1512"
         id="rect16-3" />
    </clipPath>
    <clipPath
       id="clip422-0">
      <rect
         x="960"
         y="2503"
         width="5107"
         height="1512"
         id="rect16-4" />
    </clipPath>
    <clipPath
       id="clip422-8">
      <rect
         x="960"
         y="2503"
         width="5107"
         height="1512"
         id="rect16-9" />
    </clipPath>
    <clipPath
       id="clip422-7">
      <rect
         x="960"
         y="2503"
         width="5107"
         height="1512"
         id="rect16-64" />
    </clipPath>
    <clipPath
       id="clip422-03">
      <rect
         x="960"
         y="2503"
         width="5107"
         height="1512"
         id="rect16-0" />
    </clipPath>
    <clipPath
       id="clip422-2">
      <rect
         x="960"
         y="2503"
         width="5107"
         height="1512"
         id="rect16-5" />
    </clipPath>
    <clipPath
       id="clip422-5">
      <rect
         x="960"
         y="2503"
         width="5107"
         height="1512"
         id="rect16-94" />
    </clipPath>
    <clipPath
       id="clip422-92">
      <rect
         x="960"
         y="2503"
         width="5107"
         height="1512"
         id="rect16-2" />
    </clipPath>
    <clipPath
       id="clip422-4">
      <rect
         x="960"
         y="2503"
         width="5107"
         height="1512"
         id="rect16-7" />
    </clipPath>
    <clipPath
       id="clip422-92-5">
      <rect
         x="960"
         y="2503"
         width="5107"
         height="1512"
         id="rect16-2-4" />
    </clipPath>
    <clipPath
       id="clip422-92-1">
      <rect
         x="960"
         y="2503"
         width="5107"
         height="1512"
         id="rect16-2-2" />
    </clipPath>
    <clipPath
       id="clip422-92-3">
      <rect
         x="960"
         y="2503"
         width="5107"
         height="1512"
         id="rect16-2-6" />
    </clipPath>
  </defs>
  <g
     id="g5"
     transform="translate(-447.8642,-38.6562)">
    <defs
       id="defs1">
      <clipPath
         clipPathUnits="userSpaceOnUse"
         id="clipPath1">
        <path
           d="M 0,0 H 1483 V 615 H 0 Z"
           id="path9"
           inkscape:connector-curvature="0" />
      </clipPath>
    </defs>
    <g
       style="fill:#ffffff;stroke:#ffffff"
       id="g11" />
    <g
       style="color-interpolation:sRGB;fill:#ffffff;stroke:#ffffff;color-rendering:optimizeSpeed;image-rendering:optimizeSpeed;shape-rendering:crispEdges;text-rendering:optimizeSpeed"
       id="g15" />
    <g
       style="color-interpolation:linearRGB;fill:#ffffff;stroke:#222255;stroke-width:1.76;stroke-linejoin:round;stroke-miterlimit:10;stroke-dasharray:none;stroke-opacity:0.25098;color-rendering:optimizeQuality;image-rendering:optimizeQuality;text-rendering:geometricPrecision"
       id="g21">
      <line
         y2="547"
         style="fill:none;stroke:#222255;stroke-width:1.76;stroke-miterlimit:10;stroke-dasharray:none;stroke-opacity:0.25098"
         x1="517"
         x2="1018"
         y1="547"
         id="line23" />
      <line
         y2="541.98999"
         style="fill:none;stroke:#222255;stroke-width:1.76;stroke-miterlimit:10;stroke-dasharray:none;stroke-opacity:0.25098"
         x1="608.61737"
         x2="608.61737"
         y1="547"
         id="line27" />
      <line
         y2="541.98999"
         style="fill:none;stroke:#222255;stroke-width:1.76;stroke-miterlimit:10;stroke-dasharray:none;stroke-opacity:0.25098"
         x1="838.8468"
         x2="838.8468"
         y1="547"
         id="line29" />
      <line
         y2="544.495"
         style="fill:none;stroke:#222255;stroke-width:1.76;stroke-miterlimit:10;stroke-dasharray:none;stroke-opacity:0.25098"
         x1="517"
         x2="517"
         y1="547"
         id="line35" />
      <line
         y2="544.495"
         style="fill:none;stroke:#222255;stroke-width:1.76;stroke-miterlimit:10;stroke-dasharray:none;stroke-opacity:0.25098"
         x1="539.31152"
         x2="539.31152"
         y1="547"
         id="line37" />
      <line
         y2="544.495"
         style="fill:none;stroke:#222255;stroke-width:1.76;stroke-miterlimit:10;stroke-dasharray:none;stroke-opacity:0.25098"
         x1="557.54138"
         x2="557.54138"
         y1="547"
         id="line39" />
      <line
         y2="544.495"
         style="fill:none;stroke:#222255;stroke-width:1.76;stroke-miterlimit:10;stroke-dasharray:none;stroke-opacity:0.25098"
         x1="572.95453"
         x2="572.95453"
         y1="547"
         id="line41" />
      <line
         y2="544.495"
         style="fill:none;stroke:#222255;stroke-width:1.76;stroke-miterlimit:10;stroke-dasharray:none;stroke-opacity:0.25098"
         x1="586.30591"
         x2="586.30591"
         y1="547"
         id="line43" />
      <line
         y2="544.495"
         style="fill:none;stroke:#222255;stroke-width:1.76;stroke-miterlimit:10;stroke-dasharray:none;stroke-opacity:0.25098"
         x1="598.08282"
         x2="598.08282"
         y1="547"
         id="line45" />
      <line
         y2="544.495"
         style="fill:none;stroke:#222255;stroke-width:1.76;stroke-miterlimit:10;stroke-dasharray:none;stroke-opacity:0.25098"
         x1="608.61737"
         x2="608.61737"
         y1="547"
         id="line47" />
      <line
         y2="544.495"
         style="fill:none;stroke:#222255;stroke-width:1.76;stroke-miterlimit:10;stroke-dasharray:none;stroke-opacity:0.25098"
         x1="677.9234"
         x2="677.9234"
         y1="547"
         id="line49" />
      <line
         y2="544.495"
         style="fill:none;stroke:#222255;stroke-width:1.76;stroke-miterlimit:10;stroke-dasharray:none;stroke-opacity:0.25098"
         x1="718.46478"
         x2="718.46478"
         y1="547"
         id="line51" />
      <line
         y2="544.495"
         style="fill:none;stroke:#222255;stroke-width:1.76;stroke-miterlimit:10;stroke-dasharray:none;stroke-opacity:0.25098"
         x1="747.22931"
         x2="747.22931"
         y1="547"
         id="line53" />
      <line
         y2="544.495"
         style="fill:none;stroke:#222255;stroke-width:1.76;stroke-miterlimit:10;stroke-dasharray:none;stroke-opacity:0.25098"
         x1="769.54077"
         x2="769.54077"
         y1="547"
         id="line55" />
      <line
         y2="544.495"
         style="fill:none;stroke:#222255;stroke-width:1.76;stroke-miterlimit:10;stroke-dasharray:none;stroke-opacity:0.25098"
         x1="787.77069"
         x2="787.77069"
         y1="547"
         id="line57" />
      <line
         y2="544.495"
         style="fill:none;stroke:#222255;stroke-width:1.76;stroke-miterlimit:10;stroke-dasharray:none;stroke-opacity:0.25098"
         x1="803.18378"
         x2="803.18378"
         y1="547"
         id="line59" />
      <line
         y2="544.495"
         style="fill:none;stroke:#222255;stroke-width:1.76;stroke-miterlimit:10;stroke-dasharray:none;stroke-opacity:0.25098"
         x1="816.53528"
         x2="816.53528"
         y1="547"
         id="line61" />
      <line
         y2="544.495"
         style="fill:none;stroke:#222255;stroke-width:1.76;stroke-miterlimit:10;stroke-dasharray:none;stroke-opacity:0.25098"
         x1="828.31207"
         x2="828.31207"
         y1="547"
         id="line63" />
      <line
         y2="544.495"
         style="fill:none;stroke:#222255;stroke-width:1.76;stroke-miterlimit:10;stroke-dasharray:none;stroke-opacity:0.25098"
         x1="838.8468"
         x2="838.8468"
         y1="547"
         id="line65" />
      <line
         y2="544.495"
         style="fill:none;stroke:#222255;stroke-width:1.76;stroke-miterlimit:10;stroke-dasharray:none;stroke-opacity:0.25098"
         x1="908.15271"
         x2="908.15271"
         y1="547"
         id="line67" />
      <line
         y2="544.495"
         style="fill:none;stroke:#222255;stroke-width:1.76;stroke-miterlimit:10;stroke-dasharray:none;stroke-opacity:0.25098"
         x1="948.69409"
         x2="948.69409"
         y1="547"
         id="line69" />
      <line
         y2="544.495"
         style="fill:none;stroke:#222255;stroke-width:1.76;stroke-miterlimit:10;stroke-dasharray:none;stroke-opacity:0.25098"
         x1="977.45862"
         x2="977.45862"
         y1="547"
         id="line71" />
      <line
         y2="544.495"
         style="fill:none;stroke:#222255;stroke-width:1.76;stroke-miterlimit:10;stroke-dasharray:none;stroke-opacity:0.25098"
         x1="999.77008"
         x2="999.77008"
         y1="547"
         id="line73" />
    </g>
    <g
       transform="translate(589,576)"
       style="font-size:18.6667px;font-family:SansSerif;color-interpolation:linearRGB;fill:#000000;stroke:none;color-rendering:optimizeQuality;image-rendering:optimizeQuality;text-rendering:geometricPrecision"
       id="g119">
      <path
         style="fill:#000000;stroke:none"
         d="m 2.3594,-1.5781 h 3.0625 v -10.5625 l -3.3281,0.6718 v -1.7187 l 3.3124,-0.6563 h 1.875 v 12.2657 h 3.0469 V 0 H 2.3594 Z M 17.9165,-12.625 q -1.4531,0 -2.1796,1.4297 -0.7266,1.4297 -0.7266,4.2891 0,2.8437 0.7266,4.2656 0.7265,1.4218 2.1796,1.4218 1.4532,0 2.1797,-1.4218 0.7266,-1.4219 0.7266,-4.2656 0,-2.8594 -0.7266,-4.2891 -0.7265,-1.4297 -2.1797,-1.4297 z m 0,-1.4844 q 2.3282,0 3.5547,1.8438 1.2266,1.8437 1.2266,5.3594 0,3.4843 -1.2266,5.3281 -1.2265,1.8437 -3.5547,1.8437 -2.3281,0 -3.5625,-1.8437 -1.2343,-1.8438 -1.2343,-5.3281 0,-3.5157 1.2343,-5.3594 1.2344,-1.8438 3.5625,-1.8438 z"
         id="path121"
         inkscape:connector-curvature="0" />
    </g>
    <g
       transform="translate(613,567)"
       style="font-size:14.9333px;font-family:SansSerif;color-interpolation:linearRGB;fill:#000000;stroke:none;color-rendering:optimizeQuality;image-rendering:optimizeQuality;text-rendering:geometricPrecision"
       id="g123">
      <path
         style="fill:#000000;stroke:none"
         d="m 0.7344,-4.7031 h 3.9531 v 1.1875 H 0.7344 Z M 7.2381,-1.25 H 9.66 v -8.3438 l -2.6406,0.5313 v -1.3437 l 2.625,-0.5313 h 1.4844 V -1.25 H 13.535 V 0 H 7.2381 Z"
         id="path125"
         inkscape:connector-curvature="0" />
    </g>
    <g
       transform="translate(822,576)"
       style="font-size:18.6667px;font-family:SansSerif;color-interpolation:linearRGB;fill:#000000;stroke:none;color-rendering:optimizeQuality;image-rendering:optimizeQuality;text-rendering:geometricPrecision"
       id="g127">
      <path
         style="fill:#000000;stroke:none"
         d="m 2.3594,-1.5781 h 3.0625 v -10.5625 l -3.3281,0.6718 v -1.7187 l 3.3124,-0.6563 h 1.875 v 12.2657 h 3.0469 V 0 H 2.3594 Z M 17.9165,-12.625 q -1.4531,0 -2.1796,1.4297 -0.7266,1.4297 -0.7266,4.2891 0,2.8437 0.7266,4.2656 0.7265,1.4218 2.1796,1.4218 1.4532,0 2.1797,-1.4218 0.7266,-1.4219 0.7266,-4.2656 0,-2.8594 -0.7266,-4.2891 -0.7265,-1.4297 -2.1797,-1.4297 z m 0,-1.4844 q 2.3282,0 3.5547,1.8438 1.2266,1.8437 1.2266,5.3594 0,3.4843 -1.2266,5.3281 -1.2265,1.8437 -3.5547,1.8437 -2.3281,0 -3.5625,-1.8437 -1.2343,-1.8438 -1.2343,-5.3281 0,-3.5157 1.2343,-5.3594 1.2344,-1.8438 3.5625,-1.8438 z"
         id="path129"
         inkscape:connector-curvature="0" />
    </g>
    <g
       transform="translate(846,567)"
       style="font-size:14.9333px;font-family:SansSerif;color-interpolation:linearRGB;fill:#000000;stroke:none;color-rendering:optimizeQuality;image-rendering:optimizeQuality;text-rendering:geometricPrecision"
       id="g131">
      <path
         style="fill:#000000;stroke:none"
         d="m 4.7656,-9.9688 q -1.1406,0 -1.7187,1.125 -0.5781,1.125 -0.5781,3.3907 0,2.25 0.5781,3.375 0.5781,1.125 1.7187,1.125 1.1563,0 1.7266,-1.125 0.5703,-1.125 0.5703,-3.375 0,-2.2657 -0.5703,-3.3907 -0.5703,-1.125 -1.7266,-1.125 z m 0,-1.1718 q 1.8438,0 2.8125,1.4609 0.9688,1.4609 0.9688,4.2266 0,2.75 -0.9688,4.2109 -0.9687,1.461 -2.8125,1.461 -1.8281,0 -2.8047,-1.461 -0.9765,-1.4609 -0.9765,-4.2109 0,-2.7657 0.9765,-4.2266 0.9766,-1.4609 2.8047,-1.4609 z"
         id="path133"
         inkscape:connector-curvature="0" />
    </g>
    <g
       transform="translate(767.5002,582.7333)"
       style="font-size:20.5333px;font-family:mwa_cmmi10;color-interpolation:linearRGB;fill:#000000;stroke:none;color-rendering:optimizeQuality;image-rendering:optimizeQuality;text-rendering:geometricPrecision"
       id="g135">
      <path
         style="fill:#000000;stroke:none"
         d="m -41.3304,12.7167 q 0,1.2656 0.4922,2.2187 0.4921,0.9531 1.414,1.4922 0.9219,0.5391 2.1875,0.5391 1.3281,0 2.5547,-0.6719 1.2266,-0.6719 2.0859,-1.8047 0.8594,-1.1328 1.1875,-2.4141 0.0313,-0.125 0.1563,-0.125 h 0.2656 q 0.0781,0 0.1328,0.0625 0.0547,0.0625 0.0547,0.125 0,0.0157 -0.0312,0.0625 -0.3594,1.4532 -1.3907,2.7344 -1.0312,1.2813 -2.4609,2.0313 -1.4297,0.75 -2.9609,0.75 -1.6407,0 -2.9375,-0.7422 -1.2969,-0.7422 -2.0235,-2.0547 -0.7265,-1.3125 -0.7265,-2.9688 0,-1.7656 0.789,-3.4921 0.7891,-1.7266 2.125,-3.0704 1.336,-1.3437 3.0391,-2.1484 1.7031,-0.8047 3.4687,-0.8047 0.6875,0 1.3282,0.211 0.6406,0.2109 1.1797,0.6406 0.539,0.4297 0.8984,0.9922 l 1.6562,-1.7969 q 0,-0.0469 0.0938,-0.0469 h 0.125 q 0.0937,0 0.1406,0.0781 0.0469,0.0782 0.0469,0.1407 l -1.4219,5.6718 q 0,0.1407 -0.1719,0.1407 h -0.375 q -0.1562,0 -0.1562,-0.2344 0.0781,-0.4531 0.0781,-1.1094 0,-1.0156 -0.3515,-1.9297 -0.3516,-0.914 -1.086,-1.4609 -0.7344,-0.5469 -1.7812,-0.5469 -1.7188,0 -3.1407,0.8594 -1.4218,0.8594 -2.414,2.2578 -0.9922,1.3984 -1.5313,3.1094 -0.539,1.7109 -0.539,3.3047 z"
         id="path137"
         inkscape:connector-curvature="0" />
      <path
         style="fill:#000000;stroke:none"
         d="m -21.733,22.451 q -1.1719,-0.9218 -2.0156,-2.1171 -0.8438,-1.1954 -1.3828,-2.5469 -0.5391,-1.3516 -0.8047,-2.8281 -0.2656,-1.4766 -0.2656,-2.961 0,-1.5 0.2656,-2.9765 0.2656,-1.4766 0.8125,-2.8438 0.5469,-1.3672 1.3984,-2.5547 0.8516,-1.1875 1.9922,-2.0781 0,-0.0469 0.0938,-0.0469 h 0.2031 q 0.0625,0 0.1094,0.0547 0.0468,0.0547 0.0468,0.1328 0,0.0938 -0.0312,0.125 -1.0313,1.0156 -1.711,2.1641 -0.6796,1.1484 -1.0937,2.4453 -0.4141,1.2969 -0.6016,2.6875 -0.1875,1.3906 -0.1875,2.8906 0,6.6719 3.5625,10.1406 0.0625,0.0625 0.0625,0.1719 0,0.0469 -0.0547,0.1172 -0.0546,0.0703 -0.1015,0.0703 h -0.2031 q -0.0938,0 -0.0938,-0.0469 z"
         id="path139"
         inkscape:connector-curvature="0" />
      <path
         style="fill:#000000;stroke:none"
         d="m -18.6384,16.8885 q 0,-0.125 0.0156,-0.1875 l 1.5625,-6.2656 q 0.1563,-0.5781 0.1563,-1.0156 0,-0.9063 -0.6094,-0.9063 -0.6563,0 -0.9766,0.7813 -0.3203,0.7812 -0.6172,1.9844 0,0.0625 -0.0625,0.1015 -0.0625,0.0391 -0.1093,0.0391 h -0.25 q -0.0625,0 -0.1172,-0.0781 -0.0547,-0.0782 -0.0547,-0.1407 0.2344,-0.9218 0.4375,-1.5546 0.2031,-0.6329 0.6562,-1.1563 0.4532,-0.5234 1.1094,-0.5234 0.7969,0 1.3985,0.5 0.6015,0.5 0.6015,1.2656 0.625,-0.8281 1.4688,-1.2969 0.8437,-0.4687 1.7812,-0.4687 1,0 1.7188,0.5078 0.7187,0.5078 0.7187,1.4453 0.6563,-0.9219 1.5235,-1.4375 0.8671,-0.5156 1.8828,-0.5156 1.0937,0 1.75,0.5937 0.6562,0.5938 0.6562,1.6719 0,0.8594 -0.3828,2.0781 -0.3828,1.2188 -0.9453,2.7344 -0.3125,0.7187 -0.3125,1.2656 0,0.625 0.5,0.625 0.8125,0 1.3594,-0.8828 0.5468,-0.8828 0.7656,-1.8984 0.0625,-0.1094 0.1875,-0.1094 h 0.2344 q 0.0937,0 0.1484,0.0547 0.0547,0.0547 0.0547,0.1172 0,0.0312 -0.0156,0.0625 -0.2969,1.1875 -1.0078,2.1953 -0.711,1.0078 -1.7735,1.0078 -0.75,0 -1.2656,-0.5078 -0.5156,-0.5078 -0.5156,-1.2266 0,-0.375 0.1718,-0.8281 0.5938,-1.5781 0.9844,-2.8203 0.3906,-1.2422 0.3906,-2.1797 0,-0.5938 -0.2343,-1 -0.2344,-0.4063 -0.7813,-0.4063 -1.1562,0 -1.9922,0.7032 -0.8359,0.7031 -1.4609,1.8593 -0.0313,0.2032 -0.0625,0.3125 l -1.3438,5.3907 q -0.0781,0.2968 -0.3281,0.5 -0.25,0.2031 -0.5625,0.2031 -0.25,0 -0.4375,-0.1641 -0.1875,-0.164 -0.1875,-0.4297 0,-0.125 0.0156,-0.1875 l 1.3438,-5.3437 q 0.2187,-0.8594 0.2187,-1.4375 0,-0.5938 -0.2421,-1 -0.2422,-0.4063 -0.8047,-0.4063 -0.7813,0 -1.4219,0.336 -0.6406,0.3359 -1.125,0.8984 -0.4844,0.5625 -0.8906,1.3281 l -1.4219,5.7032 q -0.0625,0.2968 -0.3203,0.5 -0.2578,0.2031 -0.5547,0.2031 -0.2656,0 -0.4453,-0.1641 -0.1797,-0.164 -0.1797,-0.4297 z"
         id="path141"
         inkscape:connector-curvature="0" />
      <path
         style="fill:#000000;stroke:none"
         d="m -1.1724,17.2479 q -0.2031,0 -0.2031,-0.2812 0.0156,-0.0469 0.0469,-0.1719 0.0312,-0.125 0.0781,-0.2031 0.0469,-0.0782 0.1563,-0.0782 2,0 2.3281,-1.2812 L 3.9526,4.2635 Q 3.9995,4.0604 3.9995,3.9823 3.9995,3.7479 3.7495,3.7167 3.3589,3.6385 2.2339,3.6385 2.0308,3.6385 2.0308,3.3573 2.0464,3.3104 2.0776,3.1854 2.1089,3.0604 2.1636,2.9823 2.2183,2.9042 2.2964,2.9042 h 3.7031 q 0.2344,0 0.2656,0.2343 L 7.9058,15.1698 15.562,3.1385 q 0.1406,-0.2343 0.3906,-0.2343 h 3.5782 q 0.2031,0 0.2031,0.2812 -0.0156,0.0469 -0.0469,0.1719 -0.0312,0.125 -0.0859,0.2031 -0.0547,0.0781 -0.1328,0.0781 -1.2813,0 -1.7969,0.1407 -0.2656,0.0937 -0.3906,0.5781 l -2.8907,11.5312 q -0.0312,0.2032 -0.0312,0.2969 0,0.0781 0.0234,0.1328 0.0235,0.0547 0.0703,0.0703 0.0469,0.0157 0.1563,0.0313 0.3906,0.0937 1.5156,0.0937 0.2031,0 0.2031,0.2657 -0.0781,0.2968 -0.1172,0.3828 -0.039,0.0859 -0.2265,0.0859 h -5.5 q -0.2031,0 -0.2031,-0.2812 0.0156,-0.0469 0.0468,-0.1719 0.0313,-0.125 0.086,-0.2031 0.0547,-0.0782 0.1328,-0.0782 1.2812,0 1.7969,-0.1406 0.2656,-0.0937 0.3906,-0.5781 L 15.7651,3.6385 7.2808,17.0135 q -0.125,0.2344 -0.4219,0.2344 -0.2656,0 -0.2969,-0.2344 L 4.7808,3.8104 1.8901,15.326 q -0.0156,0.0469 -0.0234,0.125 -0.0078,0.0782 -0.0234,0.1719 0,0.5469 0.4765,0.7188 0.4766,0.1718 1.1641,0.1718 0.2031,0 0.2031,0.2657 -0.0625,0.2812 -0.1094,0.375 -0.0468,0.0937 -0.25,0.0937 z"
         id="path143"
         inkscape:connector-curvature="0" />
      <path
         style="fill:#000000;stroke:none"
         d="m 21.7671,22.4979 q -0.1875,0 -0.1875,-0.1875 0,-0.0937 0.0469,-0.125 3.5938,-3.5156 3.5938,-10.1875 0,-6.6719 -3.5469,-10.1406 -0.0938,-0.0469 -0.0938,-0.1719 0,-0.0781 0.0625,-0.1328 0.0625,-0.0547 0.125,-0.0547 h 0.2032 q 0.0625,0 0.0937,0.0469 1.5156,1.1875 2.5156,2.8906 1,1.7031 1.4688,3.625 0.4687,1.9219 0.4687,3.9375 0,1.4844 -0.25,2.9297 -0.25,1.4453 -0.7968,2.8438 -0.5469,1.3984 -1.3907,2.5781 -0.8437,1.1797 -2.0156,2.1015 -0.0312,0.0469 -0.0937,0.0469 z"
         id="path149"
         inkscape:connector-curvature="0" />
    </g>
    <g
       style="color-interpolation:linearRGB;fill:#ffffff;stroke:#222255;stroke-width:1.76;stroke-linejoin:round;stroke-miterlimit:10;stroke-dasharray:none;stroke-opacity:0.25098;color-rendering:optimizeQuality;image-rendering:optimizeQuality;text-rendering:geometricPrecision"
       id="g151">
      <polyline
         clip-path="url(#clip422-2)"
         style="font-style:normal;font-weight:normal;font-size:12px;font-family:Dialog;color-interpolation:linearRGB;fill:none;fill-opacity:1;stroke:#222255;stroke-width:7.04;stroke-linecap:square;stroke-linejoin:round;stroke-miterlimit:4;stroke-dasharray:none;stroke-dashoffset:0;stroke-opacity:0.25;color-rendering:optimizeQuality;image-rendering:optimizeQuality;shape-rendering:auto;text-rendering:geometricPrecision"
         points="   960.435,2881.72 6066.71,2881.72    "
         id="polyline689-40"
         transform="matrix(0.09779062,0,0,0.25,423.07847,-624.33)" />
      <polyline
         clip-path="url(#clip422-5)"
         style="font-style:normal;font-weight:normal;font-size:12px;font-family:Dialog;color-interpolation:linearRGB;fill:none;fill-opacity:1;stroke:#222255;stroke-width:7.04;stroke-linecap:square;stroke-linejoin:round;stroke-miterlimit:4;stroke-dasharray:none;stroke-dashoffset:0;stroke-opacity:0.25;color-rendering:optimizeQuality;image-rendering:optimizeQuality;shape-rendering:auto;text-rendering:geometricPrecision"
         points="   960.435,2881.72 6066.71,2881.72    "
         id="polyline689-6"
         transform="matrix(0.09779062,0,0,0.25,424.73267,-674.43)" />
      <line
         y2="46"
         style="fill:none;stroke:#222255;stroke-width:1.76;stroke-miterlimit:10;stroke-dasharray:none;stroke-opacity:0.25098"
         x1="517"
         x2="517"
         y1="547"
         id="line153" />
      <line
         y2="547"
         style="fill:none;stroke:#222255;stroke-width:1.76;stroke-miterlimit:10;stroke-dasharray:none;stroke-opacity:0.25098"
         x1="517"
         x2="522.01001"
         y1="547"
         id="line157" />
      <line
         y2="496.89999"
         style="fill:none;stroke:#222255;stroke-width:1.76;stroke-miterlimit:10;stroke-dasharray:none;stroke-opacity:0.25098"
         x1="517"
         x2="522.01001"
         y1="496.89999"
         id="line159" />
      <line
         y2="446.79999"
         style="fill:none;stroke:#222255;stroke-width:1.76;stroke-miterlimit:10;stroke-dasharray:none;stroke-opacity:0.25098"
         x1="517"
         x2="522.01001"
         y1="446.79999"
         id="line161" />
      <line
         y2="396.70001"
         style="fill:none;stroke:#222255;stroke-width:1.76;stroke-miterlimit:10;stroke-dasharray:none;stroke-opacity:0.25098"
         x1="517"
         x2="522.01001"
         y1="396.70001"
         id="line163" />
      <line
         y2="346.60001"
         style="fill:none;stroke:#222255;stroke-width:1.76;stroke-miterlimit:10;stroke-dasharray:none;stroke-opacity:0.25098"
         x1="517"
         x2="522.01001"
         y1="346.60001"
         id="line165" />
      <line
         y2="296.5"
         style="fill:none;stroke:#222255;stroke-width:1.76;stroke-miterlimit:10;stroke-dasharray:none;stroke-opacity:0.25098"
         x1="517"
         x2="522.01001"
         y1="296.5"
         id="line167" />
      <line
         y2="246.39999"
         style="fill:none;stroke:#222255;stroke-width:1.76;stroke-miterlimit:10;stroke-dasharray:none;stroke-opacity:0.25098"
         x1="517"
         x2="522.01001"
         y1="246.39999"
         id="line169" />
      <line
         y2="196.3"
         style="fill:none;stroke:#222255;stroke-width:1.76;stroke-miterlimit:10;stroke-dasharray:none;stroke-opacity:0.25098"
         x1="517"
         x2="522.01001"
         y1="196.3"
         id="line171" />
      <line
         y2="146.2"
         style="fill:none;stroke:#222255;stroke-width:1.76;stroke-miterlimit:10;stroke-dasharray:none;stroke-opacity:0.25098"
         x1="517"
         x2="522.01001"
         y1="146.2"
         id="line173" />
      <line
         y2="96.099998"
         style="fill:none;stroke:#222255;stroke-width:1.76;stroke-miterlimit:10;stroke-dasharray:none;stroke-opacity:0.25098"
         x1="517"
         x2="522.01001"
         y1="96.099998"
         id="line175" />
      <line
         y2="46"
         style="fill:none;stroke:#222255;stroke-width:1.76;stroke-miterlimit:10;stroke-dasharray:none;stroke-opacity:0.25098"
         x1="517"
         x2="522.01001"
         y1="46"
         id="line177" />
      <line
         y2="547"
         style="fill:none;stroke:#222255;stroke-width:1.76;stroke-miterlimit:10;stroke-dasharray:none;stroke-opacity:0.25098"
         x1="1018"
         x2="1012.99"
         y1="547"
         id="line179" />
      <polyline
         clip-path="url(#clip422)"
         style="fill:none;stroke:#222255;stroke-width:7.04;stroke-miterlimit:4;stroke-dasharray:none;stroke-opacity:0.25"
         points="   960.435,2881.72 6066.71,2881.72    "
         id="polyline689"
         transform="matrix(0.09779062,0,0,0.25,428.08848,-223.53001)" />
      <polyline
         clip-path="url(#clip422-3)"
         style="font-style:normal;font-weight:normal;font-size:12px;font-family:Dialog;color-interpolation:linearRGB;fill:none;fill-opacity:1;stroke:#222255;stroke-width:7.04;stroke-linecap:square;stroke-linejoin:round;stroke-miterlimit:4;stroke-dasharray:none;stroke-dashoffset:0;stroke-opacity:0.25;color-rendering:optimizeQuality;image-rendering:optimizeQuality;shape-rendering:auto;text-rendering:geometricPrecision"
         points="   960.435,2881.72 6066.71,2881.72    "
         id="polyline689-8"
         transform="matrix(0.09779062,0,0,0.25,428.08848,-323.72999)" />
      <polyline
         clip-path="url(#clip422-9)"
         style="font-style:normal;font-weight:normal;font-size:12px;font-family:Dialog;color-interpolation:linearRGB;fill:none;fill-opacity:1;stroke:#222255;stroke-width:7.04;stroke-linecap:square;stroke-linejoin:round;stroke-miterlimit:4;stroke-dasharray:none;stroke-dashoffset:0;stroke-opacity:0.25;color-rendering:optimizeQuality;image-rendering:optimizeQuality;shape-rendering:auto;text-rendering:geometricPrecision"
         points="   960.435,2881.72 6066.71,2881.72    "
         id="polyline689-4"
         transform="matrix(0.09779062,0,0,0.25,428.08848,-273.63001)" />
      <polyline
         clip-path="url(#clip422-33)"
         style="font-style:normal;font-weight:normal;font-size:12px;font-family:Dialog;color-interpolation:linearRGB;fill:none;fill-opacity:1;stroke:#222255;stroke-width:7.04;stroke-linecap:square;stroke-linejoin:round;stroke-miterlimit:4;stroke-dasharray:none;stroke-dashoffset:0;stroke-opacity:0.25;color-rendering:optimizeQuality;image-rendering:optimizeQuality;shape-rendering:auto;text-rendering:geometricPrecision"
         points="   960.435,2881.72 6066.71,2881.72    "
         id="polyline689-86"
         transform="matrix(0.09779062,0,0,0.25,428.08848,-373.82999)" />
      <polyline
         clip-path="url(#clip422-0)"
         style="font-style:normal;font-weight:normal;font-size:12px;font-family:Dialog;color-interpolation:linearRGB;fill:none;fill-opacity:1;stroke:#222255;stroke-width:7.04;stroke-linecap:square;stroke-linejoin:round;stroke-miterlimit:4;stroke-dasharray:none;stroke-dashoffset:0;stroke-opacity:0.25;color-rendering:optimizeQuality;image-rendering:optimizeQuality;shape-rendering:auto;text-rendering:geometricPrecision"
         points="   960.435,2881.72 6066.71,2881.72    "
         id="polyline689-88"
         transform="matrix(0.09779062,0,0,0.25,428.08848,-423.93)" />
      <polyline
         clip-path="url(#clip422-8)"
         style="font-style:normal;font-weight:normal;font-size:12px;font-family:Dialog;color-interpolation:linearRGB;fill:none;fill-opacity:1;stroke:#222255;stroke-width:7.04;stroke-linecap:square;stroke-linejoin:round;stroke-miterlimit:4;stroke-dasharray:none;stroke-dashoffset:0;stroke-opacity:0.25;color-rendering:optimizeQuality;image-rendering:optimizeQuality;shape-rendering:auto;text-rendering:geometricPrecision"
         points="   960.435,2881.72 6066.71,2881.72    "
         id="polyline689-7"
         transform="matrix(0.09779062,0,0,0.25,428.08848,-474.03001)" />
      <polyline
         clip-path="url(#clip422-7)"
         style="font-style:normal;font-weight:normal;font-size:12px;font-family:Dialog;color-interpolation:linearRGB;fill:none;fill-opacity:1;stroke:#222255;stroke-width:7.04;stroke-linecap:square;stroke-linejoin:round;stroke-miterlimit:4;stroke-dasharray:none;stroke-dashoffset:0;stroke-opacity:0.25;color-rendering:optimizeQuality;image-rendering:optimizeQuality;shape-rendering:auto;text-rendering:geometricPrecision"
         points="   960.435,2881.72 6066.71,2881.72    "
         id="polyline689-3"
         transform="matrix(0.09779062,0,0,0.25,428.08848,-524.13)" />
      <polyline
         clip-path="url(#clip422-03)"
         style="font-style:normal;font-weight:normal;font-size:12px;font-family:Dialog;color-interpolation:linearRGB;fill:none;fill-opacity:1;stroke:#222255;stroke-width:7.04;stroke-linecap:square;stroke-linejoin:round;stroke-miterlimit:4;stroke-dasharray:none;stroke-dashoffset:0;stroke-opacity:0.25;color-rendering:optimizeQuality;image-rendering:optimizeQuality;shape-rendering:auto;text-rendering:geometricPrecision"
         points="   960.435,2881.72 6066.71,2881.72    "
         id="polyline689-9"
         transform="matrix(0.09779062,0,0,0.25,428.08848,-574.23)" />
    </g>
    <g
       transform="translate(510.6,547)"
       style="font-size:18.6667px;font-family:SansSerif;color-interpolation:linearRGB;fill:#000000;stroke:none;color-rendering:optimizeQuality;image-rendering:optimizeQuality;text-rendering:geometricPrecision"
       id="g201">
      <path
         style="fill:#000000;stroke:none"
         d="m -18.0781,0.5312 h 5 v 1.5313 h -5 z m 8.1694,4.3907 h 3.0625 V -5.6406 l -3.3281,0.6718 v -1.7187 l 3.3125,-0.6563 h 1.875 V 4.9219 H -1.94 V 6.5 h -7.9687 z"
         id="path203"
         inkscape:connector-curvature="0" />
    </g>
    <g
       transform="translate(510.6,496.9)"
       style="font-size:18.6667px;font-family:SansSerif;color-interpolation:linearRGB;fill:#000000;stroke:#ffffff;color-rendering:optimizeQuality;image-rendering:optimizeQuality;text-rendering:geometricPrecision"
       id="g205">
      <path
         style="fill:#000000;stroke:none"
         d="m -36.0781,0.5312 h 5 v 1.5313 h -5 z m 11.8569,-6.6562 q -1.4531,0 -2.1797,1.4297 -0.7266,1.4297 -0.7266,4.2891 0,2.8437 0.7266,4.2656 0.7266,1.4218 2.1797,1.4218 1.4531,0 2.1797,-1.4218 0.7265,-1.4219 0.7265,-4.2656 0,-2.8594 -0.7265,-4.2891 -0.7266,-1.4297 -2.1797,-1.4297 z m 0,-1.4844 q 2.3281,0 3.5547,1.8438 1.2265,1.8437 1.2265,5.3594 0,3.4843 -1.2265,5.3281 -1.2266,1.8437 -3.5547,1.8437 -2.3281,0 -3.5625,-1.8437 -1.2344,-1.8438 -1.2344,-5.3281 0,-3.5157 1.2344,-5.3594 1.2344,-1.8438 3.5625,-1.8438 z m 7.854,11.75 h 1.9532 V 6.5 h -1.9532 z m 9.946,-4.2187 q -1.3438,0 -2.1094,0.7109 -0.7656,0.711 -0.7656,1.9766 0,1.25 0.7656,1.9609 0.7656,0.7109 2.1094,0.7109 1.3281,0 2.1015,-0.7187 0.7735,-0.7187 0.7735,-1.9531 0,-1.2656 -0.7657,-1.9766 -0.7656,-0.7109 -2.1093,-0.7109 z M -8.2962,-0.875 Q -9.515,-1.1719 -10.1869,-2 q -0.6718,-0.8281 -0.6718,-2.0156 0,-1.6563 1.1875,-2.625 1.1875,-0.9688 3.25,-0.9688 2.0625,0 3.2421,0.9688 1.1797,0.9687 1.1797,2.625 0,1.1875 -0.6718,2.0156 -0.6719,0.8281 -1.875,1.125 1.3593,0.3125 2.1171,1.2344 0.7579,0.9218 0.7579,2.25 0,2 -1.2344,3.0781 -1.2344,1.0781 -3.5156,1.0781 -2.2969,0 -3.5235,-1.0781 -1.2265,-1.0781 -1.2265,-3.0781 0,-1.3282 0.7578,-2.25 0.7578,-0.9219 2.1172,-1.2344 z m -0.6875,-2.9531 q 0,1.0625 0.6718,1.6719 0.6719,0.6093 1.8907,0.6093 1.2031,0 1.8828,-0.6093 0.6797,-0.6094 0.6797,-1.6719 0,-1.0781 -0.6797,-1.6875 -0.6797,-0.6094 -1.8828,-0.6094 -1.2188,0 -1.8907,0.6094 -0.6718,0.6094 -0.6718,1.6875 z"
         id="path207"
         inkscape:connector-curvature="0" />
    </g>
    <g
       transform="translate(510.6,446.8)"
       style="font-size:18.6667px;font-family:SansSerif;color-interpolation:linearRGB;fill:#000000;stroke:#ffffff;color-rendering:optimizeQuality;image-rendering:optimizeQuality;text-rendering:geometricPrecision"
       id="g209">
      <path
         style="fill:#000000;stroke:none"
         d="m -36.0781,0.5312 h 5 v 1.5313 h -5 z m 11.8569,-6.6562 q -1.4531,0 -2.1797,1.4297 -0.7266,1.4297 -0.7266,4.2891 0,2.8437 0.7266,4.2656 0.7266,1.4218 2.1797,1.4218 1.4531,0 2.1797,-1.4218 0.7265,-1.4219 0.7265,-4.2656 0,-2.8594 -0.7265,-4.2891 -0.7266,-1.4297 -2.1797,-1.4297 z m 0,-1.4844 q 2.3281,0 3.5547,1.8438 1.2265,1.8437 1.2265,5.3594 0,3.4843 -1.2265,5.3281 -1.2266,1.8437 -3.5547,1.8437 -2.3281,0 -3.5625,-1.8437 -1.2344,-1.8438 -1.2344,-5.3281 0,-3.5157 1.2344,-5.3594 1.2344,-1.8438 3.5625,-1.8438 z m 7.854,11.75 h 1.9532 V 6.5 h -1.9532 z m 10.1647,-5.3125 q -1.25,0 -1.9922,0.8594 -0.7422,0.8594 -0.7422,2.375 0,1.4844 0.7422,2.3516 0.7422,0.8671 1.9922,0.8671 1.2656,0 2.0078,-0.8671 0.7422,-0.8672 0.7422,-2.3516 0,-1.5156 -0.7422,-2.375 -0.7422,-0.8594 -2.0078,-0.8594 z m 3.7188,-5.875 v 1.7031 q -0.7032,-0.3281 -1.4219,-0.5078 -0.7188,-0.1796 -1.4219,-0.1796 -1.8594,0 -2.8359,1.2578 -0.9766,1.2578 -1.1172,3.789 0.5469,-0.8125 1.375,-1.2422 0.8281,-0.4296 1.8281,-0.4296 2.0781,0 3.2891,1.2656 1.2109,1.2656 1.2109,3.4531 0,2.125 -1.2578,3.4141 -1.2578,1.289 -3.3672,1.289 -2.3906,0 -3.6641,-1.8437 -1.2734,-1.8438 -1.2734,-5.3281 0,-3.2969 1.5547,-5.25 1.5547,-1.9532 4.1797,-1.9532 0.7187,0 1.4375,0.1406 0.7187,0.1407 1.4844,0.4219 z"
         id="path211"
         inkscape:connector-curvature="0" />
    </g>
    <g
       transform="translate(510.6,396.7)"
       style="font-size:18.6667px;font-family:SansSerif;color-interpolation:linearRGB;fill:#000000;stroke:#ffffff;color-rendering:optimizeQuality;image-rendering:optimizeQuality;text-rendering:geometricPrecision"
       id="g213">
      <path
         style="fill:#000000;stroke:none"
         d="m -36.0781,0.5312 h 5 v 1.5313 h -5 z m 11.8569,-6.6562 q -1.4531,0 -2.1797,1.4297 -0.7266,1.4297 -0.7266,4.2891 0,2.8437 0.7266,4.2656 0.7266,1.4218 2.1797,1.4218 1.4531,0 2.1797,-1.4218 0.7265,-1.4219 0.7265,-4.2656 0,-2.8594 -0.7265,-4.2891 -0.7266,-1.4297 -2.1797,-1.4297 z m 0,-1.4844 q 2.3281,0 3.5547,1.8438 1.2265,1.8437 1.2265,5.3594 0,3.4843 -1.2265,5.3281 -1.2266,1.8437 -3.5547,1.8437 -2.3281,0 -3.5625,-1.8437 -1.2344,-1.8438 -1.2344,-5.3281 0,-3.5157 1.2344,-5.3594 1.2344,-1.8438 3.5625,-1.8438 z m 7.854,11.75 h 1.9532 V 6.5 h -1.9532 z m 11.0866,-9.8594 -4.7344,7.3907 h 4.7344 z m -0.5,-1.625 h 2.3594 v 9.0157 h 1.9687 V 3.2344 H -3.4212 V 6.5 H -5.2806 V 3.2344 h -6.2656 V 1.4219 Z"
         id="path215"
         inkscape:connector-curvature="0" />
    </g>
    <g
       transform="translate(510.6,346.6)"
       style="font-size:18.6667px;font-family:SansSerif;color-interpolation:linearRGB;fill:#000000;stroke:#ffffff;color-rendering:optimizeQuality;image-rendering:optimizeQuality;text-rendering:geometricPrecision"
       id="g217">
      <path
         style="fill:#000000;stroke:none"
         d="m -36.0781,0.5312 h 5 v 1.5313 h -5 z m 11.8569,-6.6562 q -1.4531,0 -2.1797,1.4297 -0.7266,1.4297 -0.7266,4.2891 0,2.8437 0.7266,4.2656 0.7266,1.4218 2.1797,1.4218 1.4531,0 2.1797,-1.4218 0.7265,-1.4219 0.7265,-4.2656 0,-2.8594 -0.7265,-4.2891 -0.7266,-1.4297 -2.1797,-1.4297 z m 0,-1.4844 q 2.3281,0 3.5547,1.8438 1.2265,1.8437 1.2265,5.3594 0,3.4843 -1.2265,5.3281 -1.2266,1.8437 -3.5547,1.8437 -2.3281,0 -3.5625,-1.8437 -1.2344,-1.8438 -1.2344,-5.3281 0,-3.5157 1.2344,-5.3594 1.2344,-1.8438 3.5625,-1.8438 z m 7.854,11.75 h 1.9532 V 6.5 h -1.9532 z m 7.5397,0.7813 h 6.5469 V 6.5 h -8.7969 V 4.9219 q 1.0625,-1.1094 2.9063,-2.9688 1.8437,-1.8593 2.3125,-2.3906 0.9062,-1.0156 1.2656,-1.7187 0.3594,-0.7032 0.3594,-1.375 0,-1.1094 -0.7735,-1.8047 -0.7734,-0.6953 -2.0234,-0.6953 -0.875,0 -1.8594,0.3124 -0.9844,0.3126 -2.0937,0.9219 v -1.8906 q 1.125,-0.4531 2.1093,-0.6875 0.9844,-0.2344 1.8125,-0.2344 2.1407,0 3.4219,1.0782 1.2813,1.0781 1.2813,2.875 0,0.8593 -0.3204,1.625 -0.3203,0.7656 -1.164,1.8124 -0.2344,0.2657 -1.4766,1.5469 -1.2422,1.2813 -3.5078,3.5938 z"
         id="path219"
         inkscape:connector-curvature="0" />
    </g>
    <g
       transform="translate(510.6,296.5)"
       style="font-size:18.6667px;font-family:SansSerif;color-interpolation:linearRGB;fill:#000000;stroke:#ffffff;color-rendering:optimizeQuality;image-rendering:optimizeQuality;text-rendering:geometricPrecision"
       id="g221">
      <path
         style="fill:#000000;stroke:none"
         d="m -5.9531,-6.125 q -1.4531,0 -2.1797,1.4297 -0.7266,1.4297 -0.7266,4.2891 0,2.8437 0.7266,4.2656 0.7266,1.4218 2.1797,1.4218 1.4531,0 2.1797,-1.4218 0.7265,-1.4219 0.7265,-4.2656 0,-2.8594 -0.7265,-4.2891 Q -4.5,-6.125 -5.9531,-6.125 Z m 0,-1.4844 q 2.3281,0 3.5547,1.8438 1.2265,1.8437 1.2265,5.3594 0,3.4843 -1.2265,5.3281 -1.2266,1.8437 -3.5547,1.8437 -2.3281,0 -3.5625,-1.8437 -1.2344,-1.8438 -1.2344,-5.3281 0,-3.5157 1.2344,-5.3594 1.2344,-1.8438 3.5625,-1.8438 z"
         id="path223"
         inkscape:connector-curvature="0" />
    </g>
    <g
       transform="translate(510.6,246.4)"
       style="font-size:18.6667px;font-family:SansSerif;color-interpolation:linearRGB;fill:#000000;stroke:#ffffff;color-rendering:optimizeQuality;image-rendering:optimizeQuality;text-rendering:geometricPrecision"
       id="g225">
      <path
         style="fill:#000000;stroke:none"
         d="m -23.9531,-6.125 q -1.4531,0 -2.1797,1.4297 -0.7266,1.4297 -0.7266,4.2891 0,2.8437 0.7266,4.2656 0.7266,1.4218 2.1797,1.4218 1.4531,0 2.1797,-1.4218 0.7265,-1.4219 0.7265,-4.2656 0,-2.8594 -0.7265,-4.2891 Q -22.5,-6.125 -23.9531,-6.125 Z m 0,-1.4844 q 2.3281,0 3.5547,1.8438 1.2265,1.8437 1.2265,5.3594 0,3.4843 -1.2265,5.3281 -1.2266,1.8437 -3.5547,1.8437 -2.3281,0 -3.5625,-1.8437 -1.2344,-1.8438 -1.2344,-5.3281 0,-3.5157 1.2344,-5.3594 1.2344,-1.8438 3.5625,-1.8438 z m 7.854,11.75 h 1.9531 V 6.5 h -1.9531 z m 7.5397,0.7813 h 6.5469 V 6.5 h -8.7969 V 4.9219 q 1.0625,-1.1094 2.9062,-2.9688 1.8438,-1.8593 2.3125,-2.3906 0.9063,-1.0156 1.2657,-1.7187 0.3593,-0.7032 0.3593,-1.375 0,-1.1094 -0.7734,-1.8047 -0.7734,-0.6953 -2.0234,-0.6953 -0.875,0 -1.8594,0.3124 -0.9844,0.3126 -2.0938,0.9219 v -1.8906 q 1.125,-0.4531 2.1094,-0.6875 0.9844,-0.2344 1.8125,-0.2344 2.1406,0 3.4219,1.0782 1.2812,1.0781 1.2812,2.875 0,0.8593 -0.3203,1.625 -0.3203,0.7656 -1.164,1.8124 -0.2344,0.2657 -1.4766,1.5469 -1.2422,1.2813 -3.5078,3.5938 z"
         id="path227"
         inkscape:connector-curvature="0" />
    </g>
    <g
       transform="translate(510.6,196.3)"
       style="font-size:18.6667px;font-family:SansSerif;color-interpolation:linearRGB;fill:#000000;stroke:#ffffff;color-rendering:optimizeQuality;image-rendering:optimizeQuality;text-rendering:geometricPrecision"
       id="g229">
      <path
         style="fill:#000000;stroke:none"
         d="m -23.9531,-6.125 q -1.4531,0 -2.1797,1.4297 -0.7266,1.4297 -0.7266,4.2891 0,2.8437 0.7266,4.2656 0.7266,1.4218 2.1797,1.4218 1.4531,0 2.1797,-1.4218 0.7265,-1.4219 0.7265,-4.2656 0,-2.8594 -0.7265,-4.2891 Q -22.5,-6.125 -23.9531,-6.125 Z m 0,-1.4844 q 2.3281,0 3.5547,1.8438 1.2265,1.8437 1.2265,5.3594 0,3.4843 -1.2265,5.3281 -1.2266,1.8437 -3.5547,1.8437 -2.3281,0 -3.5625,-1.8437 -1.2344,-1.8438 -1.2344,-5.3281 0,-3.5157 1.2344,-5.3594 1.2344,-1.8438 3.5625,-1.8438 z m 7.854,11.75 h 1.9531 V 6.5 h -1.9531 z m 11.0866,-9.8594 -4.7344,7.3907 h 4.7344 z m -0.5,-1.625 h 2.3593 v 9.0157 h 1.9688 V 3.2344 H -3.1532 V 6.5 H -5.0125 V 3.2344 h -6.2657 V 1.4219 Z"
         id="path231"
         inkscape:connector-curvature="0" />
    </g>
    <g
       transform="translate(510.6,146.2)"
       style="font-size:18.6667px;font-family:SansSerif;color-interpolation:linearRGB;fill:#000000;stroke:#ffffff;color-rendering:optimizeQuality;image-rendering:optimizeQuality;text-rendering:geometricPrecision"
       id="g233">
      <path
         style="fill:#000000;stroke:none"
         d="m -23.9531,-6.125 q -1.4531,0 -2.1797,1.4297 -0.7266,1.4297 -0.7266,4.2891 0,2.8437 0.7266,4.2656 0.7266,1.4218 2.1797,1.4218 1.4531,0 2.1797,-1.4218 0.7265,-1.4219 0.7265,-4.2656 0,-2.8594 -0.7265,-4.2891 Q -22.5,-6.125 -23.9531,-6.125 Z m 0,-1.4844 q 2.3281,0 3.5547,1.8438 1.2265,1.8437 1.2265,5.3594 0,3.4843 -1.2265,5.3281 -1.2266,1.8437 -3.5547,1.8437 -2.3281,0 -3.5625,-1.8437 -1.2344,-1.8438 -1.2344,-5.3281 0,-3.5157 1.2344,-5.3594 1.2344,-1.8438 3.5625,-1.8438 z m 7.854,11.75 h 1.9531 V 6.5 h -1.9531 z m 10.1647,-5.3125 q -1.25,0 -1.9922,0.8594 -0.7422,0.8594 -0.7422,2.375 0,1.4844 0.7422,2.3516 0.7422,0.8671 1.9922,0.8671 1.2656,0 2.0078,-0.8671 0.7422,-0.8672 0.7422,-2.3516 0,-1.5156 -0.7422,-2.375 -0.7422,-0.8594 -2.0078,-0.8594 z m 3.7187,-5.875 v 1.7031 q -0.7031,-0.3281 -1.4218,-0.5078 -0.7188,-0.1796 -1.4219,-0.1796 -1.8594,0 -2.836,1.2578 -0.9765,1.2578 -1.1171,3.789 0.5468,-0.8125 1.375,-1.2422 0.8281,-0.4296 1.8281,-0.4296 2.0781,0 3.289,1.2656 1.211,1.2656 1.211,3.4531 0,2.125 -1.2578,3.4141 -1.2578,1.289 -3.3672,1.289 -2.3906,0 -3.6641,-1.8437 -1.2734,-1.8438 -1.2734,-5.3281 0,-3.2969 1.5547,-5.25 1.5547,-1.9532 4.1797,-1.9532 0.7187,0 1.4375,0.1406 0.7187,0.1407 1.4843,0.4219 z"
         id="path235"
         inkscape:connector-curvature="0" />
    </g>
    <g
       transform="translate(510.6,96.1)"
       style="font-size:18.6667px;font-family:SansSerif;color-interpolation:linearRGB;fill:#000000;stroke:#ffffff;color-rendering:optimizeQuality;image-rendering:optimizeQuality;text-rendering:geometricPrecision"
       id="g237">
      <path
         style="fill:#000000;stroke:none"
         d="m -23.9531,-6.125 q -1.4531,0 -2.1797,1.4297 -0.7266,1.4297 -0.7266,4.2891 0,2.8437 0.7266,4.2656 0.7266,1.4218 2.1797,1.4218 1.4531,0 2.1797,-1.4218 0.7265,-1.4219 0.7265,-4.2656 0,-2.8594 -0.7265,-4.2891 Q -22.5,-6.125 -23.9531,-6.125 Z m 0,-1.4844 q 2.3281,0 3.5547,1.8438 1.2265,1.8437 1.2265,5.3594 0,3.4843 -1.2265,5.3281 -1.2266,1.8437 -3.5547,1.8437 -2.3281,0 -3.5625,-1.8437 -1.2344,-1.8438 -1.2344,-5.3281 0,-3.5157 1.2344,-5.3594 1.2344,-1.8438 3.5625,-1.8438 z m 7.854,11.75 h 1.9531 V 6.5 h -1.9531 z m 9.9459,-4.2187 q -1.3437,0 -2.1093,0.7109 -0.7657,0.711 -0.7657,1.9766 0,1.25 0.7657,1.9609 0.7656,0.7109 2.1093,0.7109 1.3282,0 2.1016,-0.7187 0.7734,-0.7187 0.7734,-1.9531 0,-1.2656 -0.7656,-1.9766 -0.7656,-0.7109 -2.1094,-0.7109 z M -8.0282,-0.875 Q -9.2469,-1.1719 -9.9188,-2 q -0.6719,-0.8281 -0.6719,-2.0156 0,-1.6563 1.1875,-2.625 1.1875,-0.9688 3.25,-0.9688 2.0625,0 3.2422,0.9688 1.1797,0.9687 1.1797,2.625 0,1.1875 -0.6719,2.0156 -0.6718,0.8281 -1.875,1.125 1.3594,0.3125 2.1172,1.2344 0.7578,0.9218 0.7578,2.25 0,2 -1.2343,3.0781 -1.2344,1.0781 -3.5157,1.0781 -2.2968,0 -3.5234,-1.0781 -1.2266,-1.0781 -1.2266,-3.0781 0,-1.3282 0.7578,-2.25 0.7579,-0.9219 2.1172,-1.2344 z m -0.6875,-2.9531 q 0,1.0625 0.6719,1.6719 0.6719,0.6093 1.8906,0.6093 1.2032,0 1.8828,-0.6093 0.6797,-0.6094 0.6797,-1.6719 0,-1.0781 -0.6797,-1.6875 -0.6796,-0.6094 -1.8828,-0.6094 -1.2187,0 -1.8906,0.6094 -0.6719,0.6094 -0.6719,1.6875 z"
         id="path239"
         inkscape:connector-curvature="0" />
    </g>
    <g
       transform="translate(510.6,46)"
       style="font-size:18.6667px;font-family:SansSerif;color-interpolation:linearRGB;fill:#000000;stroke:#ffffff;color-rendering:optimizeQuality;image-rendering:optimizeQuality;text-rendering:geometricPrecision"
       id="g241">
      <path
         style="fill:#000000;stroke:none"
         d="m -9.6406,4.9219 h 3.0625 V -5.6406 l -3.3281,0.6718 v -1.7187 l 3.3124,-0.6563 h 1.875 V 4.9219 h 3.0469 V 6.5 h -7.9687 z"
         id="path243"
         inkscape:connector-curvature="0" />
    </g>
    <g
       transform="rotate(-90,383.0499,-86.5501)"
       style="font-size:20.5333px;font-family:mwa_cmmi10;color-interpolation:linearRGB;fill:#000000;stroke:#ffffff;color-rendering:optimizeQuality;image-rendering:optimizeQuality;text-rendering:geometricPrecision"
       id="g245">
      <path
         style="fill:#000000;stroke:none"
         d="m -12.3047,-7.3921 q -0.2031,0 -0.2031,-0.2812 0,-0.0469 0.0312,-0.1719 0.0313,-0.125 0.086,-0.2031 0.0546,-0.0781 0.1484,-0.0781 1.2812,0 1.7812,-0.1407 0.2657,-0.0937 0.3907,-0.5781 l 2.8906,-11.5312 q 0.0312,-0.2032 0.0312,-0.2813 0,-0.2344 -0.2343,-0.2656 -0.4063,-0.0781 -1.5157,-0.0781 -0.2187,0 -0.2187,-0.2813 0.0156,-0.0469 0.0469,-0.1719 0.0312,-0.125 0.0859,-0.2031 0.0547,-0.0781 0.1328,-0.0781 h 7.25 q 1,0 1.9375,0.3515 0.9375,0.3516 1.5313,1.0782 0.5937,0.7265 0.5937,1.7734 0,1.3281 -0.9375,2.375 -0.9375,1.0469 -2.3437,1.6328 -1.4063,0.586 -2.7188,0.586 h -3.4062 l -1.2813,5.1875 q -0.0469,0.2031 -0.0469,0.2968 0,0.0782 0.0235,0.1328 0.0234,0.0547 0.0703,0.0704 0.0469,0.0156 0.1562,0.0312 0.4063,0.0938 1.5157,0.0938 0.2031,0 0.2031,0.2656 -0.0625,0.2968 -0.1094,0.3828 -0.0469,0.0859 -0.25,0.0859 z m 5.4531,-7.1718 h 2.9531 q 2.0313,0 3.1094,-1.1094 0.5313,-0.5313 0.875,-1.5625 0.3438,-1.0313 0.3438,-1.8594 0,-1.0312 -0.7891,-1.4687 -0.7891,-0.4375 -1.9609,-0.4375 h -2 q -0.5782,0 -0.7657,0.1015 -0.1875,0.1016 -0.3281,0.6172 z"
         id="path247"
         inkscape:connector-curvature="0" />
      <path
         style="fill:#000000;stroke:none"
         d="m 3.5736,-7.3921 q -0.2031,0 -0.2031,-0.2812 0.0937,-0.4531 0.2656,-0.4531 1.25,0 1.6875,-0.0938 0.4844,-0.1094 0.6094,-0.625 l 2.875,-11.5312 q 0.0469,-0.2032 0.0469,-0.2657 0,-0.125 -0.0704,-0.1875 -0.0703,-0.0625 -0.2109,-0.0937 -0.4219,-0.0781 -1.5937,-0.0781 -0.2032,0 -0.2032,-0.2813 0.0625,-0.2656 0.1016,-0.3594 0.0391,-0.0937 0.2578,-0.0937 h 5.8594 q 0.2031,0 0.2031,0.2812 -0.0156,0.0469 -0.0469,0.1719 -0.0312,0.125 -0.0781,0.2031 -0.0469,0.0782 -0.1562,0.0782 -1.2188,0 -1.7032,0.0781 -0.4531,0.125 -0.5781,0.6406 l -2.875,11.5313 q -0.0469,0.25 -0.0469,0.2656 0,0.0625 0.0157,0.1094 0.0156,0.0468 0.0625,0.0781 0.0468,0.0312 0.0937,0.0469 0.0469,0.0156 0.1094,0.0312 0.3906,0.0938 1.5937,0.0938 0.2032,0 0.2032,0.2656 -0.0625,0.2968 -0.1094,0.3828 -0.0469,0.0859 -0.25,0.0859 z"
         id="path249"
         inkscape:connector-curvature="0" />
    </g>
    <g
       style="color-interpolation:linearRGB;fill:#4878d0;stroke:#000000;stroke-width:0.6667;stroke-linecap:butt;stroke-linejoin:bevel;stroke-miterlimit:1;stroke-dasharray:10, 6;color-rendering:optimizeQuality;image-rendering:optimizeQuality;text-rendering:geometricPrecision"
       id="g255">
      <path
         d="m 543.3287,309.025 69.3059,-75.15 40.5414,182.865 69.3059,-2.505 51.0761,20.04 230.2293,92.685"
         style="fill:none;fill-rule:evenodd;stroke:#4878d0"
         id="path257"
         inkscape:connector-curvature="0" />
    </g>
    <g
       transform="translate(543.3287,309.025)"
       style="color-interpolation:linearRGB;fill:#0072bd;stroke:#0072bd;color-rendering:optimizeQuality;image-rendering:optimizeQuality;text-rendering:geometricPrecision"
       id="g259">
      <circle
         r="5.8667002"
         style="stroke:none"
         cx="0"
         cy="0"
         id="circle261" />
    </g>
    <g
       transform="translate(543.3287,309.025)"
       style="color-interpolation:linearRGB;fill:#4878d0;stroke:#000000;stroke-linecap:butt;color-rendering:optimizeQuality;image-rendering:optimizeQuality;text-rendering:geometricPrecision"
       id="g263">
      <circle
         r="5.8667002"
         style="fill:#4878d0;stroke:#000000"
         cx="0"
         cy="0"
         id="circle265" />
    </g>
    <g
       transform="translate(612.6346,233.875)"
       style="color-interpolation:linearRGB;fill:#0072bd;stroke:#0072bd;color-rendering:optimizeQuality;image-rendering:optimizeQuality;text-rendering:geometricPrecision"
       id="g267">
      <circle
         r="5.8667002"
         style="stroke:none"
         cx="0"
         cy="0"
         id="circle269" />
    </g>
    <g
       transform="translate(612.6346,233.875)"
       style="color-interpolation:linearRGB;fill:#4878d0;stroke:#000000;stroke-linecap:butt;color-rendering:optimizeQuality;image-rendering:optimizeQuality;text-rendering:geometricPrecision"
       id="g271">
      <circle
         r="5.8667002"
         style="fill:#4878d0;stroke:#000000"
         cx="0"
         cy="0"
         id="circle273" />
    </g>
    <g
       transform="translate(653.176,416.74)"
       style="color-interpolation:linearRGB;fill:#0072bd;stroke:#0072bd;color-rendering:optimizeQuality;image-rendering:optimizeQuality;text-rendering:geometricPrecision"
       id="g275">
      <circle
         r="5.8667002"
         style="stroke:none"
         cx="0"
         cy="0"
         id="circle277" />
    </g>
    <g
       transform="translate(653.176,416.74)"
       style="color-interpolation:linearRGB;fill:#4878d0;stroke:#000000;stroke-linecap:butt;color-rendering:optimizeQuality;image-rendering:optimizeQuality;text-rendering:geometricPrecision"
       id="g279">
      <circle
         r="5.8667002"
         style="fill:#4878d0;stroke:#000000"
         cx="0"
         cy="0"
         id="circle281" />
    </g>
    <g
       transform="translate(722.4819,414.235)"
       style="color-interpolation:linearRGB;fill:#0072bd;stroke:#0072bd;color-rendering:optimizeQuality;image-rendering:optimizeQuality;text-rendering:geometricPrecision"
       id="g283">
      <circle
         r="5.8667002"
         style="stroke:none"
         cx="0"
         cy="0"
         id="circle285" />
    </g>
    <g
       transform="translate(722.4819,414.235)"
       style="color-interpolation:linearRGB;fill:#4878d0;stroke:#000000;stroke-linecap:butt;color-rendering:optimizeQuality;image-rendering:optimizeQuality;text-rendering:geometricPrecision"
       id="g287">
      <circle
         r="5.8667002"
         style="fill:#4878d0;stroke:#000000"
         cx="0"
         cy="0"
         id="circle289" />
    </g>
    <g
       transform="translate(773.558,434.275)"
       style="color-interpolation:linearRGB;fill:#0072bd;stroke:#0072bd;color-rendering:optimizeQuality;image-rendering:optimizeQuality;text-rendering:geometricPrecision"
       id="g291">
      <circle
         r="5.8667002"
         style="stroke:none"
         cx="0"
         cy="0"
         id="circle293" />
    </g>
    <g
       transform="translate(773.558,434.275)"
       style="color-interpolation:linearRGB;fill:#4878d0;stroke:#000000;stroke-linecap:butt;color-rendering:optimizeQuality;image-rendering:optimizeQuality;text-rendering:geometricPrecision"
       id="g295">
      <circle
         r="5.8667002"
         style="fill:#4878d0;stroke:#000000"
         cx="0"
         cy="0"
         id="circle297" />
    </g>
    <g
       transform="translate(1003.7873,526.96)"
       style="color-interpolation:linearRGB;fill:#0072bd;stroke:#0072bd;color-rendering:optimizeQuality;image-rendering:optimizeQuality;text-rendering:geometricPrecision"
       id="g299">
      <circle
         r="5.8667002"
         style="stroke:none"
         cx="0"
         cy="0"
         id="circle301" />
    </g>
    <g
       transform="translate(1003.7873,526.96)"
       style="color-interpolation:linearRGB;fill:#4878d0;stroke:#000000;stroke-linecap:butt;color-rendering:optimizeQuality;image-rendering:optimizeQuality;text-rendering:geometricPrecision"
       id="g303">
      <circle
         r="5.8667002"
         style="fill:#4878d0;stroke:#000000"
         cx="0"
         cy="0"
         id="circle305" />
    </g>
    <g
       style="color-interpolation:linearRGB;fill:none;stroke:#ee854a;stroke-width:0.6667;stroke-linecap:butt;stroke-linejoin:bevel;stroke-miterlimit:1;stroke-dasharray:10, 6;color-rendering:optimizeQuality;image-rendering:optimizeQuality;text-rendering:geometricPrecision"
       id="g307">
      <path
         d="m 543.3287,301.6674 69.3059,0.7377 40.5414,-7.9766 69.3059,4.8665 51.0761,-11.1729 230.2293,27.5813"
         style="fill:none;fill-rule:evenodd;stroke:#ee854a"
         id="path309"
         inkscape:connector-curvature="0" />
    </g>
    <g
       transform="translate(543.3287,301.6674)"
       style="color-interpolation:linearRGB;fill:#d95319;stroke:#d95319;color-rendering:optimizeQuality;image-rendering:optimizeQuality;text-rendering:geometricPrecision"
       id="g311">
      <circle
         r="5.8667002"
         style="stroke:none"
         cx="0"
         cy="0"
         id="circle313" />
    </g>
    <g
       transform="translate(543.3287,301.6674)"
       style="color-interpolation:linearRGB;fill:#ee854a;stroke:#000000;stroke-linecap:butt;color-rendering:optimizeQuality;image-rendering:optimizeQuality;text-rendering:geometricPrecision"
       id="g315">
      <circle
         r="5.8667002"
         style="fill:#ee854a;stroke:#000000"
         cx="0"
         cy="0"
         id="circle317" />
    </g>
    <g
       transform="translate(612.6346,302.4051)"
       style="color-interpolation:linearRGB;fill:#d95319;stroke:#d95319;color-rendering:optimizeQuality;image-rendering:optimizeQuality;text-rendering:geometricPrecision"
       id="g319">
      <circle
         r="5.8667002"
         style="stroke:none"
         cx="0"
         cy="0"
         id="circle321" />
    </g>
    <g
       transform="translate(612.6346,302.4051)"
       style="color-interpolation:linearRGB;fill:#ee854a;stroke:#000000;stroke-linecap:butt;color-rendering:optimizeQuality;image-rendering:optimizeQuality;text-rendering:geometricPrecision"
       id="g323">
      <circle
         r="5.8667002"
         style="fill:#ee854a;stroke:#000000"
         cx="0"
         cy="0"
         id="circle325" />
    </g>
    <g
       transform="translate(653.176,294.4285)"
       style="color-interpolation:linearRGB;fill:#d95319;stroke:#d95319;color-rendering:optimizeQuality;image-rendering:optimizeQuality;text-rendering:geometricPrecision"
       id="g327">
      <circle
         r="5.8667002"
         style="stroke:none"
         cx="0"
         cy="0"
         id="circle329" />
    </g>
    <g
       transform="translate(653.176,294.4285)"
       style="color-interpolation:linearRGB;fill:#ee854a;stroke:#000000;stroke-linecap:butt;color-rendering:optimizeQuality;image-rendering:optimizeQuality;text-rendering:geometricPrecision"
       id="g331">
      <circle
         r="5.8667002"
         style="fill:#ee854a;stroke:#000000"
         cx="0"
         cy="0"
         id="circle333" />
    </g>
    <g
       transform="translate(722.4819,299.295)"
       style="color-interpolation:linearRGB;fill:#d95319;stroke:#d95319;color-rendering:optimizeQuality;image-rendering:optimizeQuality;text-rendering:geometricPrecision"
       id="g335">
      <circle
         r="5.8667002"
         style="stroke:none"
         cx="0"
         cy="0"
         id="circle337" />
    </g>
    <g
       transform="translate(722.4819,299.295)"
       style="color-interpolation:linearRGB;fill:#ee854a;stroke:#000000;stroke-linecap:butt;color-rendering:optimizeQuality;image-rendering:optimizeQuality;text-rendering:geometricPrecision"
       id="g339">
      <circle
         r="5.8667002"
         style="fill:#ee854a;stroke:#000000"
         cx="0"
         cy="0"
         id="circle341" />
    </g>
    <g
       transform="translate(773.558,288.1221)"
       style="color-interpolation:linearRGB;fill:#d95319;stroke:#d95319;color-rendering:optimizeQuality;image-rendering:optimizeQuality;text-rendering:geometricPrecision"
       id="g343">
      <circle
         r="5.8667002"
         style="stroke:none"
         cx="0"
         cy="0"
         id="circle345" />
    </g>
    <g
       transform="translate(773.558,288.1221)"
       style="color-interpolation:linearRGB;fill:#ee854a;stroke:#000000;stroke-linecap:butt;color-rendering:optimizeQuality;image-rendering:optimizeQuality;text-rendering:geometricPrecision"
       id="g347">
      <circle
         r="5.8667002"
         style="fill:#ee854a;stroke:#000000"
         cx="0"
         cy="0"
         id="circle349" />
    </g>
    <g
       transform="translate(1003.7873,315.7034)"
       style="color-interpolation:linearRGB;fill:#d95319;stroke:#d95319;color-rendering:optimizeQuality;image-rendering:optimizeQuality;text-rendering:geometricPrecision"
       id="g351">
      <circle
         r="5.8667002"
         style="stroke:none"
         cx="0"
         cy="0"
         id="circle353" />
    </g>
    <g
       transform="translate(1003.7873,315.7034)"
       style="color-interpolation:linearRGB;fill:#ee854a;stroke:#000000;stroke-linecap:butt;color-rendering:optimizeQuality;image-rendering:optimizeQuality;text-rendering:geometricPrecision"
       id="g355">
      <circle
         r="5.8667002"
         style="fill:#ee854a;stroke:#000000"
         cx="0"
         cy="0"
         id="circle357" />
    </g>
    <g
       style="color-interpolation:sRGB;fill:#ffffff;stroke:#ffffff;color-rendering:optimizeSpeed;image-rendering:optimizeSpeed;shape-rendering:crispEdges;text-rendering:optimizeSpeed"
       id="g359" />
    <g
       style="color-interpolation:linearRGB;fill:none;stroke:#4878d0;stroke-width:0.6667;stroke-linecap:butt;stroke-linejoin:bevel;stroke-miterlimit:1;stroke-dasharray:10, 6;color-rendering:optimizeQuality;image-rendering:optimizeQuality;text-rendering:geometricPrecision"
       id="g367">
      <line
         y2="70.366302"
         style="fill:none;stroke:#4878d0"
         x1="835"
         x2="875"
         y1="70.366302"
         id="line369" />
    </g>
    <g
       transform="translate(855,70.3663)"
       style="color-interpolation:linearRGB;fill:#0072bd;stroke:#0072bd;color-rendering:optimizeQuality;image-rendering:optimizeQuality;text-rendering:geometricPrecision"
       id="g371">
      <circle
         r="5.8667002"
         style="stroke:none"
         cx="0"
         cy="0"
         id="circle373" />
    </g>
    <g
       transform="translate(855,70.3663)"
       style="color-interpolation:linearRGB;fill:#4878d0;stroke:#000000;stroke-linecap:butt;color-rendering:optimizeQuality;image-rendering:optimizeQuality;text-rendering:geometricPrecision"
       id="g375">
      <circle
         r="5.8667002"
         style="fill:#4878d0;stroke:#000000"
         cx="0"
         cy="0"
         id="circle377" />
    </g>
    <g
       style="color-interpolation:linearRGB;fill:#ee854a;stroke:none;stroke-width:0.6667;stroke-linecap:butt;stroke-linejoin:bevel;stroke-miterlimit:1;stroke-dasharray:10, 6;color-rendering:optimizeQuality;image-rendering:optimizeQuality;text-rendering:geometricPrecision"
       id="g383">
      <line
         y2="93.633698"
         style="fill:#ee854a;stroke:none"
         x1="835"
         x2="875"
         y1="93.633698"
         id="line385" />
    </g>
    <g
       transform="translate(855,93.6337)"
       style="color-interpolation:linearRGB;fill:#d95319;stroke:#d95319;color-rendering:optimizeQuality;image-rendering:optimizeQuality;text-rendering:geometricPrecision"
       id="g387">
      <circle
         r="5.8667002"
         style="stroke:none"
         cx="0"
         cy="0"
         id="circle389" />
    </g>
    <g
       transform="translate(855,93.6337)"
       style="color-interpolation:linearRGB;fill:#ee854a;stroke:#000000;stroke-linecap:butt;color-rendering:optimizeQuality;image-rendering:optimizeQuality;text-rendering:geometricPrecision"
       id="g391">
      <circle
         r="5.8667002"
         style="fill:#ee854a;stroke:#000000"
         cx="0"
         cy="0"
         id="circle393" />
    </g>
    <g
       transform="translate(878,77)"
       style="font-size:18.6667px;font-family:SansSerif;color-interpolation:linearRGB;fill:#000000;stroke:none;color-rendering:optimizeQuality;image-rendering:optimizeQuality;text-rendering:geometricPrecision"
       id="g363">
      <path
         style="fill:#000000;stroke:none"
         d="m 1.8594,-13.8438 h 8.7656 v 1.5626 H 3.7344 v 4.1093 h 6.5937 v 1.5781 H 3.7344 v 5.0157 h 7.0625 V 0 H 1.8594 Z m 20.3502,3.4532 -3.75,5.0625 L 22.4127,0 H 20.3971 L 17.3658,-4.0781 14.3502,0 h -2.0156 l 4.0312,-5.4375 -3.6875,-4.9531 h 2.0156 l 2.75,3.7031 2.7657,-3.7031 z m 4.0563,8.8281 v 5.5156 h -1.7188 v -14.3437 h 1.7188 v 1.5781 q 0.5469,-0.9219 1.3672,-1.375 0.8203,-0.4531 1.9609,-0.4531 1.8906,0 3.0703,1.5 1.1797,1.5 1.1797,3.9531 0,2.4531 -1.1797,3.9531 -1.1797,1.5 -3.0703,1.5 -1.1406,0 -1.9609,-0.4453 -0.8203,-0.4453 -1.3672,-1.3828 z m 5.8125,-3.625 q 0,-1.875 -0.7734,-2.9531 -0.7735,-1.0782 -2.1329,-1.0782 -1.3593,0 -2.1328,1.0782 -0.7734,1.0781 -0.7734,2.9531 0,1.8906 0.7734,2.9609 0.7735,1.0704 2.1328,1.0704 1.3594,0 2.1329,-1.0704 0.7734,-1.0703 0.7734,-2.9609 z M 45.3426,-5.625 v 0.8438 h -7.8437 q 0.1093,1.75 1.0625,2.6796 0.9531,0.9297 2.6562,0.9297 0.9844,0 1.9063,-0.2422 0.9218,-0.2421 1.8281,-0.7265 v 1.6094 q -0.9219,0.3906 -1.8828,0.5937 -0.961,0.2031 -1.961,0.2031 -2.4843,0 -3.9375,-1.4453 -1.4531,-1.4453 -1.4531,-3.9141 0,-2.5468 1.375,-4.0468 1.375,-1.5 3.7188,-1.5 2.0937,0 3.3125,1.3515 1.2187,1.3516 1.2187,3.6641 z m -1.7031,-0.5 q -0.0156,-1.4062 -0.7813,-2.2344 -0.7656,-0.8281 -2.0312,-0.8281 -1.4219,0 -2.2813,0.8047 -0.8593,0.8047 -0.9843,2.2734 z m 10.3217,-2.6719 q -0.2812,-0.1719 -0.625,-0.25 -0.3437,-0.0781 -0.75,-0.0781 -1.4531,0 -2.2266,0.9453 -0.7734,0.9453 -0.7734,2.7109 V 0 h -1.7187 v -10.3906 h 1.7187 v 1.6094 q 0.5469,-0.9376 1.4063,-1.3985 0.8593,-0.4609 2.0937,-0.4609 0.1719,0 0.3906,0.0234 0.2188,0.0234 0.4688,0.0703 z m 1.6546,-1.5937 h 1.7031 V 0 h -1.7031 z m 0,-4.0469 h 1.7031 v 2.1563 h -1.7031 z m 13.2614,6.0469 q 0.6406,-1.1563 1.5313,-1.7032 0.8906,-0.5468 2.1093,-0.5468 1.6094,0 2.4922,1.1328 0.8828,1.1328 0.8828,3.2422 V 0 h -1.7187 v -6.2188 q 0,-1.4843 -0.5234,-2.2109 -0.5235,-0.7265 -1.6172,-0.7265 -1.3282,0 -2.0938,0.8828 -0.7656,0.8828 -0.7656,2.3984 V 0 h -1.7188 v -6.2188 q 0,-1.5 -0.5312,-2.2187 -0.5313,-0.7187 -1.625,-0.7187 -1.3125,0 -2.0859,0.8828 -0.7735,0.8828 -0.7735,2.3984 V 0 H 60.721 v -10.3906 h 1.7187 v 1.6094 q 0.5938,-0.9532 1.4063,-1.4063 0.8125,-0.4531 1.9375,-0.4531 1.125,0 1.9218,0.5781 0.7969,0.5781 1.1719,1.6719 z m 18.9703,2.7656 v 0.8438 h -7.8437 q 0.1094,1.75 1.0625,2.6796 0.9531,0.9297 2.6562,0.9297 0.9844,0 1.9063,-0.2422 0.9219,-0.2421 1.8281,-0.7265 v 1.6094 q -0.9219,0.3906 -1.8828,0.5937 -0.9609,0.2031 -1.9609,0.2031 -2.4844,0 -3.9375,-1.4453 -1.4532,-1.4453 -1.4532,-3.9141 0,-2.5468 1.375,-4.0468 1.375,-1.5 3.7188,-1.5 2.0937,0 3.3125,1.3515 1.2187,1.3516 1.2187,3.6641 z m -1.7031,-0.5 q -0.0156,-1.4062 -0.7812,-2.2344 -0.7657,-0.8281 -2.0313,-0.8281 -1.4219,0 -2.2812,0.8047 -0.8594,0.8047 -0.9844,2.2734 z M 99.0755,-6.2656 V 0 h -1.7031 v -6.2188 q 0,-1.4687 -0.5703,-2.2031 -0.5703,-0.7343 -1.7266,-0.7343 -1.3906,0 -2.1875,0.8828 -0.7969,0.8828 -0.7969,2.3984 V 0 h -1.7187 v -10.3906 h 1.7187 v 1.6094 q 0.6094,-0.9376 1.4453,-1.3985 0.836,-0.4609 1.9141,-0.4609 1.7969,0 2.7109,1.1094 0.9141,1.1093 0.9141,3.2656 z m 4.8866,-7.0782 v 2.9532 h 3.5157 v 1.3281 h -3.5157 v 5.6406 q 0,1.2657 0.3438,1.6328 0.3437,0.3672 1.4062,0.3672 h 1.7657 V 0 h -1.7657 q -1.9687,0 -2.7187,-0.7344 -0.75,-0.7344 -0.75,-2.6875 v -5.6406 h -1.25 v -1.3281 h 1.25 v -2.9532 z m 10.3462,8.125 q -2.0781,0 -2.875,0.4688 -0.7969,0.4688 -0.7969,1.6094 0,0.9062 0.6016,1.4453 0.6016,0.5391 1.6328,0.5391 1.4219,0 2.2734,-1.0079 0.8516,-1.0078 0.8516,-2.6797 v -0.375 z m 3.4063,-0.7031 V 0 h -1.7188 v -1.5781 q -0.5781,0.9531 -1.4531,1.3984 -0.875,0.4453 -2.125,0.4453 -1.5938,0 -2.5391,-0.8906 -0.9453,-0.8906 -0.9453,-2.4062 0,-1.75 1.1719,-2.6407 1.1719,-0.8906 3.5,-0.8906 h 2.3906 v -0.1563 q 0,-1.1874 -0.7734,-1.8281 -0.7735,-0.6406 -2.1641,-0.6406 -0.8906,0 -1.7344,0.2109 -0.8437,0.211 -1.625,0.6328 v -1.5781 q 0.9375,-0.3593 1.8203,-0.539 0.8829,-0.1797 1.711,-0.1797 2.25,0 3.3672,1.1718 1.1172,1.1719 1.1172,3.5469 z m 3.3074,-8.5156 h 1.7031 V 0 h -1.7031 z"
         id="path365"
         inkscape:connector-curvature="0" />
    </g>
    <g
       transform="translate(878,101)"
       style="font-size:18.6667px;font-family:SansSerif;color-interpolation:linearRGB;fill:#000000;stroke:none;color-rendering:optimizeQuality;image-rendering:optimizeQuality;text-rendering:geometricPrecision"
       id="g379">
      <path
         style="fill:#000000;stroke:none"
         d="m 10.1719,-13.3906 v 1.8281 q -1.0781,-0.5156 -2.0235,-0.7656 -0.9453,-0.25 -1.8203,-0.25 -1.5312,0 -2.3593,0.5937 -0.8282,0.5938 -0.8282,1.6875 0,0.9219 0.5469,1.3907 0.5469,0.4687 2.0937,0.75 l 1.125,0.2343 q 2.1094,0.3907 3.1016,1.3985 Q 11,-5.5156 11,-3.8281 11,-1.8125 9.6484,-0.7734 8.2969,0.2656 5.7031,0.2656 4.7188,0.2656 3.6094,0.0469 2.5,-0.1719 1.3125,-0.6094 v -1.9375 q 1.1406,0.6407 2.2344,0.9688 1.0937,0.3281 2.1562,0.3281 1.5938,0 2.4688,-0.6328 0.875,-0.6328 0.875,-1.8047 0,-1.0156 -0.625,-1.5937 -0.625,-0.5782 -2.0625,-0.8594 L 5.2188,-6.3594 Q 3.125,-6.7812 2.1875,-7.6719 1.25,-8.5625 1.25,-10.1562 q 0,-1.8282 1.2969,-2.8907 1.2969,-1.0625 3.5625,-1.0625 0.9844,0 1.9922,0.1797 1.0078,0.1797 2.0703,0.5391 z m 3.4673,3 h 1.7031 V 0 h -1.7031 z m 0,-4.0469 h 1.7031 v 2.1563 h -1.7031 z m 13.2615,6.0469 q 0.6406,-1.1563 1.5312,-1.7032 0.8906,-0.5468 2.1094,-0.5468 1.6094,0 2.4922,1.1328 0.8828,1.1328 0.8828,3.2422 V 0 h -1.7188 v -6.2188 q 0,-1.4843 -0.5234,-2.2109 -0.5234,-0.7265 -1.6172,-0.7265 -1.3281,0 -2.0937,0.8828 -0.7657,0.8828 -0.7657,2.3984 V 0 h -1.7187 v -6.2188 q 0,-1.5 -0.5313,-2.2187 -0.5312,-0.7187 -1.625,-0.7187 -1.3125,0 -2.0859,0.8828 -0.7734,0.8828 -0.7734,2.3984 V 0 h -1.7188 v -10.3906 h 1.7188 v 1.6094 q 0.5937,-0.9532 1.4062,-1.4063 0.8125,-0.4531 1.9375,-0.4531 1.125,0 1.9219,0.5781 0.7969,0.5781 1.1719,1.6719 z m 9.9078,4.2968 v -6.2968 h 1.7187 v 6.2187 q 0,1.4844 0.5703,2.2188 0.5703,0.7343 1.7266,0.7343 1.375,0 2.1797,-0.8828 0.8047,-0.8828 0.8047,-2.3984 v -5.8906 h 1.7031 V 0 h -1.7031 v -1.5938 q -0.625,0.9376 -1.4453,1.3985 -0.8204,0.4609 -1.8985,0.4609 -1.7969,0 -2.7265,-1.1094 -0.9297,-1.1093 -0.9297,-3.25 z m 12.0116,-10.3437 h 1.7031 V 0 h -1.7031 z m 9.9021,9.2187 q -2.0782,0 -2.875,0.4688 -0.7969,0.4688 -0.7969,1.6094 0,0.9062 0.6015,1.4453 0.6016,0.5391 1.6329,0.5391 1.4218,0 2.2734,-1.0079 0.8516,-1.0078 0.8516,-2.6797 v -0.375 z m 3.4062,-0.7031 V 0 h -1.7187 v -1.5781 q -0.5782,0.9531 -1.4532,1.3984 -0.875,0.4453 -2.125,0.4453 -1.5937,0 -2.539,-0.8906 -0.9453,-0.8906 -0.9453,-2.4062 0,-1.75 1.1718,-2.6407 1.1719,-0.8906 3.5,-0.8906 h 2.3907 v -0.1563 q 0,-1.1874 -0.7735,-1.8281 -0.7734,-0.6406 -2.164,-0.6406 -0.8907,0 -1.7344,0.2109 -0.8438,0.211 -1.625,0.6328 v -1.5781 q 0.9375,-0.3593 1.8203,-0.539 0.8828,-0.1797 1.7109,-0.1797 2.25,0 3.3672,1.1718 1.1172,1.1719 1.1172,3.5469 z m 4.9949,-7.4219 v 2.9532 h 3.5156 v 1.3281 h -3.5156 v 5.6406 q 0,1.2657 0.3438,1.6328 0.3437,0.3672 1.4062,0.3672 h 1.7656 V 0 h -1.7656 q -1.9687,0 -2.7187,-0.7344 -0.75,-0.7344 -0.75,-2.6875 v -5.6406 h -1.25 v -1.3281 h 1.25 v -2.9532 z m 14.5024,7.7188 v 0.8438 H 73.782 q 0.1094,1.75 1.0625,2.6796 0.9531,0.9297 2.6562,0.9297 0.9844,0 1.9063,-0.2422 0.9219,-0.2421 1.8281,-0.7265 v 1.6094 q -0.9219,0.3906 -1.8828,0.5937 -0.9609,0.2031 -1.9609,0.2031 -2.4844,0 -3.9375,-1.4453 -1.4532,-1.4453 -1.4532,-3.9141 0,-2.5468 1.375,-4.0468 1.375,-1.5 3.7188,-1.5 2.0937,0 3.3125,1.3515 1.2187,1.3516 1.2187,3.6641 z m -1.7031,-0.5 q -0.0156,-1.4062 -0.7812,-2.2344 -0.7657,-0.8281 -2.0313,-0.8281 -1.4219,0 -2.2812,0.8047 -0.8594,0.8047 -0.9844,2.2734 z m 11.1342,-2.6875 v -5.625 H 92.76 V 0 h -1.7032 v -1.5625 q -0.5312,0.9375 -1.3515,1.3828 -0.8203,0.4453 -1.9766,0.4453 -1.875,0 -3.0625,-1.5 -1.1875,-1.5 -1.1875,-3.9531 0,-2.4531 1.1875,-3.9531 1.1875,-1.5 3.0625,-1.5 1.1563,0 1.9766,0.4531 0.8203,0.4531 1.3515,1.375 z m -5.8125,3.625 q 0,1.8906 0.7735,2.9609 0.7734,1.0704 2.1328,1.0704 1.3437,0 2.125,-1.0704 0.7812,-1.0703 0.7812,-2.9609 0,-1.875 -0.7812,-2.9531 -0.7813,-1.0782 -2.125,-1.0782 -1.3594,0 -2.1328,1.0782 -0.7735,1.0781 -0.7735,2.9531 z"
         id="path381"
         inkscape:connector-curvature="0" />
    </g>
    <polyline
       clip-path="url(#clip422-92-5)"
       style="font-style:normal;font-weight:normal;font-size:12px;font-family:Dialog;color-interpolation:auto;fill:none;fill-opacity:1;stroke:#222255;stroke-width:7.04;stroke-linecap:square;stroke-linejoin:miter;stroke-miterlimit:10;stroke-dasharray:none;stroke-dashoffset:0;stroke-opacity:0.25;color-rendering:auto;image-rendering:auto;shape-rendering:auto;text-rendering:auto"
       points="   1881.47,4015.05 1881.47,2503.94    "
       id="polyline563-8"
       transform="matrix(0.25,0,0,0.32885427,207.5559,-775.87134)" />
    <polyline
       clip-path="url(#clip422-92-1)"
       style="font-style:normal;font-weight:normal;font-size:12px;font-family:Dialog;color-interpolation:auto;fill:none;fill-opacity:1;stroke:#222255;stroke-width:7.04;stroke-linecap:square;stroke-linejoin:miter;stroke-miterlimit:10;stroke-dasharray:none;stroke-dashoffset:0;stroke-opacity:0.25;color-rendering:auto;image-rendering:auto;shape-rendering:auto;text-rendering:auto"
       points="   1881.47,4015.05 1881.47,2503.94    "
       id="polyline563-89"
       transform="matrix(0.25,0,0,0.32885427,368.4793,-778.37635)" />
    <polyline
       clip-path="url(#clip422-92-3)"
       style="font-style:normal;font-weight:normal;font-size:12px;font-family:Dialog;color-interpolation:auto;fill:none;fill-opacity:1;stroke:#222255;stroke-width:7.04;stroke-linecap:square;stroke-linejoin:miter;stroke-miterlimit:10;stroke-dasharray:none;stroke-dashoffset:0;stroke-opacity:0.25;color-rendering:auto;image-rendering:auto;shape-rendering:auto;text-rendering:auto"
       points="   1881.47,4015.05 1881.47,2503.94    "
       id="polyline563-80"
       transform="matrix(0.25,0,0,0.32885427,529.40258,-775.87134)" />
  </g>
</svg>
